# Blender v3.1.2 OBJ File: 'puzzle g.blend'
# www.blender.org
mtllib Miur_Bibliothèque.mtl
o Plane.036_Plane.047
v 13.633736 -0.150792 3.682071
v 13.633736 -0.150792 -3.469963
v 13.633736 2.550992 3.682071
v 13.633736 2.550992 -3.469963
vt 0.001226 0.998774
vt 0.001226 0.001226
vt 0.378064 0.001226
vt 0.378064 0.998774
vn -1.0000 0.0000 0.0000
usemtl Material.009
s off
f 2/1/1 1/2/1 3/3/1 4/4/1
o Plane.049_Plane.061
v 3.880961 -0.150792 3.682071
v 3.880961 -0.150792 -3.469963
v 3.880961 2.550992 3.682071
v 3.880961 2.550992 -3.469963
v 3.880961 -0.150792 1.337551
v 3.880961 2.550992 1.337551
v 3.880961 -0.150792 2.993410
v 3.880961 2.550992 2.993410
v 3.880961 2.385380 -3.469963
v 3.880961 2.385380 3.682071
v 3.880961 2.385380 1.337551
v 3.880961 2.385380 2.993410
vt 0.354976 0.671755
vt 0.354976 0.001226
vt 0.378075 0.001226
vt 0.378076 0.671755
vt 0.354976 0.902718
vt 0.378076 0.902718
vt 0.354976 0.998774
vt 0.378076 0.998774
vt 0.001226 0.998774
vt 0.001226 0.902718
vt 0.001243 0.671754
vt 0.001244 0.001226
vn 1.0000 0.0000 0.0000
usemtl Material.009
s off
f 15/5/2 13/6/2 8/7/2 10/8/2
f 16/9/2 15/5/2 10/8/2 12/10/2
f 14/11/2 16/9/2 12/10/2 7/12/2
f 5/13/2 11/14/2 16/9/2 14/11/2
f 9/15/2 6/16/2 13/6/2 15/5/2
o Plane.050_Plane.062
v 13.633736 -0.150792 -3.469963
v 13.633736 2.550988 -3.469963
v 9.518334 -0.150792 -3.469963
v 9.518334 2.550988 -3.469963
v 13.633736 1.399178 -3.469963
v 9.518334 1.399178 -3.469963
vt 0.280589 0.001615
vt 0.280589 0.998385
vt 0.001615 0.998385
vt 0.001615 0.001615
vt 0.656000 0.001615
vt 0.656000 0.998385
vn 0.0000 0.0000 1.0000
usemtl Material.009
s off
f 22/17/3 21/18/3 18/19/3 20/20/3
f 19/21/3 17/22/3 21/18/3 22/17/3
o Miur_Bibliothèque_Plane.063
v 3.880961 -0.150792 3.682071
v 13.633736 -0.150792 3.682071
v 3.880961 2.550992 3.682071
v 13.633736 2.550992 3.682071
vt 0.001051 0.001050
vt 0.277496 0.001051
vt 0.277496 0.998950
vt 0.001050 0.998950
vn 0.0000 0.0000 -1.0000
usemtl Material.009
s off
f 23/23/4 25/24/4 26/25/4 24/26/4
o Plane.056_Plane.069
v 9.518334 2.550988 -2.574017
v 7.124956 2.550988 -2.574017
v 7.124956 1.399178 -2.574017
v 9.518334 1.399178 -2.574017
vt 0.481301 0.998616
vt 0.001384 0.998616
vt 0.001384 0.001384
vt 0.481301 0.001384
vn 0.0000 0.0000 1.0000
usemtl Material.009
s off
f 28/27/5 29/28/5 30/29/5 27/30/5
o Plane.057_Plane.070
v 3.880961 -0.150792 -3.469963
v 3.880961 2.550988 -3.469963
v 7.124956 -0.150792 -3.469963
v 7.124956 2.550988 -3.469963
v 3.880961 1.399178 -3.469963
v 7.124956 1.399178 -3.469963
vt 0.477878 0.998181
vt 0.477878 0.001819
vt 0.831646 0.001819
vt 0.831646 0.998181
vt 0.001819 0.998181
vt 0.001819 0.001819
vn 0.0000 0.0000 1.0000
usemtl Material.009
s off
f 35/31/6 36/32/6 34/33/6 32/34/6
f 31/35/6 33/36/6 36/32/6 35/31/6
