# Blender v3.1.2 OBJ File: 'puzzle g.blend'
# www.blender.org
mtllib Mur_SdB_Carrelage.mtl
o Mur_SdB_Carrelage_Plane.031
v -3.437966 1.112991 -1.700643
v 3.709537 1.112991 -5.941528
v 3.709537 -0.150792 -5.941528
v 3.709537 1.112991 -1.700643
v 3.709537 -0.150792 -1.700643
v -0.945089 -0.150792 -1.700643
v -0.945089 1.112991 -1.700643
v -3.437966 -0.150792 -1.700643
v -2.529629 -0.150792 -1.700643
v -2.529629 1.112991 -1.700643
v -1.027802 1.112991 -5.941528
v -1.027802 -0.150792 -5.941528
v -1.027802 -0.150792 -7.308493
v -1.027802 1.112991 -7.308493
v -3.437966 -0.150792 -7.320477
v -3.437966 1.112991 -7.320477
v 3.709537 0.988717 -4.545701
v 3.709537 1.112991 -4.545701
v 3.709537 1.112991 -5.323642
v 3.709537 0.988717 -5.323642
vt 1.607280 0.447261
vt -1.545349 0.447261
vt -1.545349 -0.393768
vt 1.607280 -0.393768
vt -4.367598 0.447261
vt -4.367599 -0.393769
vt -2.474252 -0.393768
vt -2.474252 -0.311066
vt -1.956544 -0.311066
vt -1.956544 -0.393768
vt -7.465183 0.447261
vt -7.465183 -0.393768
vt 8.465327 0.447260
vt 7.860841 0.447260
vt 7.860841 -0.393769
vt 8.465327 -0.393769
vt 4.120924 0.447260
vt 2.516975 0.447261
vt 2.516975 -0.393768
vt 4.120924 -0.393769
vn 0.0000 0.0000 1.0000
vn -1.0000 -0.0000 0.0000
vn 0.0000 0.0000 -1.0000
vn -0.0050 0.0000 1.0000
vn 1.0000 0.0000 0.0000
usemtl Material.007
s off
f 12/1/1 3/2/1 2/3/1 11/4/1
f 2/3/2 3/2/2 5/5/2 4/6/2 18/7/2 17/8/2 20/9/2 19/10/2
f 5/5/3 6/11/3 7/12/3 4/6/3
f 9/13/3 8/14/3 1/15/3 10/16/3
f 15/17/4 13/18/4 14/19/4 16/20/4
f 12/1/2 11/4/2 14/19/2 13/18/2
f 8/14/5 15/17/5 16/20/5 1/15/5
