# Blender v3.1.2 OBJ File: 'puzzle g.blend'
# www.blender.org
mtllib Top_Mur.mtl
o Top_Mur_Plane.071
v -6.473232 2.550510 -1.519372
v 3.880502 2.550510 -1.519372
v -6.473232 2.550510 -1.646877
v 3.880502 2.550510 -1.646877
v 3.755268 2.550510 -1.519372
v 3.755268 2.550510 -1.646877
v 4.102188 2.550510 -6.319019
v 3.755268 2.550510 -6.319019
v 3.755268 2.550510 -5.994080
v 4.102188 2.550510 -5.994080
v -0.968223 2.550510 -6.319019
v -0.968223 2.550510 -5.994080
v -0.650412 2.550510 -5.994080
v -0.650412 2.550510 -6.319019
v -0.968223 2.550510 -7.675749
v -0.650412 2.550510 -7.675749
v -0.968223 2.550510 -7.357179
v -0.650412 2.550510 -7.357179
v -3.795492 2.550510 -7.675749
v -3.795492 2.550510 -7.357179
v -3.478335 2.550510 -7.357179
v -3.478335 2.550510 -7.675749
v -3.478335 2.550510 -1.646893
v -3.794983 2.550510 -1.646877
v -3.794983 2.550510 -1.519372
v -3.478022 2.550510 -1.519372
v 3.755268 2.550510 -3.469359
v 3.880502 2.550510 -3.469359
v 4.102188 2.550510 -3.816170
v 3.755268 2.550510 -3.816170
v 14.018578 2.550510 -3.469359
v 14.018578 2.550510 -3.816170
v 13.642552 2.550510 -3.816170
v 13.647332 2.550510 -3.469359
v 14.004987 2.550510 4.088338
v 13.633742 2.550510 4.088338
v 14.005720 2.550510 3.680440
v 13.634476 2.550510 3.680441
v 3.754351 2.550510 4.088338
v 3.755084 2.550510 3.680441
v 3.880761 2.550510 4.088338
v 3.881494 2.550510 3.680441
v 4.215256 2.550510 4.088338
v 4.215990 2.550510 3.680441
v 3.754351 2.550510 5.458741
v 3.880761 2.550510 5.458741
v 4.215256 2.550510 5.458741
v 4.215256 2.550510 5.016108
v 3.880761 2.550510 5.016108
v 3.754351 2.550510 5.016108
v -6.490924 2.550510 5.458741
v -6.490924 2.550510 5.016108
v -6.049035 2.550510 5.458741
v -6.049035 2.550510 5.016108
v -3.478335 2.550510 -1.892845
v -3.795005 2.550510 -1.892830
v -6.473254 2.550510 -1.892830
v -6.054416 2.550510 -1.646877
v -6.054438 2.550510 -1.892830
v -6.054416 2.550510 -1.519372
v 7.122594 2.550510 -3.816170
v 7.123517 2.550510 -3.469359
v 9.518491 2.550510 -3.469359
v 9.517650 2.550510 -3.816170
v 7.123517 2.550510 -2.574580
v 9.518491 2.550510 -2.574580
vt 0.495591 0.309498
vt 0.489482 0.309623
vt 0.489417 0.302926
vt 0.495663 0.303016
vt 0.854420 0.317365
vt 0.854583 0.311146
vt 0.464003 0.044730
vt 0.444513 0.047779
vt 0.443914 0.030187
vt 0.462697 0.029548
vt 0.493659 0.191338
vt 0.474391 0.193291
vt 0.641853 0.051129
vt 0.650312 0.035762
vt 0.661839 0.050431
vt 0.650505 0.051697
vt 0.732660 0.032482
vt 0.718190 0.014344
vt 0.731735 0.001612
vt 0.744436 0.015125
vt 0.867120 0.043552
vt 0.868410 0.028038
vt 0.883565 0.029370
vt 0.882227 0.044593
vt 0.854970 0.299363
vt 0.869992 0.299845
vt 0.869781 0.311568
vt 0.978227 0.312666
vt 0.978319 0.300873
vt 0.998388 0.301010
vt 0.998306 0.312795
vt 0.869673 0.317703
vt 0.488235 0.209755
vt 0.494723 0.209331
vt 0.019415 0.205462
vt 0.019374 0.221896
vt 0.001801 0.222090
vt 0.001612 0.205667
vt 0.214986 0.203180
vt 0.215220 0.219655
vt 0.006058 0.560240
vt 0.023668 0.559981
vt 0.024051 0.579392
vt 0.006381 0.579665
vt 0.491611 0.569707
vt 0.491435 0.548920
vt 0.497604 0.548782
vt 0.498205 0.569560
vt 0.474554 0.569629
vt 0.474938 0.549178
vt 0.475196 0.621218
vt 0.493160 0.621153
vt 0.493219 0.644180
vt 0.475548 0.644462
vt 0.499963 0.621163
vt 0.499790 0.644099
vt 0.976837 0.653441
vt 0.977123 0.632047
vt 0.998388 0.632223
vt 0.998204 0.653646
vt 0.978180 0.318784
vt 0.998267 0.318905
vt 0.329362 0.217335
vt 0.328810 0.200688
vt 0.330251 0.260340
vt 0.215664 0.262189
vn 0.0000 1.0000 0.0000
usemtl Material.012
s off
f 5/1/1 2/2/1 4/3/1 6/4/1
f 26/5/1 5/1/1 6/4/1 23/6/1
f 9/7/1 10/8/1 7/9/1 8/10/1
f 30/11/1 29/12/1 10/8/1 9/7/1
f 13/13/1 14/14/1 11/15/1 12/16/1
f 9/7/1 8/10/1 14/14/1 13/13/1
f 17/17/1 18/18/1 16/19/1 15/20/1
f 11/15/1 14/14/1 18/18/1 17/17/1
f 21/21/1 22/22/1 19/23/1 20/24/1
f 17/17/1 15/20/1 22/22/1 21/21/1
f 55/25/1 56/26/1 24/27/1 23/6/1
f 58/28/1 59/29/1 57/30/1 3/31/1
f 25/32/1 26/5/1 23/6/1 24/27/1
f 6/4/1 4/3/1 28/33/1 27/34/1
f 27/34/1 28/33/1 29/12/1 30/11/1
f 33/35/1 34/36/1 31/37/1 32/38/1
f 64/39/1 63/40/1 34/36/1 33/35/1
f 37/41/1 38/42/1 36/43/1 35/44/1
f 31/37/1 34/36/1 38/42/1 37/41/1
f 41/45/1 42/46/1 40/47/1 39/48/1
f 43/49/1 44/50/1 42/46/1 41/45/1
f 5/1/1 40/47/1 42/46/1 2/2/1
f 36/43/1 38/42/1 44/50/1 43/49/1
f 48/51/1 49/52/1 46/53/1 47/54/1
f 49/52/1 50/55/1 45/56/1 46/53/1
f 41/45/1 39/48/1 50/55/1 49/52/1
f 43/49/1 41/45/1 49/52/1 48/51/1
f 53/57/1 54/58/1 52/59/1 51/60/1
f 45/56/1 50/55/1 54/58/1 53/57/1
f 21/21/1 20/24/1 56/26/1 55/25/1
f 60/61/1 58/28/1 3/31/1 1/62/1
f 25/32/1 24/27/1 58/28/1 60/61/1
f 24/27/1 56/26/1 59/29/1 58/28/1
f 54/58/1 60/61/1 1/62/1 52/59/1
f 29/12/1 28/33/1 62/63/1 61/64/1
f 61/64/1 62/63/1 63/40/1 64/39/1
f 63/40/1 62/63/1 65/65/1 66/66/1
