# Blender v3.1.2 OBJ File: 'puzzle g.blend'
# www.blender.org
mtllib P_Escalier.mtl
o P_Escalier_Cube.054
v -7.440832 1.682188 4.998094
v -7.465121 1.566260 4.998094
v -7.440832 1.682188 4.177149
v -7.465121 1.566260 4.177149
v -7.422928 1.678436 4.998094
v -7.447217 1.562508 4.998094
v -7.422928 1.678436 4.177149
v -7.447217 1.562508 4.177149
v -7.440832 1.594644 4.998093
v -7.465122 1.478716 4.998093
v -7.440832 1.594644 4.177148
v -7.465122 1.478716 4.177148
v -7.422928 1.590893 4.998093
v -7.447218 1.474965 4.998093
v -7.422928 1.590893 4.177148
v -7.447218 1.474965 4.177148
v -7.440832 1.528477 4.998093
v -7.465122 1.412549 4.998093
v -7.440832 1.528477 4.177148
v -7.465122 1.412549 4.177148
v -7.422928 1.524726 4.998093
v -7.447218 1.408798 4.998093
v -7.422928 1.524726 4.177148
v -7.447218 1.408798 4.177148
v -7.440832 1.440933 4.998093
v -7.465122 1.325006 4.998093
v -7.440832 1.440933 4.177148
v -7.465122 1.325006 4.177148
v -7.422928 1.437182 4.998093
v -7.447218 1.321254 4.998093
v -7.422928 1.437182 4.177148
v -7.447218 1.321254 4.177148
v -7.440832 1.366832 4.998093
v -7.465122 1.250904 4.998093
v -7.440832 1.366832 4.177148
v -7.465122 1.250904 4.177148
v -7.422928 1.363081 4.998093
v -7.447218 1.247153 4.998093
v -7.422928 1.363081 4.177148
v -7.447218 1.247153 4.177148
v -7.440832 1.279288 4.998093
v -7.465122 1.163360 4.998093
v -7.440832 1.279288 4.177148
v -7.465122 1.163360 4.177148
v -7.422928 1.275537 4.998093
v -7.447218 1.159609 4.998093
v -7.422928 1.275537 4.177148
v -7.447218 1.159609 4.177148
v -7.440832 1.213121 4.998093
v -7.465122 1.097194 4.998093
v -7.440832 1.213121 4.177148
v -7.465122 1.097194 4.177148
v -7.422928 1.209370 4.998093
v -7.447218 1.093442 4.998093
v -7.422928 1.209370 4.177148
v -7.447218 1.093442 4.177148
v -7.440832 1.125578 4.998093
v -7.465122 1.009650 4.998093
v -7.440832 1.125578 4.177148
v -7.465122 1.009650 4.177148
v -7.422928 1.121826 4.998093
v -7.447218 1.005898 4.998093
v -7.422928 1.121826 4.177148
v -7.447218 1.005898 4.177148
v -7.442395 1.047214 4.998093
v -7.466685 0.931286 4.998093
v -7.442395 1.047214 4.177148
v -7.466685 0.931286 4.177148
v -7.424491 1.043463 4.998093
v -7.448781 0.927535 4.998093
v -7.424491 1.043463 4.177148
v -7.448781 0.927535 4.177148
v -7.442395 0.959671 4.998093
v -7.466685 0.843743 4.998093
v -7.442395 0.959671 4.177148
v -7.466685 0.843743 4.177148
v -7.424492 0.955919 4.998093
v -7.448781 0.839991 4.998093
v -7.424492 0.955919 4.177148
v -7.448781 0.839991 4.177148
v -7.442396 0.893504 4.998093
v -7.466686 0.777576 4.998093
v -7.442396 0.893504 4.177148
v -7.466686 0.777576 4.177148
v -7.424492 0.889753 4.998093
v -7.448782 0.773825 4.998093
v -7.424492 0.889753 4.177148
v -7.448782 0.773825 4.177148
v -7.442396 0.805960 4.998093
v -7.466686 0.690032 4.998093
v -7.442396 0.805960 4.177148
v -7.466686 0.690032 4.177148
v -7.424492 0.802209 4.998093
v -7.448782 0.686281 4.998093
v -7.424492 0.802209 4.177148
v -7.448782 0.686281 4.177148
v -7.442395 0.731858 4.998093
v -7.466685 0.615931 4.998093
v -7.442395 0.731858 4.177148
v -7.466685 0.615931 4.177148
v -7.424492 0.728107 4.998093
v -7.448781 0.612179 4.998093
v -7.424492 0.728107 4.177148
v -7.448781 0.612179 4.177148
v -7.442396 0.644315 4.998093
v -7.466686 0.528387 4.998093
v -7.442396 0.644315 4.177148
v -7.466686 0.528387 4.177148
v -7.424492 0.640563 4.998093
v -7.448782 0.524636 4.998093
v -7.424492 0.640563 4.177148
v -7.448782 0.524636 4.177148
v -7.442396 0.578148 4.998093
v -7.466685 0.462220 4.998093
v -7.442396 0.578148 4.177148
v -7.466685 0.462220 4.177148
v -7.424492 0.574397 4.998093
v -7.448782 0.458469 4.998093
v -7.424492 0.574397 4.177148
v -7.448782 0.458469 4.177148
v -7.478662 1.782149 5.064288
v -7.478662 -0.107564 5.064288
v -7.478662 1.782149 4.110953
v -7.478662 -0.107564 4.110953
v -7.418708 1.782149 5.064288
v -7.418708 -0.107564 5.064288
v -7.418708 1.782149 4.110953
v -7.418708 -0.107564 4.110953
v -7.478662 0.525426 4.971455
v -7.478662 1.667832 4.971455
v -7.478662 0.525426 4.203787
v -7.478662 1.667832 4.203787
v -7.418708 0.498229 4.231456
v -7.418708 1.667832 4.971455
v -7.418708 0.498229 4.944566
v -7.418708 1.667832 4.203787
v -7.418708 0.526173 5.064288
v -7.478662 0.525956 5.064288
v -7.478662 0.526763 4.110953
v -7.418708 0.525707 4.110953
v -7.418708 -0.107564 4.215757
v -7.418708 -0.107564 4.979362
v -7.418708 0.525426 4.203787
v -7.418708 0.525426 4.971455
v -7.418708 -0.080368 4.951855
v -7.418708 -0.080368 4.242489
v -7.435366 -0.080368 4.951855
v -7.435366 -0.080368 4.242489
v -7.435366 0.498229 4.231456
v -7.435366 0.498229 4.944566
v -7.423685 -0.030741 4.901599
v -7.415495 0.039805 4.830159
v -7.415495 0.039805 4.360392
v -7.423685 -0.030741 4.291178
v -7.423685 0.448603 4.282038
v -7.415495 0.378057 4.353942
v -7.415495 0.378057 4.825898
v -7.423685 0.448603 4.895560
vt 0.241216 0.374881
vt 0.241216 0.868340
vt 0.170020 0.868339
vt 0.170021 0.374881
vt 0.252211 0.374881
vt 0.252211 0.868340
vt 0.159024 0.868339
vt 0.159026 0.374881
vt 0.559596 0.392919
vt 0.952701 0.392919
vt 0.952701 0.449636
vt 0.559596 0.449636
vt 0.559596 0.384160
vt 0.952701 0.384160
vt 0.952701 0.458395
vt 0.559596 0.458394
vt 0.559596 0.014072
vt 0.952701 0.014072
vt 0.952701 0.070789
vt 0.559596 0.070789
vt 0.559596 0.005314
vt 0.952701 0.005313
vt 0.952701 0.079548
vt 0.559596 0.079548
vt 0.952701 0.525405
vt 0.559596 0.525405
vt 0.559596 0.468688
vt 0.952701 0.468688
vt 0.952701 0.534164
vt 0.559596 0.534164
vt 0.559596 0.459929
vt 0.952701 0.459929
vt 0.952701 0.601174
vt 0.559596 0.601174
vt 0.559596 0.544457
vt 0.952701 0.544458
vt 0.952701 0.609933
vt 0.559596 0.609933
vt 0.559596 0.535698
vt 0.952701 0.535699
vt 0.559596 0.241380
vt 0.952701 0.241380
vt 0.952701 0.298097
vt 0.559596 0.298097
vt 0.559596 0.232621
vt 0.952701 0.232621
vt 0.952701 0.306856
vt 0.559596 0.306856
vt 0.954247 0.910572
vt 0.561142 0.910572
vt 0.561142 0.853855
vt 0.954247 0.853855
vt 0.954247 0.919331
vt 0.561142 0.919331
vt 0.561142 0.845096
vt 0.954247 0.845096
vt 0.952701 0.676943
vt 0.559596 0.676943
vt 0.559596 0.620227
vt 0.952701 0.620227
vt 0.952701 0.685703
vt 0.559596 0.685703
vt 0.559596 0.611467
vt 0.952701 0.611468
vt 0.559596 0.165611
vt 0.952701 0.165611
vt 0.952701 0.222328
vt 0.559596 0.222328
vt 0.559596 0.156852
vt 0.952701 0.156852
vt 0.952701 0.231087
vt 0.559596 0.231087
vt 0.952701 0.752713
vt 0.559596 0.752713
vt 0.559596 0.695996
vt 0.952701 0.695996
vt 0.952701 0.761472
vt 0.559596 0.761472
vt 0.559596 0.687237
vt 0.952701 0.687237
vt 0.559596 0.089842
vt 0.952701 0.089842
vt 0.952701 0.146558
vt 0.559596 0.146558
vt 0.559596 0.081083
vt 0.952701 0.081082
vt 0.952701 0.155318
vt 0.559596 0.155317
vt 0.561142 0.778086
vt 0.954247 0.778086
vt 0.954247 0.834802
vt 0.561142 0.834802
vt 0.561142 0.769327
vt 0.954247 0.769326
vt 0.954247 0.843562
vt 0.561142 0.843561
vt 0.308475 0.862876
vt 0.308474 0.378277
vt 0.378392 0.378277
vt 0.378392 0.862876
vt 0.297677 0.862876
vt 0.297676 0.378277
vt 0.389190 0.378277
vt 0.389190 0.862876
vt 0.954247 0.986341
vt 0.561142 0.986341
vt 0.561142 0.929624
vt 0.954247 0.929624
vt 0.954247 0.995100
vt 0.561142 0.995100
vt 0.561142 0.920865
vt 0.954247 0.920865
vt 0.952701 0.373866
vt 0.559596 0.373866
vt 0.559596 0.317150
vt 0.952701 0.317150
vt 0.952701 0.382625
vt 0.559596 0.382626
vt 0.559596 0.308390
vt 0.952701 0.308391
vt 0.549559 0.957159
vt 0.519443 0.957159
vt 0.519442 0.326027
vt 0.549558 0.326557
vt 0.472811 0.899735
vt 0.472810 0.325886
vt 0.087199 0.899734
vt 0.040567 0.957158
vt 0.010450 0.957158
vt 0.010452 0.326152
vt 0.040568 0.326262
vt 0.519443 0.987275
vt 0.040566 0.987274
vt 0.996640 0.499996
vt 0.980959 0.499996
vt 0.980959 0.201211
vt 0.996640 0.201211
vt 0.996640 0.700772
vt 0.996640 0.999561
vt 0.980959 0.999561
vt 0.980959 0.700772
vt 0.980959 0.000439
vt 0.996640 0.000439
vt 0.010452 0.007928
vt 0.040568 0.007928
vt 0.087200 0.325886
vt 0.519441 0.007927
vt 0.549557 0.007927
vt 0.466797 0.007927
vt 0.966281 0.275729
vt 0.972690 0.275729
vt 0.972690 0.498392
vt 0.966280 0.498392
vt 0.083228 0.007928
vt 0.458912 0.312225
vt 0.100706 0.312226
vt 0.097045 0.021589
vt 0.453369 0.021588
vt 0.150940 0.268623
vt 0.129771 0.290071
vt 0.126423 0.046563
vt 0.148078 0.067917
vt 0.966282 0.001362
vt 0.972691 0.001362
vt 0.972690 0.771342
vt 0.966280 0.771341
vt 0.972691 0.994016
vt 0.966281 0.994016
vt 0.374414 0.097713
vt 0.377313 0.238968
vt 0.180242 0.238924
vt 0.178246 0.097669
vt 0.407674 0.268719
vt 0.429466 0.290072
vt 0.403531 0.068012
vt 0.424567 0.046563
vn 0.9787 -0.2051 0.0000
vn 0.2051 0.9787 0.0000
vn -0.2051 -0.9787 0.0000
vn -0.0000 0.0000 -1.0000
vn 1.0000 0.0000 0.0000
vn 0.0000 0.0000 1.0000
vn 0.0000 1.0000 0.0000
vn 0.0000 -1.0000 0.0000
vn 0.0000 0.0191 0.9998
vn 0.9734 0.0029 0.2291
vn 0.0000 -0.0126 -0.9999
vn 0.9734 0.2291 0.0000
vn 0.9734 -0.0044 -0.2291
vn 0.9933 -0.1153 0.0000
vn 0.9933 0.1153 0.0000
vn 0.9933 -0.0022 -0.1153
vn 0.9933 0.0015 0.1153
vn 0.9734 -0.2291 0.0000
usemtl None
s off
f 7/1/1 5/2/1 6/3/1 8/4/1
f 3/5/2 1/6/2 5/2/2 7/1/2
f 8/4/3 6/3/3 2/7/3 4/8/3
f 15/9/1 13/10/1 14/11/1 16/12/1
f 11/13/2 9/14/2 13/10/2 15/9/2
f 16/12/3 14/11/3 10/15/3 12/16/3
f 23/17/1 21/18/1 22/19/1 24/20/1
f 19/21/2 17/22/2 21/18/2 23/17/2
f 24/20/3 22/19/3 18/23/3 20/24/3
f 31/25/1 29/26/1 30/27/1 32/28/1
f 27/29/2 25/30/2 29/26/2 31/25/2
f 32/28/3 30/27/3 26/31/3 28/32/3
f 39/33/1 37/34/1 38/35/1 40/36/1
f 35/37/2 33/38/2 37/34/2 39/33/2
f 40/36/3 38/35/3 34/39/3 36/40/3
f 47/41/1 45/42/1 46/43/1 48/44/1
f 43/45/2 41/46/2 45/42/2 47/41/2
f 48/44/3 46/43/3 42/47/3 44/48/3
f 55/49/1 53/50/1 54/51/1 56/52/1
f 51/53/2 49/54/2 53/50/2 55/49/2
f 56/52/3 54/51/3 50/55/3 52/56/3
f 63/57/1 61/58/1 62/59/1 64/60/1
f 59/61/2 57/62/2 61/58/2 63/57/2
f 64/60/3 62/59/3 58/63/3 60/64/3
f 71/65/1 69/66/1 70/67/1 72/68/1
f 67/69/2 65/70/2 69/66/2 71/65/2
f 72/68/3 70/67/3 66/71/3 68/72/3
f 79/73/1 77/74/1 78/75/1 80/76/1
f 75/77/2 73/78/2 77/74/2 79/73/2
f 80/76/3 78/75/3 74/79/3 76/80/3
f 87/81/1 85/82/1 86/83/1 88/84/1
f 83/85/2 81/86/2 85/82/2 87/81/2
f 88/84/3 86/83/3 82/87/3 84/88/3
f 95/89/1 93/90/1 94/91/1 96/92/1
f 91/93/2 89/94/2 93/90/2 95/89/2
f 96/92/3 94/91/3 90/95/3 92/96/3
f 103/97/1 101/98/1 102/99/1 104/100/1
f 99/101/2 97/102/2 101/98/2 103/97/2
f 104/100/3 102/99/3 98/103/3 100/104/3
f 111/105/1 109/106/1 110/107/1 112/108/1
f 107/109/2 105/110/2 109/106/2 111/105/2
f 112/108/3 110/107/3 106/111/3 108/112/3
f 119/113/1 117/114/1 118/115/1 120/116/1
f 115/117/2 113/118/2 117/114/2 119/113/2
f 120/116/3 118/115/3 114/119/3 116/120/3
f 123/121/4 127/122/4 140/123/4 139/124/4
f 136/125/5 143/126/5 140/123/5 127/122/5
f 134/127/5 136/125/5 127/122/5 125/128/5
f 125/128/6 121/129/6 138/130/6 137/131/6
f 123/132/7 121/133/7 125/128/7 127/122/7
f 131/134/6 143/135/6 136/136/6 132/137/6
f 129/138/4 130/139/4 134/140/4 144/141/4
f 132/137/8 136/136/8 134/142/8 130/143/8
f 129/138/7 144/141/7 143/135/7 131/134/7
f 138/130/6 122/144/6 126/145/6 137/131/6
f 144/146/5 134/127/5 125/128/5 137/131/5
f 140/123/4 128/147/4 124/148/4 139/124/4
f 143/126/5 141/149/5 128/147/5 140/123/5
f 133/150/9 149/151/9 148/152/9 146/153/9
f 144/146/5 137/131/5 126/145/5 142/154/5
f 133/155/5 143/126/5 144/146/5 135/156/5
f 145/157/5 142/154/5 141/149/5 146/158/5
f 146/158/5 141/149/5 143/126/5 133/155/5
f 135/156/5 144/146/5 142/154/5 145/157/5
f 158/159/10 150/160/10 147/161/10 151/162/10
f 135/163/8 150/164/8 149/151/8 133/150/8
f 146/153/7 148/152/7 147/165/7 145/166/7
f 145/166/11 147/165/11 150/167/11 135/168/11
f 153/169/5 156/170/5 157/171/5 152/172/5
f 155/173/12 149/174/12 150/160/12 158/159/12
f 154/175/13 148/176/13 149/174/13 155/173/13
f 152/172/14 151/162/14 154/175/14 153/169/14
f 156/170/15 155/173/15 158/159/15 157/171/15
f 155/173/16 156/170/16 153/169/16 154/175/16
f 157/171/17 158/159/17 151/162/17 152/172/17
f 151/162/18 147/161/18 148/176/18 154/175/18
