# Blender v3.1.2 OBJ File: 'puzzle.blend'
# www.blender.org
mtllib SdB_TapisdeBain.mtl
o SdB_TapideBain_Cylinder.004
v -0.657907 0.002566 0.180040
v -0.601752 0.002834 -0.038334
v -0.657907 -0.012882 0.180040
v -0.275458 0.011506 0.278388
v 0.106992 0.002566 0.376735
v -0.275458 -0.003974 0.278388
v -0.219302 0.017466 0.060013
v -0.163147 0.000762 -0.158361
v 0.163147 0.002834 0.158361
v 0.219303 0.018591 -0.060013
v 0.545597 0.002566 0.256708
v 0.489442 0.002566 0.475083
v 0.601752 -0.000026 0.038334
v 0.545597 -0.012882 0.256708
v 0.489442 -0.012882 0.475083
v 0.601752 -0.015465 0.038334
v 0.657907 -0.018591 -0.180040
v 0.657907 -0.003162 -0.180040
v 0.275458 -0.012959 -0.278388
v -0.106992 -0.017702 -0.376735
v 0.275458 0.002488 -0.278388
v -0.106992 -0.002290 -0.376735
v -0.489442 0.002566 -0.475083
v -0.489442 -0.012882 -0.475083
v -0.545597 0.002421 -0.256708
v -0.545597 -0.013022 -0.256708
v -0.601752 -0.012619 -0.038334
v 0.106992 -0.012882 0.376735
vt 0.016494 0.570715
vt 0.338346 0.568118
vt 0.338770 0.384765
vt 0.015732 0.385537
vt 0.003051 0.385585
vt 0.003806 0.570782
vt 0.016311 0.583308
vt 0.338317 0.580727
vt 0.661149 0.572132
vt 0.661838 0.386934
vt 0.661220 0.584787
vt 0.338657 0.199834
vt 0.014994 0.200589
vt 0.661959 0.202151
vt 0.985337 0.571767
vt 0.984930 0.386997
vt 0.985204 0.202260
vt 0.998021 0.571738
vt 0.997587 0.386918
vt 0.997862 0.202114
vt 0.998021 0.017104
vt 0.985363 0.017269
vt 0.985521 0.004661
vt 0.662764 0.005219
vt 0.662698 0.017834
vt 0.339125 0.001979
vt 0.339081 0.014626
vt 0.014647 0.015622
vt 0.014763 0.002981
vt 0.001979 0.015653
vt 0.002325 0.200618
vt 0.985350 0.584447
vn -0.0323 0.9995 0.0059
vn -0.9685 0.0000 -0.2490
vn -0.2490 0.0000 0.9685
vn 0.0255 0.9995 0.0208
vn -0.0064 0.9991 -0.0408
vn -0.0034 1.0000 -0.0030
vn 0.0002 1.0000 0.0007
vn 0.0159 0.9993 0.0342
vn 0.9685 0.0000 0.2490
vn 0.2490 0.0000 -0.9685
vn 0.0403 0.9986 -0.0336
vn -0.0171 0.9987 -0.0482
vn 0.0096 0.9999 -0.0042
usemtl None
s off
f 1/1/1 4/2/1 7/3/1 2/4/1
f 2/4/2 27/5/2 3/6/2 1/1/2
f 1/1/3 3/7/3 6/8/3 4/2/3
f 4/2/4 5/9/4 9/10/4 7/3/4
f 4/2/3 6/8/3 28/11/3 5/9/3
f 2/4/5 7/3/5 8/12/5 25/13/5
f 7/3/6 9/10/6 10/14/6 8/12/6
f 5/9/7 12/15/7 11/16/7 9/10/7
f 9/10/8 11/16/8 13/17/8 10/14/8
f 12/15/9 15/18/9 14/19/9 11/16/9
f 11/16/9 14/19/9 16/20/9 13/17/9
f 13/17/9 16/20/9 17/21/9 18/22/9
f 18/22/10 17/23/10 19/24/10 21/25/10
f 21/25/10 19/24/10 20/26/10 22/27/10
f 10/14/11 13/17/11 18/22/11 21/25/11
f 8/12/12 10/14/12 21/25/12 22/27/12
f 25/13/13 8/12/13 22/27/13 23/28/13
f 22/27/10 20/26/10 24/29/10 23/28/10
f 23/28/2 24/30/2 26/31/2 25/13/2
f 25/13/2 26/31/2 27/5/2 2/4/2
f 5/9/3 28/11/3 15/32/3 12/15/3
