# Blender v3.1.2 OBJ File: 'puzzle g.blend'
# www.blender.org
mtllib SdB_PQ.mtl
o SdB_PQ_Cube.027
v -0.109807 0.396117 -0.037773
v -0.109807 0.437197 -0.037773
v -0.117011 0.389694 -0.098149
v -0.117011 0.443619 -0.098149
v -0.056529 0.389694 -0.098149
v -0.056529 0.443619 -0.098149
v 0.123173 0.389694 -0.098149
v 0.123173 0.443619 -0.098149
v 0.176452 0.396117 -0.037773
v 0.176452 0.437197 -0.037773
v 0.183656 0.389694 -0.098149
v 0.183656 0.443619 -0.098149
v -0.109807 0.396117 0.023963
v -0.109807 0.437197 0.023963
v -0.063732 0.429269 0.012311
v -0.063732 0.404044 0.012311
v 0.130377 0.404044 0.012311
v 0.176452 0.437197 0.023963
v 0.176452 0.396117 0.023963
v -0.063732 0.437197 -0.037773
v -0.063732 0.396117 -0.037773
v 0.130377 0.396117 -0.037773
v 0.130377 0.437197 -0.037773
v -0.063732 0.437197 0.023963
v -0.063732 0.396117 0.023963
v 0.130377 0.396117 0.023963
v 0.130377 0.437197 0.023963
v -0.063732 0.429269 -0.026121
v -0.063732 0.404044 -0.026121
v 0.130377 0.404044 -0.026121
v 0.130377 0.429269 -0.026121
v 0.130377 0.429269 0.012311
v -0.040261 0.422129 -0.077064
v 0.113519 0.422129 -0.077064
v -0.040261 0.383684 -0.066763
v 0.113519 0.383684 -0.066763
v -0.040261 0.355540 -0.038619
v 0.113519 0.355540 -0.038619
v -0.040261 0.345239 -0.000174
v 0.113519 0.345239 -0.000174
v -0.040261 0.355540 0.038271
v 0.113519 0.355540 0.038271
v -0.040261 0.383684 0.066414
v 0.113519 0.383684 0.066414
v -0.040261 0.422129 0.076716
v 0.113519 0.422129 0.076716
v -0.040261 0.460574 0.066414
v 0.113519 0.460574 0.066414
v -0.040261 0.488717 0.038271
v 0.113519 0.488717 0.038271
v -0.040261 0.499019 -0.000174
v 0.113519 0.499019 -0.000174
v -0.040261 0.488717 -0.038619
v 0.113519 0.488717 -0.038619
v -0.040261 0.460574 -0.066763
v 0.113519 0.460574 -0.066763
v -0.109987 -0.301963 -0.031838
v -0.109987 -0.455743 -0.031838
v -0.148432 -0.301963 -0.021537
v -0.148432 -0.455743 -0.021537
v -0.176575 -0.301963 0.006607
v -0.176575 -0.455743 0.006607
v -0.186877 -0.301963 0.045052
v -0.186877 -0.455743 0.045052
v -0.176575 -0.301963 0.083497
v -0.176575 -0.455743 0.083497
v -0.148432 -0.301963 0.111640
v -0.148432 -0.455743 0.111640
v -0.109987 -0.301963 0.121942
v -0.109987 -0.455743 0.121942
v -0.071542 -0.301963 0.111640
v -0.071542 -0.455743 0.111640
v -0.043398 -0.301963 0.083497
v -0.043398 -0.455743 0.083497
v -0.033097 -0.301963 0.045052
v -0.033097 -0.455743 0.045052
v -0.043398 -0.301963 0.006607
v -0.043398 -0.455743 0.006607
v -0.071542 -0.301963 -0.021537
v -0.071542 -0.455743 -0.021537
v 0.050651 -0.301963 -0.068967
v 0.050651 -0.455743 -0.068967
v 0.012206 -0.301963 -0.058665
v 0.012206 -0.455743 -0.058665
v -0.015937 -0.301963 -0.030522
v -0.015937 -0.455743 -0.030522
v -0.026239 -0.301963 0.007923
v -0.026239 -0.455743 0.007923
v -0.015937 -0.301963 0.046368
v -0.015937 -0.455743 0.046368
v 0.012206 -0.301963 0.074512
v 0.012206 -0.455743 0.074512
v 0.050651 -0.301963 0.084813
v 0.050651 -0.455743 0.084813
v 0.089096 -0.301963 0.074512
v 0.089096 -0.455743 0.074512
v 0.117240 -0.301963 0.046368
v 0.117240 -0.455743 0.046368
v 0.127541 -0.301963 0.007923
v 0.127541 -0.455743 0.007923
v 0.117240 -0.301963 -0.030522
v 0.117240 -0.455743 -0.030522
v 0.089096 -0.301963 -0.058665
v 0.089096 -0.455743 -0.058665
v -0.021724 -0.143075 -0.090070
v -0.021724 -0.296855 -0.090070
v -0.060168 -0.143075 -0.079768
v -0.060169 -0.296855 -0.079768
v -0.088312 -0.143075 -0.051625
v -0.088312 -0.296855 -0.051625
v -0.098613 -0.143075 -0.013180
v -0.098613 -0.296855 -0.013180
v -0.088312 -0.143075 0.025265
v -0.088312 -0.296855 0.025265
v -0.060168 -0.143075 0.053409
v -0.060169 -0.296855 0.053409
v -0.021724 -0.143075 0.063710
v -0.021724 -0.296855 0.063710
v 0.016721 -0.143075 0.053409
v 0.016721 -0.296855 0.053409
v 0.044865 -0.143075 0.025265
v 0.044865 -0.296855 0.025265
v 0.055166 -0.143075 -0.013180
v 0.055166 -0.296855 -0.013180
v 0.044865 -0.143075 -0.051625
v 0.044865 -0.296855 -0.051625
v 0.016721 -0.143075 -0.079768
v 0.016721 -0.296855 -0.079768
vt 0.533549 0.714654
vt 0.532226 0.663606
vt 0.605977 0.658453
vt 0.605977 0.719896
vt 0.382831 0.834488
vt 0.382831 0.897888
vt 0.311344 0.890337
vt 0.311344 0.842039
vt 0.458969 0.712968
vt 0.458830 0.666172
vt 0.595824 0.786836
vt 0.528899 0.769768
vt 0.593886 0.588376
vt 0.524977 0.608860
vt 0.888995 0.836761
vt 0.888995 0.788464
vt 0.960482 0.780913
vt 0.960482 0.844312
vt 0.208582 0.658454
vt 0.208582 0.719896
vt 0.136154 0.714654
vt 0.134831 0.663606
vt 0.131504 0.769768
vt 0.059365 0.766807
vt 0.061574 0.712968
vt 0.196491 0.588376
vt 0.127582 0.608860
vt 0.198429 0.786837
vt 0.406483 0.713123
vt 0.406344 0.666328
vt 0.061436 0.666172
vt 0.009088 0.713123
vt 0.008950 0.666328
vt 0.456760 0.766807
vt 0.058108 0.614613
vt 0.455503 0.614613
vt 0.297646 0.881016
vt 0.297646 0.851360
vt 0.875297 0.827441
vt 0.875297 0.797784
vt 0.252461 0.851360
vt 0.252461 0.881016
vt 0.238762 0.890337
vt 0.238762 0.842039
vt 0.830112 0.797784
vt 0.830112 0.827441
vt 0.816413 0.836761
vt 0.816413 0.788464
vt 0.268419 0.816589
vt 0.268419 0.588376
vt 0.238762 0.588376
vt 0.238762 0.816589
vt 0.313604 0.816589
vt 0.313604 0.588376
vt 0.388445 0.588376
vt 0.343260 0.588376
vt 0.343260 0.816589
vt 0.388445 0.816589
vt 0.605042 0.476889
vt 0.785839 0.476889
vt 0.785839 0.523683
vt 0.605042 0.523683
vt 0.785839 0.570476
vt 0.605042 0.570477
vt 0.605042 0.008950
vt 0.785839 0.008950
vt 0.785839 0.055744
vt 0.605042 0.055744
vt 0.785839 0.102538
vt 0.605042 0.102538
vt 0.785839 0.149331
vt 0.605042 0.149331
vt 0.785839 0.196125
vt 0.605042 0.196125
vt 0.785839 0.242919
vt 0.605042 0.242919
vt 0.785839 0.289713
vt 0.605042 0.289713
vt 0.785839 0.336507
vt 0.605042 0.336507
vt 0.785839 0.383301
vt 0.605042 0.383301
vt 0.798514 0.891628
vt 0.775117 0.932153
vt 0.734592 0.955550
vt 0.687798 0.955550
vt 0.647273 0.932153
vt 0.623876 0.891628
vt 0.623876 0.844835
vt 0.647273 0.804310
vt 0.687798 0.780913
vt 0.734592 0.780913
vt 0.775117 0.804310
vt 0.798514 0.844834
vt 0.785839 0.430095
vt 0.605042 0.430095
vt 0.827136 0.224883
vt 0.867661 0.201486
vt 0.914455 0.201486
vt 0.954979 0.224883
vt 0.978376 0.265408
vt 0.978376 0.312202
vt 0.954979 0.352727
vt 0.914454 0.376124
vt 0.867661 0.376124
vt 0.827136 0.352727
vt 0.803739 0.312202
vt 0.803739 0.265408
vt 0.406344 0.476889
vt 0.587142 0.476889
vt 0.587142 0.523683
vt 0.406344 0.523682
vt 0.587142 0.570476
vt 0.406344 0.570476
vt 0.406344 0.008950
vt 0.587142 0.008950
vt 0.587142 0.055744
vt 0.406344 0.055744
vt 0.587142 0.102538
vt 0.406344 0.102538
vt 0.587142 0.149331
vt 0.406344 0.149331
vt 0.587142 0.196125
vt 0.406344 0.196125
vt 0.587142 0.242919
vt 0.406344 0.242919
vt 0.587142 0.289713
vt 0.406344 0.289713
vt 0.587142 0.336507
vt 0.406344 0.336507
vt 0.587142 0.383301
vt 0.406344 0.383301
vt 0.687798 0.588376
vt 0.734592 0.588376
vt 0.775117 0.611773
vt 0.798514 0.652298
vt 0.798514 0.699092
vt 0.775117 0.739616
vt 0.734592 0.763013
vt 0.687798 0.763013
vt 0.647273 0.739616
vt 0.623876 0.699091
vt 0.623877 0.652298
vt 0.647273 0.611773
vt 0.587142 0.430095
vt 0.406344 0.430095
vt 0.827136 0.160190
vt 0.803739 0.119665
vt 0.803739 0.072872
vt 0.827136 0.032347
vt 0.867661 0.008950
vt 0.914454 0.008950
vt 0.954979 0.032347
vt 0.978376 0.072871
vt 0.978376 0.119665
vt 0.954979 0.160190
vt 0.914455 0.183587
vt 0.867661 0.183587
vt 0.207647 0.476889
vt 0.388445 0.476889
vt 0.388445 0.523683
vt 0.207647 0.523682
vt 0.388445 0.570477
vt 0.207647 0.570476
vt 0.207647 0.008950
vt 0.388445 0.008950
vt 0.388445 0.055744
vt 0.207647 0.055744
vt 0.388445 0.102538
vt 0.207647 0.102538
vt 0.388445 0.149331
vt 0.207647 0.149332
vt 0.388445 0.196125
vt 0.207647 0.196125
vt 0.388445 0.242919
vt 0.207647 0.242919
vt 0.388445 0.289713
vt 0.207647 0.289713
vt 0.388445 0.336507
vt 0.207647 0.336507
vt 0.388445 0.383301
vt 0.207647 0.383301
vt 0.880335 0.763013
vt 0.839810 0.739616
vt 0.816413 0.699092
vt 0.816413 0.652298
vt 0.839810 0.611773
vt 0.880335 0.588376
vt 0.927129 0.588376
vt 0.967653 0.611773
vt 0.991050 0.652298
vt 0.991050 0.699091
vt 0.967653 0.739616
vt 0.927129 0.763013
vt 0.388445 0.430095
vt 0.207647 0.430095
vt 0.119665 0.979373
vt 0.072871 0.979373
vt 0.032347 0.955976
vt 0.008950 0.915452
vt 0.008950 0.868658
vt 0.032347 0.828133
vt 0.072871 0.804736
vt 0.119665 0.804736
vt 0.160190 0.828133
vt 0.183587 0.868658
vt 0.183587 0.915452
vt 0.160190 0.955976
vt 0.189747 0.102538
vt 0.008950 0.102538
vt 0.008950 0.055744
vt 0.189748 0.055744
vt 0.008950 0.008950
vt 0.189748 0.008950
vt 0.189748 0.570476
vt 0.008950 0.570477
vt 0.008950 0.523683
vt 0.189747 0.523683
vt 0.008950 0.476889
vt 0.189747 0.476889
vt 0.008950 0.430095
vt 0.189747 0.430095
vt 0.008950 0.383301
vt 0.189747 0.383301
vt 0.008950 0.336507
vt 0.189747 0.336507
vt 0.008950 0.289713
vt 0.189747 0.289713
vt 0.008950 0.242919
vt 0.189747 0.242919
vt 0.008950 0.196125
vt 0.189747 0.196125
vt 0.557585 0.955976
vt 0.517060 0.979373
vt 0.470266 0.979373
vt 0.429742 0.955976
vt 0.406344 0.915452
vt 0.406344 0.868658
vt 0.429741 0.828133
vt 0.470266 0.804736
vt 0.517060 0.804736
vt 0.557585 0.828133
vt 0.580982 0.868658
vt 0.580982 0.915451
vt 0.008950 0.149331
vt 0.189748 0.149332
vt 0.867661 0.394023
vt 0.914454 0.394023
vt 0.954979 0.417420
vt 0.978376 0.457945
vt 0.978376 0.504739
vt 0.954979 0.545263
vt 0.914455 0.568660
vt 0.867661 0.568660
vt 0.827136 0.545263
vt 0.803739 0.504739
vt 0.803739 0.457945
vt 0.827136 0.417420
vn -0.9930 0.0000 0.1185
vn 0.9930 0.0000 0.1185
vn -1.0000 0.0000 0.0000
vn 0.0000 -0.9944 0.1058
vn 0.0000 0.9944 0.1058
vn 0.0000 1.0000 0.0000
vn 0.0000 0.0000 1.0000
vn 1.0000 0.0000 0.0000
vn 0.0000 -1.0000 0.0000
vn 0.0000 0.0000 -1.0000
vn 0.0000 -0.2588 -0.9659
vn 0.0000 -0.7071 -0.7071
vn 0.0000 -0.9659 -0.2588
vn 0.0000 -0.9659 0.2588
vn 0.0000 -0.7071 0.7071
vn 0.0000 -0.2588 0.9659
vn 0.0000 0.2588 0.9659
vn -0.0000 0.7071 0.7071
vn -0.0000 0.9659 0.2588
vn -0.0000 0.9659 -0.2588
vn -0.0000 0.7071 -0.7071
vn 0.0000 0.2588 -0.9659
vn -0.2588 0.0000 -0.9659
vn -0.7071 0.0000 -0.7071
vn -0.9659 0.0000 -0.2588
vn -0.9659 0.0000 0.2588
vn -0.7071 0.0000 0.7071
vn -0.2588 0.0000 0.9659
vn 0.2588 -0.0000 0.9659
vn 0.7071 -0.0000 0.7071
vn 0.9659 0.0000 0.2588
vn 0.9659 0.0000 -0.2588
vn 0.7071 -0.0000 -0.7071
vn 0.2588 -0.0000 -0.9659
usemtl None
s off
f 1/1/1 2/2/1 4/3/1 3/4/1
f 5/5/2 6/6/2 20/7/2 21/8/2
f 2/2/3 1/1/3 13/9/3 14/10/3
f 3/4/4 5/11/4 21/12/4 1/1/4
f 6/13/5 4/3/5 2/2/5 20/14/5
f 22/15/1 23/16/1 8/17/1 7/18/1
f 11/19/2 12/20/2 10/21/2 9/22/2
f 10/21/6 23/23/6 27/24/6 18/25/6
f 7/26/4 11/19/4 9/22/4 22/27/4
f 12/20/5 8/28/5 23/23/5 10/21/5
f 25/29/7 24/30/7 14/10/7 13/9/7
f 19/31/7 18/25/7 27/32/7 26/33/7
f 9/22/8 10/21/8 18/25/8 19/31/8
f 1/1/9 21/12/9 25/34/9 13/9/9
f 22/27/9 9/22/9 19/31/9 26/35/9
f 20/14/6 2/2/6 14/10/6 24/36/6
f 28/37/8 29/38/8 21/8/8 20/7/8
f 30/39/3 31/40/3 23/16/3 22/15/3
f 16/41/8 15/42/8 24/43/8 25/44/8
f 32/45/3 17/46/3 26/47/3 27/48/3
f 31/40/3 32/45/3 27/48/3 23/16/3
f 29/38/8 16/41/8 25/44/8 21/8/8
f 17/46/3 30/39/3 22/15/3 26/47/3
f 15/42/8 28/37/8 20/7/8 24/43/8
f 28/49/10 31/50/10 30/51/10 29/52/10
f 28/49/6 15/53/6 32/54/6 31/50/6
f 30/55/9 17/56/9 16/57/9 29/58/9
f 16/57/7 17/56/7 32/54/7 15/53/7
f 33/59/11 34/60/11 36/61/11 35/62/11
f 35/62/12 36/61/12 38/63/12 37/64/12
f 37/65/13 38/66/13 40/67/13 39/68/13
f 39/68/14 40/67/14 42/69/14 41/70/14
f 41/70/15 42/69/15 44/71/15 43/72/15
f 43/72/16 44/71/16 46/73/16 45/74/16
f 45/74/17 46/73/17 48/75/17 47/76/17
f 47/76/18 48/75/18 50/77/18 49/78/18
f 49/78/19 50/77/19 52/79/19 51/80/19
f 51/80/20 52/79/20 54/81/20 53/82/20
f 36/83/8 34/84/8 56/85/8 54/86/8 52/87/8 50/88/8 48/89/8 46/90/8 44/91/8 42/92/8 40/93/8 38/94/8
f 53/82/21 54/81/21 56/95/21 55/96/21
f 55/96/22 56/95/22 34/60/22 33/59/22
f 33/97/3 35/98/3 37/99/3 39/100/3 41/101/3 43/102/3 45/103/3 47/104/3 49/105/3 51/106/3 53/107/3 55/108/3
f 57/109/23 58/110/23 60/111/23 59/112/23
f 59/112/24 60/111/24 62/113/24 61/114/24
f 61/115/25 62/116/25 64/117/25 63/118/25
f 63/118/26 64/117/26 66/119/26 65/120/26
f 65/120/27 66/119/27 68/121/27 67/122/27
f 67/122/28 68/121/28 70/123/28 69/124/28
f 69/124/29 70/123/29 72/125/29 71/126/29
f 71/126/30 72/125/30 74/127/30 73/128/30
f 73/128/31 74/127/31 76/129/31 75/130/31
f 75/130/32 76/129/32 78/131/32 77/132/32
f 60/133/9 58/134/9 80/135/9 78/136/9 76/137/9 74/138/9 72/139/9 70/140/9 68/141/9 66/142/9 64/143/9 62/144/9
f 77/132/33 78/131/33 80/145/33 79/146/33
f 79/146/34 80/145/34 58/110/34 57/109/34
f 57/147/6 59/148/6 61/149/6 63/150/6 65/151/6 67/152/6 69/153/6 71/154/6 73/155/6 75/156/6 77/157/6 79/158/6
f 81/159/23 82/160/23 84/161/23 83/162/23
f 83/162/24 84/161/24 86/163/24 85/164/24
f 85/165/25 86/166/25 88/167/25 87/168/25
f 87/168/26 88/167/26 90/169/26 89/170/26
f 89/170/27 90/169/27 92/171/27 91/172/27
f 91/172/28 92/171/28 94/173/28 93/174/28
f 93/174/29 94/173/29 96/175/29 95/176/29
f 95/176/30 96/175/30 98/177/30 97/178/30
f 97/178/31 98/177/31 100/179/31 99/180/31
f 99/180/32 100/179/32 102/181/32 101/182/32
f 84/183/9 82/184/9 104/185/9 102/186/9 100/187/9 98/188/9 96/189/9 94/190/9 92/191/9 90/192/9 88/193/9 86/194/9
f 101/182/33 102/181/33 104/195/33 103/196/33
f 103/196/34 104/195/34 82/160/34 81/159/34
f 81/197/6 83/198/6 85/199/6 87/200/6 89/201/6 91/202/6 93/203/6 95/204/6 97/205/6 99/206/6 101/207/6 103/208/6
f 105/209/23 106/210/23 108/211/23 107/212/23
f 107/212/24 108/211/24 110/213/24 109/214/24
f 109/215/25 110/216/25 112/217/25 111/218/25
f 111/218/26 112/217/26 114/219/26 113/220/26
f 113/220/27 114/219/27 116/221/27 115/222/27
f 115/222/28 116/221/28 118/223/28 117/224/28
f 117/224/29 118/223/29 120/225/29 119/226/29
f 119/226/30 120/225/30 122/227/30 121/228/30
f 121/228/31 122/227/31 124/229/31 123/230/31
f 123/230/32 124/229/32 126/231/32 125/232/32
f 108/233/9 106/234/9 128/235/9 126/236/9 124/237/9 122/238/9 120/239/9 118/240/9 116/241/9 114/242/9 112/243/9 110/244/9
f 125/232/33 126/231/33 128/245/33 127/246/33
f 127/246/34 128/245/34 106/210/34 105/209/34
f 105/247/6 107/248/6 109/249/6 111/250/6 113/251/6 115/252/6 117/253/6 119/254/6 121/255/6 123/256/6 125/257/6 127/258/6
