# Blender v3.1.2 OBJ File: 'puzzle g.blend'
# www.blender.org
mtllib SdB_PorteServiette.mtl
o SdB_PorteServiette_Cube.026
v -0.273242 0.224409 0.210979
v -0.239673 0.581056 0.188629
v -0.273242 0.224409 -0.188382
v -0.239673 0.581056 -0.166032
v 0.326580 0.224409 0.210979
v 0.293011 0.581056 0.188629
v 0.326580 0.224409 -0.188382
v 0.293011 0.581056 -0.166032
v -0.273242 0.581056 0.210979
v -0.273242 0.581056 -0.188382
v 0.326580 0.581056 -0.188382
v 0.326580 0.581056 0.210979
v -0.239673 0.468106 0.188629
v -0.239673 0.468106 -0.166032
v 0.293011 0.468106 -0.166032
v 0.293011 0.468106 0.188629
v -0.276997 1.543603 -0.012800
v 0.339479 1.543603 -0.012800
v -0.276997 1.534136 -0.010264
v 0.339479 1.534136 -0.010264
v -0.276997 1.527206 -0.003333
v 0.339479 1.527206 -0.003333
v -0.276997 1.524669 0.006134
v 0.339479 1.524669 0.006134
v -0.276997 1.527206 0.015601
v 0.339479 1.527206 0.015601
v -0.276997 1.534136 0.022532
v 0.339479 1.534136 0.022532
v -0.276997 1.543603 0.025068
v 0.339479 1.543603 0.025068
v -0.276997 1.553070 0.022532
v 0.339479 1.553070 0.022532
v -0.276997 1.560001 0.015601
v 0.339479 1.560001 0.015601
v -0.276997 1.562538 0.006134
v 0.339479 1.562538 0.006134
v -0.276997 1.560001 -0.003333
v 0.339479 1.560001 -0.003333
v -0.276997 1.553070 -0.010264
v 0.339479 1.553070 -0.010264
v 0.031241 1.519795 -0.012800
v 0.031241 1.510328 -0.010264
v 0.031241 1.503398 -0.003333
v 0.031241 1.500861 0.006134
v 0.031241 1.503398 0.015601
v 0.031241 1.510328 0.022532
v 0.031241 1.519795 0.025068
v 0.031241 1.529263 0.022532
v 0.031241 1.536193 0.015601
v 0.031241 1.538730 0.006134
v 0.031241 1.536193 -0.003333
v 0.031241 1.529263 -0.010264
v 0.377649 -0.017804 0.223347
v 0.295139 1.581780 0.060858
v 0.377649 -0.024221 0.156244
v 0.295139 1.577038 0.011262
v 0.445059 -0.017804 0.223347
v 0.344961 1.581780 0.060858
v 0.445059 -0.024221 0.156244
v 0.344961 1.577038 0.011262
v 0.295139 1.527079 0.066088
v 0.295139 1.522337 0.016493
v 0.344961 1.522337 0.016493
v 0.344961 1.527079 0.066088
v 0.295139 1.577038 -0.000492
v 0.344961 1.577038 -0.000492
v 0.295139 1.522337 -0.002642
v 0.344961 1.522337 -0.002642
v 0.295139 1.581349 -0.047193
v 0.344961 1.581349 -0.047193
v 0.295139 1.526043 -0.052861
v 0.344961 1.526043 -0.052861
v 0.377649 -0.108085 -0.136084
v 0.445059 -0.108085 -0.136084
v 0.377649 -0.103070 -0.204030
v 0.445059 -0.103070 -0.204030
v 0.376665 0.706895 -0.105502
v 0.309255 0.706895 -0.105502
v 0.309255 0.701880 -0.052828
v 0.376665 0.701880 -0.052828
v 0.309255 0.705522 0.073151
v 0.376665 0.705522 0.073151
v 0.376665 0.711939 0.125171
v 0.309255 0.711939 0.125171
v -0.323061 -0.017804 -0.206975
v -0.240551 1.581780 -0.044485
v -0.323061 -0.024221 -0.139871
v -0.240551 1.577038 0.005111
v -0.390470 -0.017804 -0.206974
v -0.290373 1.581780 -0.044485
v -0.390470 -0.024221 -0.139871
v -0.290373 1.577038 0.005111
v -0.240551 1.527079 -0.049716
v -0.240551 1.522336 -0.000120
v -0.290373 1.522336 -0.000120
v -0.290373 1.527079 -0.049716
v -0.240551 1.577038 0.016865
v -0.290373 1.577038 0.016865
v -0.240551 1.522336 0.019015
v -0.290373 1.522336 0.019015
v -0.240551 1.581349 0.063566
v -0.290373 1.581349 0.063566
v -0.240551 1.526043 0.069233
v -0.290373 1.526043 0.069233
v -0.323061 -0.108085 0.152457
v -0.390470 -0.108085 0.152457
v -0.323061 -0.103070 0.220403
v -0.390470 -0.103070 0.220403
v -0.322076 0.706895 0.121875
v -0.254667 0.706895 0.121875
v -0.254667 0.701880 0.069201
v -0.322076 0.701880 0.069201
v -0.254667 0.705522 -0.056778
v -0.322076 0.705522 -0.056778
v -0.322076 0.711939 -0.108799
v -0.254667 0.711939 -0.108799
v -0.250722 0.742875 0.195985
v -0.219674 1.072742 0.175313
v -0.250722 0.742875 -0.173388
v -0.219674 1.072742 -0.152716
v 0.304060 0.742875 0.195985
v 0.273012 1.072742 0.175313
v 0.304060 0.742875 -0.173388
v 0.273012 1.072742 -0.152716
v -0.250722 1.072742 0.195985
v -0.250722 1.072742 -0.173388
v 0.304060 1.072742 -0.173388
v 0.304060 1.072742 0.195985
v -0.219674 0.968273 0.175313
v -0.219674 0.968273 -0.152716
v 0.273012 0.968273 -0.152716
v 0.273012 0.968273 0.175313
vt 0.608444 0.993901
vt 0.608444 0.839096
vt 0.781790 0.839096
vt 0.781790 0.993901
vt 0.335104 0.215163
vt 0.335104 0.024294
vt 0.656115 0.024294
vt 0.656115 0.215163
vt 0.607476 0.816764
vt 0.607476 0.658126
vt 0.785114 0.658126
vt 0.785114 0.816764
vt 0.656115 0.428892
vt 0.656115 0.619761
vt 0.335104 0.619761
vt 0.335104 0.428892
vt 0.955098 0.699063
vt 0.826180 0.696373
vt 0.848762 0.670929
vt 0.923697 0.677174
vt 0.618145 0.824525
vt 0.772089 0.824525
vt 0.353071 0.012332
vt 0.638150 0.012332
vt 0.617418 0.643194
vt 0.775172 0.643194
vt 0.638149 0.631723
vt 0.353070 0.631722
vt 0.900119 0.991063
vt 0.900119 0.835633
vt 1.003604 0.835633
vt 1.003604 0.991063
vt 0.817217 0.594640
vt 0.946135 0.597331
vt 0.923554 0.622774
vt 0.848619 0.616530
vt 0.380332 0.813793
vt 0.379682 0.653981
vt 0.384717 0.654336
vt 0.385399 0.813783
vt 0.389788 0.654591
vt 0.390452 0.813773
vt 0.394886 0.654672
vt 0.395499 0.813763
vt 0.334514 0.813881
vt 0.334516 0.654788
vt 0.339614 0.654687
vt 0.339561 0.813871
vt 0.344684 0.654412
vt 0.344615 0.813862
vt 0.349717 0.654038
vt 0.349681 0.813852
vt 0.354722 0.653665
vt 0.354770 0.813842
vt 0.359711 0.653388
vt 0.359881 0.813832
vt 0.364698 0.653281
vt 0.365007 0.813822
vt 0.369686 0.653369
vt 0.370133 0.813812
vt 0.374676 0.653626
vt 0.375244 0.813802
vt 0.375293 0.973975
vt 0.380297 0.973601
vt 0.370304 0.974251
vt 0.365316 0.974358
vt 0.360327 0.974270
vt 0.355337 0.974013
vt 0.350331 0.973659
vt 0.345296 0.973304
vt 0.340225 0.973049
vt 0.335126 0.972968
vt 0.390401 0.972952
vt 0.395499 0.972852
vt 0.385331 0.973227
vt 0.128329 0.470596
vt 0.134614 0.481685
vt 0.131205 0.493793
vt 0.118083 0.482493
vt 0.278739 0.509857
vt 0.263597 0.509857
vt 0.263597 0.504041
vt 0.278739 0.504041
vt 0.153665 0.477654
vt 0.145998 0.489204
vt 0.139536 0.481005
vt 0.143193 0.470702
vt 0.154415 0.226864
vt 0.134293 0.227138
vt 0.170057 0.227353
vt 0.157775 0.471047
vt 0.267887 0.758706
vt 0.288375 0.758706
vt 0.113480 0.469890
vt 0.118710 0.226182
vt 0.147081 0.492694
vt 0.160127 0.503735
vt 0.149564 0.515378
vt 0.143538 0.504363
vt 0.132288 0.497283
vt 0.161758 0.482611
vt 0.163521 0.488293
vt 0.114482 0.497280
vt 0.116244 0.502961
vt 0.135046 0.515292
vt 0.138564 0.505026
vt 0.137742 0.754320
vt 0.157404 0.754789
vt 0.167115 0.993308
vt 0.147817 0.992493
vt 0.124500 0.508487
vt 0.288375 0.254213
vt 0.267887 0.254213
vt 0.288674 0.006742
vt 0.309162 0.006741
vt 0.172833 0.754262
vt 0.186562 0.991607
vt 0.122341 0.754768
vt 0.127970 0.992394
vt 0.120375 0.515597
vt 0.163996 0.515035
vt 0.147242 0.007379
vt 0.127158 0.006966
vt 0.288674 0.981931
vt 0.309162 0.981931
vt 0.186562 0.008547
vt 0.166940 0.006692
vt 0.021754 0.477953
vt 0.027035 0.490089
vt 0.025257 0.502381
vt 0.008416 0.490967
vt 0.219234 0.509855
vt 0.204091 0.509855
vt 0.204091 0.504039
vt 0.219234 0.504039
vt 0.047338 0.485708
vt 0.039583 0.497267
vt 0.032902 0.489213
vt 0.036857 0.478677
vt 0.058372 0.231316
vt 0.037910 0.230760
vt 0.074249 0.232461
vt 0.051663 0.479633
vt 0.208381 0.758704
vt 0.228869 0.758704
vt 0.006692 0.476620
vt 0.022111 0.229142
vt 0.040790 0.500647
vt 0.054046 0.510944
vt 0.044161 0.522805
vt 0.037795 0.512244
vt 0.026463 0.505761
vt 0.054776 0.490149
vt 0.056740 0.495651
vt 0.008990 0.506491
vt 0.010954 0.511993
vt 0.029911 0.523318
vt 0.032941 0.513099
vt 0.042411 0.757756
vt 0.061723 0.757406
vt 0.081084 0.991055
vt 0.062114 0.991050
vt 0.019283 0.517076
vt 0.228869 0.254211
vt 0.208381 0.254211
vt 0.229168 0.006742
vt 0.249656 0.006741
vt 0.076841 0.756254
vt 0.100096 0.988585
vt 0.027316 0.758831
vt 0.042636 0.991772
vt 0.015528 0.524223
vt 0.058308 0.521873
vt 0.060181 0.007944
vt 0.039785 0.006692
vt 0.229168 0.981929
vt 0.249656 0.981929
vt 0.100096 0.010761
vt 0.080230 0.008062
vt 0.418321 0.996709
vt 0.418321 0.844313
vt 0.588969 0.844313
vt 0.588969 0.996709
vt 0.680663 0.199933
vt 0.680663 0.023395
vt 0.977569 0.023395
vt 0.977569 0.199933
vt 0.412877 0.820021
vt 0.412877 0.657291
vt 0.595096 0.657291
vt 0.595096 0.820021
vt 0.977569 0.397612
vt 0.977569 0.574150
vt 0.680663 0.574150
vt 0.680663 0.397612
vt 0.822851 0.717826
vt 0.959406 0.714278
vt 0.936773 0.742323
vt 0.857166 0.739432
vt 0.427871 0.829969
vt 0.579419 0.829969
vt 0.697280 0.012332
vt 0.960953 0.012332
vt 0.423075 0.641974
vt 0.584898 0.641974
vt 0.960952 0.585213
vt 0.697280 0.585213
vt 0.794151 0.989248
vt 0.794151 0.845489
vt 0.889866 0.845489
vt 0.889866 0.989248
vt 0.973937 0.821488
vt 0.837381 0.825036
vt 0.860015 0.796991
vt 0.939622 0.799882
vt 0.901323 0.662628
vt 0.867115 0.662627
vt 0.867115 0.628420
vt 0.901323 0.628420
vt 0.699289 0.596004
vt 0.699289 0.630211
vt 0.664716 0.630211
vt 0.664716 0.596004
vt 0.748572 0.632849
vt 0.748572 0.598642
vt 0.782779 0.598642
vt 0.782779 0.632849
vt 0.741561 0.631192
vt 0.707354 0.631192
vt 0.707354 0.596619
vt 0.741561 0.596619
vn -1.0000 0.0000 0.0000
vn 0.0000 0.0000 -1.0000
vn 1.0000 0.0000 0.0000
vn 0.0000 0.0000 1.0000
vn 0.0000 -1.0000 0.0000
vn 0.0000 1.0000 0.0000
vn 0.0200 -0.2588 -0.9657
vn 0.0545 -0.7061 -0.7061
vn 0.0744 -0.9632 -0.2581
vn 0.0744 -0.9632 0.2581
vn 0.0545 -0.7061 0.7061
vn 0.0200 -0.2588 0.9657
vn -0.0200 0.2588 0.9657
vn -0.0545 0.7060 0.7061
vn -0.0744 0.9633 0.2581
vn -0.0744 0.9633 -0.2581
vn -0.0545 0.7060 -0.7061
vn -0.0200 0.2588 -0.9657
vn 0.0200 0.2588 -0.9657
vn 0.0545 0.7061 -0.7061
vn 0.0744 0.9632 -0.2581
vn 0.0744 0.9632 0.2581
vn 0.0545 0.7061 0.7061
vn 0.0200 0.2588 0.9657
vn -0.0200 -0.2588 0.9657
vn -0.0545 -0.7060 0.7061
vn -0.0744 -0.9633 0.2581
vn -0.0744 -0.9633 -0.2581
vn -0.0545 -0.7060 -0.7061
vn -0.0200 -0.2588 -0.9657
vn 0.0000 0.0952 0.9955
vn 0.0000 0.9955 -0.0952
vn 0.0000 0.0723 0.9974
vn 0.9992 0.0385 -0.0042
vn 0.0000 -0.0692 -0.9976
vn -0.9999 -0.0172 0.0019
vn 0.0000 0.1019 -0.9948
vn 0.0000 0.9958 0.0919
vn 0.0000 0.1208 -0.9927
vn 0.0000 -0.1023 0.9948
vn 0.9965 0.0834 0.0069
vn -0.9965 -0.0834 -0.0069
vn -0.9999 -0.0171 -0.0015
vn 0.9993 0.0384 0.0033
vn 0.0000 -0.0611 0.9981
vn 0.0000 0.0641 -0.9979
vn -0.9957 -0.0921 0.0099
vn 0.0000 -0.1131 -0.9936
vn 0.9957 0.0921 -0.0099
vn 0.0000 0.1333 0.9911
vn -0.0000 0.0952 -0.9955
vn 0.0000 0.9955 0.0952
vn -0.0000 0.0723 -0.9974
vn -0.9992 0.0385 0.0042
vn 0.0000 -0.0692 0.9976
vn 0.9999 -0.0172 -0.0019
vn 0.0000 0.1019 0.9948
vn -0.0000 0.9958 -0.0919
vn 0.0000 0.1208 0.9927
vn -0.0000 -0.1023 -0.9948
vn -0.9965 0.0834 -0.0069
vn 0.9965 -0.0834 0.0069
vn 0.9999 -0.0171 0.0015
vn -0.9993 0.0384 -0.0033
vn -0.0000 -0.0611 -0.9981
vn 0.0000 0.0641 0.9979
vn 0.9957 -0.0921 -0.0099
vn 0.0000 -0.1131 0.9936
vn -0.9957 0.0921 0.0099
vn -0.0000 0.1333 -0.9911
vn 0.0000 -0.9955 0.0952
vn 0.0000 -0.9973 -0.0736
vn -0.0000 -0.9955 -0.0952
vn 0.0000 -0.9973 0.0736
usemtl None
s off
f 1/1/1 9/2/1 10/3/1 3/4/1
f 3/5/2 10/6/2 11/7/2 7/8/2
f 7/9/3 11/10/3 12/11/3 5/12/3
f 5/13/4 12/14/4 9/15/4 1/16/4
f 3/5/5 7/8/5 5/13/5 1/16/5
f 2/17/2 6/18/2 16/19/2 13/20/2
f 2/21/6 4/22/6 10/3/6 9/2/6
f 4/23/6 8/24/6 11/7/6 10/6/6
f 8/25/6 6/26/6 12/11/6 11/10/6
f 6/27/6 2/28/6 9/15/6 12/14/6
f 15/29/6 14/30/6 13/31/6 16/32/6
f 8/33/4 4/34/4 14/35/4 15/36/4
f 6/18/1 8/33/1 15/36/1 16/19/1
f 4/34/3 2/17/3 13/20/3 14/35/3
f 41/37/7 18/38/7 20/39/7 42/40/7
f 42/40/8 20/39/8 22/41/8 43/42/8
f 43/42/9 22/41/9 24/43/9 44/44/9
f 44/45/10 24/46/10 26/47/10 45/48/10
f 45/48/11 26/47/11 28/49/11 46/50/11
f 46/50/12 28/49/12 30/51/12 47/52/12
f 47/52/13 30/51/13 32/53/13 48/54/13
f 48/54/14 32/53/14 34/55/14 49/56/14
f 49/56/15 34/55/15 36/57/15 50/58/15
f 50/58/16 36/57/16 38/59/16 51/60/16
f 51/60/17 38/59/17 40/61/17 52/62/17
f 52/62/18 40/61/18 18/38/18 41/37/18
f 39/63/19 52/62/19 41/37/19 17/64/19
f 37/65/20 51/60/20 52/62/20 39/63/20
f 35/66/21 50/58/21 51/60/21 37/65/21
f 33/67/22 49/56/22 50/58/22 35/66/22
f 31/68/23 48/54/23 49/56/23 33/67/23
f 29/69/24 47/52/24 48/54/24 31/68/24
f 27/70/25 46/50/25 47/52/25 29/69/25
f 25/71/26 45/48/26 46/50/26 27/70/26
f 23/72/27 44/45/27 45/48/27 25/71/27
f 21/73/28 43/42/28 44/44/28 23/74/28
f 19/75/29 42/40/29 43/42/29 21/73/29
f 17/64/30 41/37/30 42/40/30 19/75/30
f 61/76/1 54/77/1 56/78/1 62/79/1
f 63/80/5 62/81/5 67/82/5 68/83/5
f 63/84/3 60/85/3 58/86/3 64/87/3
f 64/87/31 58/86/31 54/77/31 61/76/31
f 60/85/32 56/78/32 54/77/32 58/86/32
f 83/88/33 64/87/33 61/76/33 84/89/33
f 82/90/34 63/91/34 64/87/34 83/88/34
f 81/92/35 62/81/35 63/80/35 82/93/35
f 84/89/36 61/76/36 62/94/36 81/95/36
f 66/96/3 68/97/3 72/98/3 70/99/3
f 56/78/6 60/85/6 66/96/6 65/100/6
f 60/85/3 63/101/3 68/102/3 66/96/3
f 62/103/1 56/78/1 65/100/1 67/104/1
f 71/105/37 69/106/37 70/99/37 72/98/37
f 65/100/38 66/96/38 70/99/38 69/106/38
f 78/107/39 77/108/39 76/109/39 75/110/39
f 67/111/1 65/100/1 69/106/1 71/105/1
f 80/112/40 79/113/40 73/114/40 74/115/40
f 77/108/41 80/116/41 74/117/41 76/109/41
f 79/118/42 78/107/42 75/110/42 73/119/42
f 67/120/43 71/105/43 78/107/43 79/118/43
f 72/98/44 68/121/44 80/116/44 77/108/44
f 68/83/45 67/82/45 79/113/45 80/112/45
f 71/105/46 72/98/46 77/108/46 78/107/46
f 53/122/47 84/89/47 81/95/47 55/123/47
f 55/124/48 81/92/48 82/93/48 59/125/48
f 59/126/49 82/90/49 83/88/49 57/127/49
f 57/127/50 83/88/50 84/89/50 53/122/50
f 93/128/3 86/129/3 88/130/3 94/131/3
f 95/132/5 94/133/5 99/134/5 100/135/5
f 95/136/1 92/137/1 90/138/1 96/139/1
f 96/139/51 90/138/51 86/129/51 93/128/51
f 92/137/52 88/130/52 86/129/52 90/138/52
f 115/140/53 96/139/53 93/128/53 116/141/53
f 114/142/54 95/143/54 96/139/54 115/140/54
f 113/144/55 94/133/55 95/132/55 114/145/55
f 116/141/56 93/128/56 94/146/56 113/147/56
f 98/148/1 100/149/1 104/150/1 102/151/1
f 88/130/6 92/137/6 98/148/6 97/152/6
f 92/137/1 95/153/1 100/154/1 98/148/1
f 94/155/3 88/130/3 97/152/3 99/156/3
f 103/157/57 101/158/57 102/151/57 104/150/57
f 97/152/58 98/148/58 102/151/58 101/158/58
f 110/159/59 109/160/59 108/161/59 107/162/59
f 99/163/3 97/152/3 101/158/3 103/157/3
f 112/164/60 111/165/60 105/166/60 106/167/60
f 109/160/61 112/168/61 106/169/61 108/161/61
f 111/170/62 110/159/62 107/162/62 105/171/62
f 99/172/63 103/157/63 110/159/63 111/170/63
f 104/150/64 100/173/64 112/168/64 109/160/64
f 100/135/65 99/134/65 111/165/65 112/164/65
f 103/157/66 104/150/66 109/160/66 110/159/66
f 85/174/67 116/141/67 113/147/67 87/175/67
f 87/176/68 113/144/68 114/145/68 91/177/68
f 91/178/69 114/142/69 115/140/69 89/179/69
f 89/179/70 115/140/70 116/141/70 85/174/70
f 117/180/1 125/181/1 126/182/1 119/183/1
f 119/184/2 126/185/2 127/186/2 123/187/2
f 123/188/3 127/189/3 128/190/3 121/191/3
f 121/192/4 128/193/4 125/194/4 117/195/4
f 119/184/5 123/187/5 121/192/5 117/195/5
f 118/196/2 122/197/2 132/198/2 129/199/2
f 118/200/6 120/201/6 126/182/6 125/181/6
f 120/202/6 124/203/6 127/186/6 126/185/6
f 124/204/6 122/205/6 128/190/6 127/189/6
f 122/206/6 118/207/6 125/194/6 128/193/6
f 131/208/6 130/209/6 129/210/6 132/211/6
f 124/212/4 120/213/4 130/214/4 131/215/4
f 122/197/1 124/212/1 131/215/1 132/198/1
f 120/213/3 118/196/3 129/199/3 130/214/3
f 55/216/71 59/217/71 57/218/71 53/219/71
f 74/220/72 73/221/72 75/222/72 76/223/72
f 87/224/73 91/225/73 89/226/73 85/227/73
f 106/228/74 105/229/74 107/230/74 108/231/74
