# Blender v3.1.2 OBJ File: 'puzzle g.blend'
# www.blender.org
mtllib SdB_Rangement.mtl
o SdB_Rangement_Cube.001
v -0.114706 0.066726 0.006857
v -0.114706 0.092230 0.006857
v -0.114706 0.066726 -0.166794
v -0.114706 0.092230 -0.166794
v 0.341692 0.066726 0.006857
v 0.341692 0.092230 0.006857
v 0.341692 0.066726 -0.166794
v 0.341692 0.092230 -0.166794
v -0.099559 -0.261240 0.014436
v -0.099559 0.262771 0.014436
v -0.126105 -0.293886 -0.214325
v -0.126105 0.295417 -0.214325
v 0.326545 -0.261240 0.014436
v 0.326545 0.262771 0.014436
v 0.353091 -0.293886 -0.214325
v 0.353091 0.295417 -0.214325
v -0.126105 -0.293886 0.014436
v -0.126105 0.295417 0.014436
v 0.353091 0.295417 0.014436
v 0.353091 -0.293886 0.014436
v -0.099559 -0.261240 -0.159423
v -0.099559 0.262771 -0.159423
v 0.326545 0.262771 -0.159423
v 0.326545 -0.261240 -0.159423
v 0.309264 -0.294056 0.163896
v 0.309264 0.293887 0.163896
v 0.264914 -0.242466 0.173880
v 0.264914 0.242298 0.173880
v -0.103942 -0.294056 0.017442
v -0.103942 0.293887 0.017442
v -0.075779 -0.242466 0.053127
v -0.075779 0.242298 0.053127
v 0.301171 0.293887 0.186731
v 0.301171 -0.294056 0.186731
v -0.112036 -0.294056 0.040277
v -0.112036 0.293887 0.040277
v 0.268920 0.242298 0.162576
v 0.268920 -0.242466 0.162576
v -0.071772 -0.242466 0.041823
v -0.071772 0.242298 0.041823
v -0.107983 0.143454 0.006649
v -0.107983 0.203310 0.006649
v -0.101392 0.143454 0.008387
v -0.101392 0.203310 0.008387
v -0.096623 0.143454 0.013345
v -0.096623 0.203310 0.013345
v -0.094955 0.143454 0.020196
v -0.094955 0.203310 0.020196
v -0.096834 0.143454 0.027103
v -0.096834 0.203310 0.027103
v -0.101756 0.143454 0.032215
v -0.101756 0.203310 0.032215
v -0.108403 0.143454 0.034164
v -0.108403 0.203310 0.034164
v -0.114994 0.143454 0.032426
v -0.114994 0.203310 0.032426
v -0.119763 0.143454 0.027467
v -0.119763 0.203310 0.027467
v -0.121431 0.143454 0.020617
v -0.121431 0.203310 0.020617
v -0.119552 0.143454 0.013710
v -0.119552 0.203310 0.013710
v -0.114630 0.143454 0.008597
v -0.114630 0.203310 0.008597
v -0.107983 -0.195652 0.006649
v -0.107983 -0.135796 0.006649
v -0.101392 -0.195652 0.008387
v -0.101392 -0.135796 0.008387
v -0.096623 -0.195652 0.013345
v -0.096623 -0.135796 0.013345
v -0.094955 -0.195652 0.020196
v -0.094955 -0.135796 0.020196
v -0.096834 -0.195652 0.027103
v -0.096834 -0.135796 0.027103
v -0.101756 -0.195652 0.032215
v -0.101756 -0.135796 0.032215
v -0.108403 -0.195652 0.034164
v -0.108403 -0.135796 0.034164
v -0.114994 -0.195652 0.032426
v -0.114994 -0.135796 0.032426
v -0.119763 -0.195652 0.027467
v -0.119763 -0.135796 0.027467
v -0.121431 -0.195652 0.020617
v -0.121431 -0.135796 0.020617
v -0.119552 -0.195652 0.013710
v -0.119552 -0.135796 0.013710
v -0.114630 -0.195652 0.008597
v -0.114630 -0.135796 0.008597
v -0.114706 -0.116566 0.006857
v -0.114706 -0.091062 0.006857
v -0.114706 -0.116566 -0.166794
v -0.114706 -0.091062 -0.166794
v 0.341692 -0.116566 0.006857
v 0.341692 -0.091062 0.006857
v 0.341692 -0.116566 -0.166794
v 0.341692 -0.091062 -0.166794
vt 0.987264 0.598453
vt 0.987264 0.795296
vt 0.790421 0.795296
vt 0.790421 0.598453
vt 0.790421 0.401610
vt 0.987264 0.401610
vt 0.987264 0.992140
vt 0.790421 0.992140
vt 0.573511 0.838905
vt 0.573513 0.576889
vt 0.752886 0.576889
vt 0.752887 0.838905
vt 0.752887 0.160349
vt 0.752886 0.414641
vt 0.573513 0.414641
vt 0.573511 0.160349
vt 0.271895 0.736340
vt 0.271895 0.972996
vt 0.018110 0.972996
vt 0.018110 0.736341
vt 0.752887 0.990854
vt 0.573511 0.990854
vt 0.272397 0.972798
vt 0.272997 0.736402
vt 0.307854 0.723366
vt 0.308750 0.988324
vt 0.272285 0.972887
vt 0.272925 0.738417
vt 0.306651 0.722177
vt 0.308074 0.987354
vt 0.271819 0.974080
vt 0.273514 0.736933
vt 0.306697 0.723280
vt 0.308391 0.987168
vt 0.307675 0.721597
vt 0.307675 0.987740
vt 0.991815 0.026216
vt 0.566578 0.026216
vt 0.566578 0.006893
vt 0.991815 0.006894
vt 0.020567 0.971606
vt 0.020351 0.736736
vt 0.016868 0.972385
vt 0.019691 0.736368
vt 0.019614 0.971906
vt 0.018772 0.736041
vt 0.491576 0.143404
vt 0.492255 0.697578
vt 0.501102 0.697386
vt 0.500460 0.142322
vt 0.874211 0.166684
vt 0.877481 0.335473
vt 0.866461 0.335513
vt 0.863191 0.166724
vt 0.492464 0.144008
vt 0.492997 0.698182
vt 0.501937 0.699143
vt 0.501360 0.144223
vt 0.890023 0.087937
vt 0.890023 0.353411
vt 0.705970 0.126075
vt 0.705970 0.051916
vt 0.853007 0.044024
vt 0.853007 0.133967
vt 0.661668 0.050517
vt 0.661668 0.124676
vt 0.514631 0.132569
vt 0.514631 0.042625
vt 0.954775 0.339706
vt 0.951506 0.170918
vt 0.967318 0.092170
vt 0.967318 0.357645
vt 0.008221 0.697319
vt 0.008223 0.008932
vt 0.469552 0.008932
vt 0.469551 0.697319
vt 0.943755 0.339746
vt 0.940486 0.170958
vt 0.702072 0.123316
vt 0.702072 0.049157
vt 0.665565 0.047759
vt 0.665565 0.121918
vt 0.547610 0.845528
vt 0.547610 0.953153
vt 0.529672 0.953153
vt 0.529672 0.845528
vt 0.511735 0.953153
vt 0.511735 0.845528
vt 0.493797 0.953153
vt 0.493797 0.845528
vt 0.475860 0.953153
vt 0.475860 0.845528
vt 0.457922 0.953153
vt 0.457922 0.845528
vt 0.439985 0.953153
vt 0.439985 0.845528
vt 0.422047 0.953153
vt 0.422047 0.845528
vt 0.404109 0.953153
vt 0.404109 0.845528
vt 0.386172 0.953153
vt 0.386172 0.845528
vt 0.368234 0.953153
vt 0.368234 0.845528
vt 0.412002 0.836454
vt 0.386172 0.843375
vt 0.360342 0.836454
vt 0.341433 0.817545
vt 0.334512 0.791715
vt 0.341433 0.765885
vt 0.360342 0.746976
vt 0.386172 0.740055
vt 0.412002 0.746976
vt 0.430911 0.765885
vt 0.437832 0.791715
vt 0.430911 0.817545
vt 0.350297 0.953153
vt 0.350297 0.845528
vt 0.332359 0.953153
vt 0.332359 0.845528
vt 0.493797 0.843375
vt 0.519627 0.836454
vt 0.538536 0.817545
vt 0.545457 0.791715
vt 0.538536 0.765885
vt 0.519627 0.746976
vt 0.493797 0.740055
vt 0.467967 0.746976
vt 0.449058 0.765885
vt 0.442137 0.791715
vt 0.449058 0.817545
vt 0.467967 0.836454
vt 0.547610 0.845528
vt 0.547610 0.953153
vt 0.529672 0.953153
vt 0.529672 0.845528
vt 0.511735 0.953153
vt 0.511735 0.845528
vt 0.493797 0.953153
vt 0.493797 0.845528
vt 0.475860 0.953153
vt 0.475860 0.845528
vt 0.457922 0.953153
vt 0.457922 0.845528
vt 0.439985 0.953153
vt 0.439985 0.845528
vt 0.422047 0.953153
vt 0.422047 0.845528
vt 0.404109 0.953153
vt 0.404109 0.845528
vt 0.386172 0.953153
vt 0.386172 0.845528
vt 0.368234 0.953153
vt 0.368234 0.845528
vt 0.412002 0.836454
vt 0.386172 0.843375
vt 0.360342 0.836454
vt 0.341433 0.817545
vt 0.334512 0.791715
vt 0.341433 0.765885
vt 0.360342 0.746976
vt 0.386172 0.740055
vt 0.412002 0.746976
vt 0.430911 0.765885
vt 0.437832 0.791715
vt 0.430911 0.817545
vt 0.350297 0.953153
vt 0.350297 0.845528
vt 0.332359 0.953153
vt 0.332359 0.845528
vt 0.493797 0.843375
vt 0.519627 0.836454
vt 0.538536 0.817545
vt 0.545457 0.791715
vt 0.538536 0.765885
vt 0.519627 0.746976
vt 0.493797 0.740055
vt 0.467967 0.746976
vt 0.449058 0.765885
vt 0.442137 0.791715
vt 0.449058 0.817545
vt 0.467967 0.836454
vt 0.790421 0.795296
vt 0.790421 0.598453
vt 0.987264 0.598453
vt 0.987264 0.795296
vt 0.987264 0.992140
vt 0.790421 0.992140
vt 0.790421 0.401610
vt 0.987264 0.401610
vn 0.0000 0.0000 1.0000
vn 0.0000 -1.0000 0.0000
vn 0.0000 1.0000 0.0000
vn -1.0000 0.0000 0.0000
vn 1.0000 0.0000 0.0000
vn 0.9425 0.0000 0.3341
vn -0.9425 0.0000 -0.3341
vn 0.3341 0.0000 -0.9425
vn -0.3341 0.0000 0.9425
vn 0.2550 0.0000 -0.9669
vn 0.7208 0.0000 -0.6932
vn 0.9716 0.0000 -0.2366
vn 0.9649 0.0000 0.2625
vn 0.7204 0.0000 0.6936
vn 0.2813 0.0000 0.9596
vn -0.2550 0.0000 0.9669
vn -0.7208 0.0000 0.6932
vn -0.9716 0.0000 0.2366
vn -0.9649 0.0000 -0.2625
vn -0.7204 0.0000 -0.6936
vn -0.2813 0.0000 -0.9596
usemtl (null)
s off
f 5/1/1 6/2/1 2/3/1 1/4/1
f 3/5/2 7/6/2 5/1/2 1/4/2
f 8/7/3 4/8/3 2/3/3 6/2/3
f 17/9/4 18/10/4 12/11/4 11/12/4
f 15/13/5 16/14/5 19/15/5 20/16/5
f 14/17/2 10/18/2 22/19/2 23/20/2
f 11/12/2 15/21/2 20/22/2 17/9/2
f 16/14/3 12/11/3 18/10/3 19/15/3
f 9/23/1 10/24/1 18/25/1 17/26/1
f 14/27/1 13/28/1 20/29/1 19/30/1
f 13/31/1 9/32/1 17/33/1 20/34/1
f 10/18/1 14/17/1 19/35/1 18/36/1
f 24/37/1 23/38/1 22/39/1 21/40/1
f 13/28/4 14/27/4 23/41/4 24/42/4
f 9/32/3 13/31/3 24/43/3 21/44/3
f 10/24/5 9/23/5 21/45/5 22/46/5
f 25/47/6 26/48/6 33/49/6 34/50/6
f 27/51/7 28/52/7 37/53/7 38/54/7
f 35/55/7 36/56/7 30/57/7 29/58/7
f 29/58/8 30/57/8 26/48/8 25/47/8
f 34/50/2 35/55/2 29/58/2 25/47/2
f 36/56/3 33/49/3 26/48/3 30/57/3
f 28/52/9 27/51/9 34/59/9 33/60/9
f 27/61/9 31/62/9 35/63/9 34/64/9
f 32/65/9 28/66/9 33/67/9 36/68/9
f 31/69/9 32/70/9 36/71/9 35/72/9
f 38/73/9 37/74/9 40/75/9 39/76/9
f 32/70/6 31/69/6 39/77/6 40/78/6
f 31/62/3 27/61/3 38/79/3 39/80/3
f 28/66/2 32/65/2 40/81/2 37/82/2
f 41/83/10 42/84/10 44/85/10 43/86/10
f 43/86/11 44/85/11 46/87/11 45/88/11
f 45/88/12 46/87/12 48/89/12 47/90/12
f 47/90/13 48/89/13 50/91/13 49/92/13
f 49/92/14 50/91/14 52/93/14 51/94/14
f 51/94/15 52/93/15 54/95/15 53/96/15
f 53/96/16 54/95/16 56/97/16 55/98/16
f 55/98/17 56/97/17 58/99/17 57/100/17
f 57/100/18 58/99/18 60/101/18 59/102/18
f 59/102/19 60/101/19 62/103/19 61/104/19
f 44/105/3 42/106/3 64/107/3 62/108/3 60/109/3 58/110/3 56/111/3 54/112/3 52/113/3 50/114/3 48/115/3 46/116/3
f 61/104/20 62/103/20 64/117/20 63/118/20
f 63/118/21 64/117/21 42/119/21 41/120/21
f 41/121/2 43/122/2 45/123/2 47/124/2 49/125/2 51/126/2 53/127/2 55/128/2 57/129/2 59/130/2 61/131/2 63/132/2
f 65/133/10 66/134/10 68/135/10 67/136/10
f 67/136/11 68/135/11 70/137/11 69/138/11
f 69/138/12 70/137/12 72/139/12 71/140/12
f 71/140/13 72/139/13 74/141/13 73/142/13
f 73/142/14 74/141/14 76/143/14 75/144/14
f 75/144/15 76/143/15 78/145/15 77/146/15
f 77/146/16 78/145/16 80/147/16 79/148/16
f 79/148/17 80/147/17 82/149/17 81/150/17
f 81/150/18 82/149/18 84/151/18 83/152/18
f 83/152/19 84/151/19 86/153/19 85/154/19
f 68/155/3 66/156/3 88/157/3 86/158/3 84/159/3 82/160/3 80/161/3 78/162/3 76/163/3 74/164/3 72/165/3 70/166/3
f 85/154/20 86/153/20 88/167/20 87/168/20
f 87/168/21 88/167/21 66/169/21 65/170/21
f 65/171/2 67/172/2 69/173/2 71/174/2 73/175/2 75/176/2 77/177/2 79/178/2 81/179/2 83/180/2 85/181/2 87/182/2
f 93/183/1 94/184/1 90/185/1 89/186/1
f 91/187/2 95/188/2 93/183/2 89/186/2
f 96/189/3 92/190/3 90/185/3 94/184/3
