# Blender v2.80 (sub 75) OBJ File: ''
# www.blender.org
mtllib flecheobj.mtl
o Cylinder
v -1.000000 -0.000000 -0.077357
v 1.000000 0.000000 -0.077357
v -1.000000 -0.066993 0.038679
v 1.000000 -0.066993 0.038679
v -1.000000 0.066993 0.038679
v 1.000000 0.066993 0.038679
v 1.068085 -0.198770 0.114760
v 1.068085 0.000000 -0.229520
v 1.068085 0.198770 0.114760
v 1.336572 -0.010028 0.005790
v 1.336572 0.000000 -0.011580
v 1.336572 0.010028 0.005790
v -1.262161 -0.000000 -0.077357
v -1.262161 -0.066993 0.038679
v -1.262161 0.066993 0.038679
v -1.000000 -0.000000 -0.077357
v -1.000000 -0.066993 0.038679
v -1.000000 0.066993 0.038679
v -1.262161 -0.000000 -0.077357
v -1.262161 -0.066993 0.038679
v -1.262161 0.066993 0.038679
v -1.050216 0.108264 -0.014784
v -1.050216 0.066935 -0.086367
v -1.211945 0.066935 -0.086367
v -1.211945 0.108264 -0.014784
v -1.050216 -0.041329 0.101151
v -1.050216 0.041329 0.101151
v -1.211945 0.041329 0.101151
v -1.211945 -0.041329 0.101151
v -1.050216 -0.066935 -0.086367
v -1.050216 -0.108264 -0.014784
v -1.211945 -0.108264 -0.014784
v -1.211945 -0.066935 -0.086367
vt 1.000000 0.500000
vt 1.000000 1.000000
vt 0.666667 1.000000
vt 0.666667 0.500000
vt 0.333333 1.000000
vt 0.333333 0.500000
vt -0.000000 1.000000
vt 0.333333 1.000000
vt -0.000000 1.000000
vt -0.000000 0.500000
vt 0.666667 0.500000
vt 1.000000 0.500000
vt 0.333333 1.000000
vt -0.000000 1.000000
vt 0.666667 1.000000
vt 1.000000 1.000000
vt 0.457846 0.130000
vt 0.250000 0.490000
vt 0.042154 0.130000
vt 0.666667 1.000000
vt 1.000000 1.000000
vt 0.750000 0.490000
vt 0.957846 0.130000
vt 0.542154 0.130000
vt 0.957846 0.130000
vt 0.542154 0.130000
vt 0.333333 0.500000
vt -0.000000 0.500000
vt 0.750000 0.490000
vt 0.333333 0.500000
vt -0.000000 0.500000
vt -0.000000 0.500000
vt 0.333333 0.500000
vt -0.000000 0.500000
vt 0.333333 0.500000
vt 0.666667 0.500000
vt 0.333333 0.500000
vt 0.333333 0.500000
vt 0.666667 0.500000
vt 0.666667 0.500000
vt 1.000000 0.500000
vt 0.666667 0.500000
vt 0.666667 0.500000
vt 1.000000 0.500000
vt 1.000000 0.500000
vn 0.0000 -0.8660 -0.5000
vn 0.0000 0.0000 1.0000
vn -0.7452 0.5775 -0.3334
vn -0.0000 0.8660 -0.5000
vn 0.3761 0.8025 -0.4633
vn -0.7452 -0.0000 0.6669
vn -0.7452 -0.5775 -0.3334
vn 1.0000 0.0000 0.0000
vn 0.3761 0.0000 0.9266
vn 0.3761 -0.8025 -0.4633
vn -1.0000 -0.0000 0.0000
vn 0.7794 0.5426 -0.3133
vn 0.0000 -0.1334 -0.9911
vn -0.7794 0.5426 -0.3133
vn -0.0000 0.7916 0.6111
vn 0.7794 0.0000 0.6265
vn -0.0000 0.9250 0.3800
vn -0.7794 0.0000 0.6265
vn 0.0000 -0.9250 0.3800
vn 0.7794 -0.5426 -0.3133
vn 0.0000 -0.7916 0.6111
vn -0.7794 -0.5426 -0.3133
vn -0.0000 0.1334 -0.9911
usemtl None
s off
f 1/1/1 2/2/1 4/3/1 3/4/1
f 3/4/2 4/3/2 6/5/2 5/6/2
f 2/7/3 6/5/3 9/8/3 8/9/3
f 5/6/4 6/5/4 2/7/4 1/10/4
f 1/1/2 3/4/2 17/11/2 16/12/2
f 8/9/5 9/8/5 12/13/5 11/14/5
f 6/5/6 4/3/6 7/15/6 9/8/6
f 4/3/7 2/2/7 8/16/7 7/15/7
f 10/17/8 11/18/8 12/19/8
f 9/8/9 7/15/9 10/20/9 12/13/9
f 7/15/10 8/16/10 11/21/10 10/20/10
f 13/22/11 14/23/11 15/24/11
f 15/24/2 14/23/2 20/25/2 21/26/2
f 3/4/2 5/6/2 18/27/2 17/11/2
f 5/6/2 1/10/2 16/28/2 18/27/2
f 13/22/2 15/24/2 21/26/2 19/29/2
f 14/23/2 13/22/2 19/29/2 20/25/2
f 22/30/4 23/31/4 24/32/4 25/33/4
f 16/28/12 23/31/12 22/30/12 18/27/12
f 19/34/13 24/32/13 23/31/13 16/28/13
f 21/35/14 25/33/14 24/32/14 19/34/14
f 18/27/15 22/30/15 25/33/15 21/35/15
f 26/36/2 27/37/2 28/38/2 29/39/2
f 18/27/16 27/37/16 26/36/16 17/11/16
f 21/35/17 28/38/17 27/37/17 18/27/17
f 20/40/18 29/39/18 28/38/18 21/35/18
f 17/11/19 26/36/19 29/39/19 20/40/19
f 30/41/1 31/42/1 32/43/1 33/44/1
f 17/11/20 31/42/20 30/41/20 16/12/20
f 20/40/21 32/43/21 31/42/21 17/11/21
f 19/45/22 33/44/22 32/43/22 20/40/22
f 16/12/23 30/41/23 33/44/23 19/45/23
