# Blender v2.80 (sub 75) OBJ File: ''
# www.blender.org
mtllib lancepique.mtl
o cube_Cube
v -0.554573 1.000000 -0.745274
v -0.616424 -0.807125 -1.000000
v -0.554573 1.000000 0.745274
v -0.625209 -1.000000 0.815910
v 0.298087 0.491235 -0.491235
v 0.298087 -0.491235 -0.491235
v 0.298087 0.491235 0.491235
v 0.298087 -0.491235 0.491235
v 0.298087 0.637720 -0.637720
v 0.298087 -0.637720 -0.637720
v 0.298087 0.637720 0.637720
v 0.298087 -0.637720 0.637720
v 0.691989 0.320983 -0.320983
v 0.691989 -0.320983 -0.320983
v 0.691989 0.320983 0.320983
v 0.691989 -0.320983 0.320983
v 0.436499 1.000000 -0.745274
v 1.000000 0.881926 -0.881926
v 1.000000 -0.881926 -0.881926
v 0.498350 -0.807125 -1.000000
v 1.000000 0.881926 0.881926
v 0.436499 1.000000 0.745274
v 0.507136 -1.000000 0.815910
v 1.000000 -0.881926 0.881926
v 1.227547 0.419233 -0.419233
v 1.278675 0.368105 -0.368105
v 1.278675 -0.368105 -0.368105
v 1.227547 -0.419233 -0.419233
v 1.278675 0.368105 0.368105
v 1.227547 0.419233 0.419233
v 1.227547 -0.419233 0.419233
v 1.278675 -0.368105 0.368105
v 1.000000 0.786541 -0.786541
v 0.851179 0.637720 -0.637720
v 0.851179 -0.637720 -0.637720
v 1.000000 -0.786541 -0.786541
v 0.851179 0.637720 0.637720
v 1.000000 0.786541 0.786541
v 1.000000 -0.786541 0.786541
v 0.851179 -0.637720 0.637720
v 1.278675 0.322898 -0.322898
v 1.229712 0.273936 -0.273936
v 1.229712 -0.273936 -0.273936
v 1.278675 -0.322898 -0.322898
v 1.229712 0.273936 0.273936
v 1.278675 0.322898 0.322898
v 1.278675 -0.322898 0.322898
v 1.229712 -0.273936 0.273936
v -1.000000 -1.000000 -1.000000
v -1.000000 -1.000000 1.000000
v -1.000000 1.000000 1.000000
v -1.000000 1.000000 -1.000000
v 0.881926 -1.000000 -1.000000
v 0.881926 1.000000 -1.000000
v 0.881926 1.000000 1.000000
v 0.881926 -1.000000 1.000000
v -0.616424 0.807125 -1.000000
v 0.498350 0.807125 -1.000000
v -0.639640 0.830341 1.000000
v 0.521566 0.830341 1.000000
v 0.507136 -1.000000 -0.815910
v -0.625209 -1.000000 -0.815910
v -0.809299 1.000000 -1.000000
v 0.691225 1.000000 -1.000000
v 0.691225 -1.000000 -1.000000
v -0.809299 -1.000000 -1.000000
v 0.521566 -0.830341 1.000000
v -0.639640 -0.830341 1.000000
v -0.809299 1.000000 1.000000
v 0.691225 1.000000 1.000000
v 0.691225 -1.000000 1.000000
v -0.809299 -1.000000 1.000000
v -0.554573 1.000000 -0.745274
v 0.436499 1.000000 -0.745274
v -0.554573 1.000000 0.745274
v 0.436499 1.000000 0.745274
v 0.498350 -0.807125 -1.000000
v -0.616424 -0.807125 -1.000000
v -0.616424 0.807125 -1.000000
v 0.498350 0.807125 -1.000000
v 0.507136 -1.000000 -0.815910
v -0.625209 -1.000000 -0.815910
v 0.507136 -1.000000 0.815910
v -0.625209 -1.000000 0.815910
v -0.639640 0.830341 1.000000
v 0.521566 0.830341 1.000000
v 0.521566 -0.830341 1.000000
v -0.639640 -0.830341 1.000000
v -0.090420 -1.582262 -0.045226
v -0.027654 -1.582262 -0.045226
v -0.027654 -1.582262 0.045226
v -0.090420 -1.582262 0.045226
v -0.086734 -0.040107 -1.582262
v -0.086734 0.040107 -1.582262
v -0.031339 0.040107 -1.582262
v -0.031339 -0.040107 -1.582262
v -0.030186 -0.041261 1.582262
v -0.030186 0.041261 1.582262
v -0.087888 0.041261 1.582262
v -0.087888 -0.041261 1.582262
v -0.031569 1.582262 -0.041311
v -0.086504 1.582262 -0.041311
v -0.086504 1.582262 0.041311
v -0.031569 1.582262 0.041311
vt 0.649109 0.687294
vt 0.649109 0.547947
vt 0.649109 0.547947
vt 0.649109 0.687294
vt 0.375000 0.500000
vt 0.625000 0.500000
vt 0.625000 0.750000
vt 0.375000 0.750000
vt 0.329715 0.704715
vt 0.170285 0.704715
vt 0.170285 0.704715
vt 0.329715 0.704715
vt 0.170285 0.545285
vt 0.329715 0.545285
vt 0.329715 0.545285
vt 0.170285 0.545285
vt 0.445438 0.031841
vt 0.569322 0.031841
vt 0.569322 0.031841
vt 0.445438 0.031841
vt 0.396207 0.309804
vt 0.603793 0.309804
vt 0.603793 0.309804
vt 0.396207 0.309804
vt 0.563392 0.773011
vt 0.563392 0.976989
vt 0.563392 0.976989
vt 0.563392 0.773011
vt 0.290123 0.665123
vt 0.209877 0.665123
vt 0.209877 0.665123
vt 0.290123 0.665123
vt 0.348318 0.723318
vt 0.348318 0.526682
vt 0.360241 0.514759
vt 0.360241 0.735241
vt 0.151682 0.526682
vt 0.151682 0.723318
vt 0.139759 0.735241
vt 0.139759 0.514759
vt 0.311404 0.563596
vt 0.188596 0.563596
vt 0.188596 0.686404
vt 0.311404 0.686404
vt 0.209877 0.584877
vt 0.290123 0.584877
vt 0.290123 0.584877
vt 0.209877 0.584877
vt 0.311404 0.563596
vt 0.188596 0.563596
vt 0.188596 0.686404
vt 0.311404 0.686404
vt 0.297294 0.672294
vt 0.297294 0.577706
vt 0.303916 0.571084
vt 0.303916 0.678916
vt 0.202706 0.577706
vt 0.202706 0.672294
vt 0.196084 0.678916
vt 0.196084 0.571084
vt 0.125000 0.500000
vt 0.375000 0.500000
vt 0.625000 0.264759
vt 0.375000 0.264759
vt 0.389759 0.250000
vt 0.610241 0.250000
vt 0.389759 0.000000
vt 0.389759 0.250000
vt 0.375000 0.235241
vt 0.375000 0.014759
vt 0.610241 1.000000
vt 0.610241 0.750000
vt 0.625000 0.764759
vt 0.625000 0.985241
vt 0.398838 0.750000
vt 0.398838 1.000000
vt 0.375000 1.000000
vt 0.375000 0.476162
vt 0.625000 0.476162
vt 0.875000 0.523838
vt 0.625000 0.523838
vt 0.625000 0.500000
vt 0.875000 0.500000
vt 0.601162 0.250000
vt 0.601162 0.000000
vt 0.625000 0.000000
vt 0.625000 0.250000
vt 0.625000 0.711403
vt 0.875000 0.711403
vt 0.875000 0.735241
vt 0.625000 0.735241
vt 0.625000 0.288597
vt 0.375000 0.288597
vt 0.413597 0.000000
vt 0.413597 0.250000
vt 0.586403 1.000000
vt 0.586403 0.750000
vt 0.445438 0.218159
vt 0.569322 0.218159
vt 0.850891 0.687294
vt 0.850891 0.547947
vt 0.421849 0.773011
vt 0.421849 0.976989
vt 0.603793 0.454955
vt 0.396207 0.454955
vt 0.445438 0.218159
vt 0.569322 0.218159
vt 0.421849 0.773011
vt 0.850891 0.687294
vt 0.850891 0.547947
vt 0.603793 0.454955
vt 0.421849 0.976989
vt 0.396207 0.454955
vt 0.421849 0.773011
vt 0.563392 0.773011
vt 0.563392 0.976989
vt 0.421849 0.976989
vt 0.649109 0.547947
vt 0.850891 0.547947
vt 0.850891 0.687294
vt 0.649109 0.687294
vt 0.396207 0.309804
vt 0.603793 0.309804
vt 0.603793 0.454955
vt 0.396207 0.454955
vt 0.445438 0.031841
vt 0.569322 0.031841
vt 0.569322 0.218159
vt 0.445438 0.218159
vn 0.0000 0.0000 1.0000
vn -1.0000 0.0000 0.0000
vn 0.0000 0.0000 -1.0000
vn 0.0000 1.0000 0.0000
vn -0.0872 0.0000 -0.9962
vn 1.0000 -0.0000 0.0000
vn -0.0872 0.0000 0.9962
vn -0.0872 0.9962 0.0000
vn 0.0772 0.0000 -0.9970
vn 0.0772 0.0000 0.9970
vn 0.0772 0.9970 0.0000
vn 0.0772 -0.9970 0.0000
vn 0.7071 0.0000 -0.7071
vn 0.7071 0.0000 0.7071
vn 0.7071 0.7071 0.0000
vn 0.7071 -0.7071 0.0000
vn 0.0000 -1.0000 0.0000
vn -0.0872 -0.9962 0.0000
vn 0.0000 -0.7979 -0.6028
vn 0.7365 -0.6764 0.0000
vn 0.0000 -0.7979 0.6028
vn -0.7365 -0.6764 0.0000
vn -0.7397 0.0000 -0.6729
vn 0.0000 0.6046 -0.7965
vn 0.7397 0.0000 -0.6729
vn 0.0000 -0.6046 -0.7965
vn 0.7259 0.0000 0.6878
vn 0.0000 0.5938 0.8046
vn -0.7259 0.0000 0.6878
vn 0.0000 -0.5938 0.8046
vn 0.0000 0.7706 -0.6374
vn -0.7794 0.6265 0.0000
vn 0.0000 0.7706 0.6374
vn 0.7794 0.6265 0.0000
usemtl Material
s off
f 20/1/1 2/2/1 78/3/1 77/4/1
f 50/5/2 51/6/2 52/7/2 49/8/2
f 37/9/3 40/10/3 12/11/3 11/12/3
f 35/13/1 34/14/1 9/15/1 10/16/1
f 40/10/4 35/13/4 10/16/4 12/11/4
f 17/17/1 1/18/1 73/19/1 74/20/1
f 67/21/1 60/22/1 86/23/1 87/24/1
f 61/25/1 23/26/1 83/27/1 81/28/1
f 45/29/5 48/30/5 16/31/5 15/32/5
f 38/33/6 33/34/6 18/35/6 21/36/6
f 36/37/6 39/38/6 24/39/6 19/40/6
f 39/38/6 38/33/6 21/36/6 24/39/6
f 5/41/6 6/42/6 10/16/6 9/15/6
f 8/43/6 7/44/6 11/12/6 12/11/6
f 7/44/6 5/41/6 9/15/6 11/12/6
f 6/42/6 8/43/6 12/11/6 10/16/6
f 43/45/7 42/46/7 13/47/7 14/48/7
f 48/30/8 43/45/8 14/48/8 16/31/8
f 6/42/9 5/41/9 25/49/9 28/50/9
f 7/44/10 8/43/10 31/51/10 30/52/10
f 5/41/11 7/44/11 30/52/11 25/49/11
f 8/43/12 6/42/12 28/50/12 31/51/12
f 14/48/6 13/47/6 15/32/6 16/31/6
f 46/53/6 41/54/6 26/55/6 29/56/6
f 44/57/6 47/58/6 32/59/6 27/60/6
f 47/58/6 46/53/6 29/56/6 32/59/6
f 18/35/13 19/40/13 53/61/13 54/62/13
f 55/63/14 56/64/14 24/65/14 21/66/14
f 54/67/15 55/68/15 21/69/15 18/70/15
f 56/71/16 53/72/16 19/73/16 24/74/16
f 34/14/17 37/9/17 11/12/17 9/15/17
f 26/55/13 27/60/13 28/50/13 25/49/13
f 30/52/14 31/51/14 32/59/14 29/56/14
f 25/49/15 30/52/15 29/56/15 26/55/15
f 31/51/16 28/50/16 27/60/16 32/59/16
f 42/46/18 45/29/18 15/32/18 13/47/18
f 34/14/14 35/13/14 36/37/14 33/34/14
f 38/33/13 39/38/13 40/10/13 37/9/13
f 33/34/16 38/33/16 37/9/16 34/14/16
f 39/38/15 36/37/15 35/13/15 40/10/15
f 33/34/6 36/37/6 19/40/6 18/35/6
f 42/46/14 43/45/14 44/57/14 41/54/14
f 46/53/13 47/58/13 48/30/13 45/29/13
f 41/54/16 46/53/16 45/29/16 42/46/16
f 47/58/15 44/57/15 43/45/15 48/30/15
f 41/54/6 44/57/6 27/60/6 26/55/6
f 66/75/17 72/76/17 50/77/17 49/8/17
f 72/78/1 69/79/1 51/6/1 50/5/1
f 63/80/3 66/81/3 49/82/3 52/83/3
f 69/84/4 63/85/4 52/86/4 51/87/4
f 65/88/3 64/89/3 54/90/3 53/91/3
f 70/92/1 71/93/1 56/64/1 55/63/1
f 64/94/4 70/95/4 55/68/4 54/67/4
f 71/96/17 65/97/17 53/72/17 56/71/17
f 1/18/4 17/17/4 64/94/4 63/85/4
f 22/98/4 3/99/4 69/84/4 70/95/4
f 3/99/4 1/18/4 63/85/4 69/84/4
f 17/17/4 22/98/4 70/95/4 64/94/4
f 2/2/3 20/1/3 65/88/3 66/81/3
f 58/100/3 57/101/3 63/80/3 64/89/3
f 57/101/3 2/2/3 66/81/3 63/80/3
f 20/1/3 58/100/3 64/89/3 65/88/3
f 61/25/17 62/102/17 66/75/17 65/97/17
f 4/103/17 23/26/17 71/96/17 72/76/17
f 62/102/17 4/103/17 72/76/17 66/75/17
f 23/26/17 61/25/17 65/97/17 71/96/17
f 59/104/1 60/22/1 70/92/1 69/79/1
f 67/21/1 68/105/1 72/78/1 71/93/1
f 68/105/1 59/104/1 69/79/1 72/78/1
f 60/22/1 67/21/1 71/93/1 70/92/1
f 3/99/1 22/98/1 76/106/1 75/107/1
f 62/102/1 61/25/1 81/28/1 82/108/1
f 57/101/1 58/100/1 80/109/1 79/110/1
f 60/22/1 59/104/1 85/111/1 86/23/1
f 1/18/1 3/99/1 75/107/1 73/19/1
f 23/26/1 4/103/1 84/112/1 83/27/1
f 2/2/1 57/101/1 79/110/1 78/3/1
f 68/105/1 67/21/1 87/24/1 88/113/1
f 22/98/1 17/17/1 74/20/1 76/106/1
f 4/103/1 62/102/1 82/108/1 84/112/1
f 58/100/1 20/1/1 77/4/1 80/109/1
f 59/104/1 68/105/1 88/113/1 85/111/1
f 89/114/17 90/115/17 91/116/17 92/117/17
f 81/28/19 90/115/19 89/114/19 82/108/19
f 83/27/20 91/116/20 90/115/20 81/28/20
f 84/112/21 92/117/21 91/116/21 83/27/21
f 82/108/22 89/114/22 92/117/22 84/112/22
f 93/118/3 94/119/3 95/120/3 96/121/3
f 79/110/23 94/119/23 93/118/23 78/3/23
f 80/109/24 95/120/24 94/119/24 79/110/24
f 77/4/25 96/121/25 95/120/25 80/109/25
f 78/3/26 93/118/26 96/121/26 77/4/26
f 97/122/1 98/123/1 99/124/1 100/125/1
f 86/23/27 98/123/27 97/122/27 87/24/27
f 85/111/28 99/124/28 98/123/28 86/23/28
f 88/113/29 100/125/29 99/124/29 85/111/29
f 87/24/30 97/122/30 100/125/30 88/113/30
f 101/126/4 102/127/4 103/128/4 104/129/4
f 73/19/31 102/127/31 101/126/31 74/20/31
f 75/107/32 103/128/32 102/127/32 73/19/32
f 76/106/33 104/129/33 103/128/33 75/107/33
f 74/20/34 101/126/34 104/129/34 76/106/34
