# Blender v3.1.2 OBJ File: 'puzzle g.blend'
# www.blender.org
mtllib B_Boite.mtl
o B_Boite_Cube.017
v 6.511806 1.622347 12.945487
v 6.511806 1.622347 13.050101
v 5.995407 1.430386 12.862703
v 5.995407 1.621549 12.862703
v 6.463857 1.621549 13.132885
v 5.981857 1.622347 13.140699
v 6.463857 1.621549 12.862703
v 5.995407 1.430386 13.132885
v 5.947458 1.622347 13.050101
v 5.962889 1.430386 13.047240
v 5.962889 1.430386 12.948347
v 5.947458 1.622347 12.945487
v 5.995407 1.621549 13.132885
v 6.294427 1.663050 12.997794
v 5.962889 1.621549 12.948347
v 5.962889 1.621549 13.047240
v 6.463857 1.430386 12.862703
v 6.463857 1.430386 13.132885
v 6.496375 1.430386 12.948347
v 6.496375 1.429266 13.047240
v 6.477407 1.622347 12.854888
v 5.981857 1.622347 12.854888
v 6.477407 1.635334 12.854888
v 6.496375 1.621549 13.047240
v 6.496375 1.621549 12.948347
v 6.477407 1.622347 13.140699
v 6.511806 1.635334 12.945487
v 6.477407 1.635334 13.140699
v 6.511806 1.635334 13.050101
v 5.981857 1.635334 12.854888
v 5.947458 1.635334 12.945487
v 6.164838 1.663050 12.997794
v 5.981857 1.635334 13.140699
v 5.947458 1.635334 13.050101
v 6.298986 1.573879 13.163575
v 6.298986 1.593889 13.163575
v 6.278976 1.573879 13.163575
v 6.278976 1.593889 13.163575
v 6.305558 1.575460 13.126383
v 6.305558 1.604252 13.126383
v 6.276766 1.575460 13.126383
v 6.276766 1.604252 13.126383
v 6.277871 1.574669 13.144979
v 6.277871 1.599070 13.144979
v 6.302272 1.574669 13.144979
v 6.302272 1.599070 13.144979
v 6.158566 1.593889 13.163575
v 6.158566 1.573879 13.163575
v 6.156101 1.574669 13.144979
v 6.156101 1.599070 13.144979
v 6.180130 1.573879 13.163575
v 6.181239 1.574669 13.144979
v 6.181239 1.599070 13.144979
v 6.180130 1.593889 13.163575
v 6.153707 1.603319 13.127852
v 6.153707 1.570421 13.127852
v 6.182779 1.603319 13.127852
v 6.182779 1.570421 13.127852
v 6.184691 1.574669 13.144979
v 6.274428 1.574669 13.144979
v 6.183657 1.593889 13.163575
v 6.275450 1.593889 13.163575
v 6.275450 1.573879 13.163575
v 6.183657 1.573879 13.163575
v 6.274428 1.599070 13.144979
v 6.184691 1.599070 13.144979
v 6.184691 1.580314 13.150676
v 6.274428 1.580313 13.150677
v 6.183657 1.589123 13.157125
v 6.275450 1.589122 13.157125
v 6.275450 1.579565 13.157919
v 6.183657 1.579564 13.157918
v 6.274428 1.592579 13.149689
v 6.184691 1.592578 13.149688
vt 0.932661 0.425515
vt 0.932661 0.340000
vt 0.940399 0.337527
vt 0.940399 0.427988
vt 0.011742 0.007398
vt 0.213537 0.007399
vt 0.213537 0.252131
vt 0.011742 0.252131
vt 0.011742 0.500540
vt 0.213537 0.500540
vt 0.213537 0.745272
vt 0.011742 0.745272
vt 0.969942 0.249147
vt 0.969942 0.002000
vt 0.983029 0.002000
vt 0.983029 0.249147
vt 0.969943 0.827343
vt 0.969942 0.747147
vt 0.983029 0.747147
vt 0.983029 0.827343
vt 0.916526 0.499591
vt 0.923330 0.506349
vt 0.969943 0.998000
vt 0.969943 0.917803
vt 0.983029 0.917803
vt 0.983029 0.997999
vt 0.664571 0.341854
vt 0.665749 0.427357
vt 0.658047 0.429937
vt 0.656800 0.339487
vt 0.916526 0.265925
vt 0.923330 0.259166
vt 0.682898 0.264315
vt 0.676187 0.257463
vt 0.682904 0.501201
vt 0.676193 0.508052
vt 0.679683 0.267566
vt 0.672786 0.260902
vt 0.010560 0.421124
vt 0.213537 0.421124
vt 0.011742 0.331546
vt 0.213537 0.331546
vt 0.213537 0.993681
vt 0.011742 0.993681
vt 0.011742 0.914265
vt 0.213537 0.914265
vt 0.011742 0.824687
vt 0.213537 0.824687
vt 0.969942 0.419806
vt 0.969942 0.329345
vt 0.983029 0.329345
vt 0.983029 0.419806
vt 0.969942 0.500003
vt 0.983029 0.500003
vt 0.942504 0.081528
vt 0.942504 0.173935
vt 0.831926 0.127731
vt 0.923672 0.002000
vt 0.674815 0.252680
vt 0.767864 0.127731
vt 0.923672 0.253462
vt 0.674815 0.002782
vt 0.656800 0.173528
vt 0.656800 0.081934
vt 0.525605 0.239735
vt 0.421239 0.264627
vt 0.408919 0.212976
vt 0.513285 0.188084
vt 0.335391 0.100982
vt 0.320736 0.230994
vt 0.232553 0.249013
vt 0.249845 0.095606
vt 0.414230 0.398670
vt 0.335759 0.293979
vt 0.485590 0.350481
vt 0.455715 0.448386
vt 0.391820 0.505522
vt 0.342870 0.446860
vt 0.250279 0.323330
vt 0.519610 0.391251
vt 0.584312 0.651443
vt 0.582239 0.776660
vt 0.498650 0.778148
vt 0.483851 0.648867
vt 0.346731 0.795992
vt 0.290204 0.682689
vt 0.567825 0.240336
vt 0.526773 0.148539
vt 0.602711 0.156358
vt 0.609383 0.229165
vt 0.588773 0.318260
vt 0.630330 0.307089
vt 0.557755 0.060511
vt 0.630331 0.080867
vt 0.519150 0.157112
vt 0.380023 0.112721
vt 0.382372 0.105125
vt 0.595913 0.776417
vt 0.598701 0.933154
vt 0.585028 0.933398
vt 0.560642 0.243399
vt 0.597694 0.651205
vt 0.491276 0.526175
vt 0.598701 0.536555
vt 0.235607 0.574325
vt 0.377586 0.019197
vt 0.525605 0.398435
vt 0.461569 0.455402
vt 0.385459 0.881208
vt 0.391172 0.983022
vt 0.354679 0.952318
vt 0.349608 0.912578
vt 0.318617 0.222106
vt 0.406748 0.203875
vt 0.263310 0.983674
vt 0.229794 0.881975
vt 0.271331 0.907556
vt 0.293609 0.948271
vt 0.511115 0.178982
vt 0.390966 0.983264
vt 0.354590 0.952421
vt 0.344471 0.102006
vt 0.329817 0.232018
vt 0.934410 0.951478
vt 0.880238 0.955858
vt 0.880237 0.562688
vt 0.934410 0.567115
vt 0.797317 0.955860
vt 0.734506 0.951483
vt 0.734490 0.567120
vt 0.797298 0.562690
vt 0.628094 0.951486
vt 0.628096 0.567122
vt 0.599482 0.336693
vt 0.599482 0.498803
vt 0.572639 0.455671
vt 0.567004 0.374195
vt 0.537084 0.909542
vt 0.398485 0.910267
vt 0.437687 0.876439
vt 0.503870 0.871379
vt 0.572543 0.798821
vt 0.527672 0.826963
vt 0.403332 0.799655
vt 0.442679 0.833227
vt 0.710252 0.439253
vt 0.697736 0.406289
vt 0.697736 0.368224
vt 0.710252 0.335259
vt 0.890561 0.335259
vt 0.903077 0.368224
vt 0.903091 0.406291
vt 0.890561 0.439253
vn 0.0517 -0.9987 0.0000
vn 0.0000 0.0000 -1.0000
vn 0.0000 0.0000 1.0000
vn -0.9349 0.0000 0.3550
vn 0.0483 -0.9987 0.0183
vn -0.9349 0.0000 -0.3550
vn -0.0517 -0.9987 0.0000
vn 0.0483 -0.9987 -0.0183
vn 0.0000 -0.9948 -0.1017
vn 0.0000 -0.9948 0.1017
vn -0.0483 -0.9987 0.0183
vn -0.0483 -0.9987 -0.0183
vn 0.9349 0.0000 0.3550
vn 1.0000 0.0000 0.0000
vn 0.9349 0.0000 -0.3550
vn -1.0000 0.0000 0.0000
vn -0.1265 0.9920 0.0000
vn -0.1159 0.9923 -0.0440
vn 0.0000 0.9817 0.1904
vn 0.0000 0.9817 -0.1904
vn -0.1159 0.9923 0.0440
vn 0.1159 0.9923 0.0440
vn 0.1265 0.9920 0.0000
vn 0.1159 0.9923 -0.0440
vn -0.9982 0.0000 0.0593
vn 0.9847 0.0000 0.1740
vn 0.0000 -0.9991 -0.0425
vn 0.0000 0.9633 0.2684
vn -0.9913 0.0000 0.1314
vn 0.0000 0.9706 0.2408
vn 0.0000 -0.9706 0.2408
vn -0.9904 0.0000 0.1384
vn 0.9960 0.0000 0.0896
vn -0.9969 -0.0004 0.0789
vn -0.9972 -0.0116 0.0745
vn 0.0000 -0.9947 -0.1029
vn -0.0000 0.9068 0.4215
vn -0.0000 0.0827 0.9966
vn 0.0000 -0.0803 -0.9968
vn 0.9971 -0.0117 0.0753
vn 0.9968 -0.0003 0.0798
vn -0.0007 -1.0000 -0.0001
usemtl None
s off
f 24/1/1 25/2/1 1/3/1 2/4/1
f 3/5/2 4/6/2 7/7/2 17/8/2
f 18/9/3 5/10/3 13/11/3 8/12/3
f 21/13/2 22/14/2 30/15/2 23/16/2
f 9/17/4 6/18/4 33/19/4 34/20/4
f 5/21/5 24/1/5 2/4/5 26/22/5
f 22/23/6 12/24/6 31/25/6 30/26/6
f 15/27/7 16/28/7 9/29/7 12/30/7
f 25/2/8 7/31/8 21/32/8 1/3/8
f 7/31/9 4/33/9 22/34/9 21/32/9
f 13/35/10 5/21/10 26/22/10 6/36/10
f 16/28/11 13/35/11 6/36/11 9/29/11
f 4/37/12 15/27/12 12/30/12 22/38/12
f 5/10/13 18/9/13 20/39/13 24/40/13
f 24/40/14 20/39/14 19/41/14 25/42/14
f 25/42/15 19/41/15 17/8/15 7/7/15
f 4/43/6 3/44/6 11/45/6 15/46/6
f 15/46/16 11/45/16 10/47/16 16/48/16
f 16/48/4 10/47/4 8/12/4 13/11/4
f 2/49/14 1/50/14 27/51/14 29/52/14
f 6/18/3 26/53/3 28/54/3 33/19/3
f 1/50/15 21/13/15 23/16/15 27/51/15
f 26/53/13 2/49/13 29/52/13 28/54/13
f 12/24/16 9/17/16 34/20/16 31/25/16
f 31/55/17 34/56/17 32/57/17
f 30/58/18 31/55/18 32/57/18
f 28/59/19 14/60/19 32/57/19 33/61/19
f 23/62/20 30/58/20 32/57/20 14/60/20
f 34/56/21 33/61/21 32/57/21
f 28/59/22 29/63/22 14/60/22
f 29/63/23 27/64/23 14/60/23
f 27/64/24 23/62/24 14/60/24
f 35/65/3 36/66/3 38/67/3 37/68/3
f 43/69/25 44/70/25 42/71/25 41/72/25
f 45/73/26 46/74/26 36/66/26 35/75/26
f 43/76/27 41/77/27 39/78/27 45/73/27
f 44/70/28 38/67/28 36/66/28 46/74/28
f 42/71/28 44/70/28 46/74/28 40/79/28
f 37/80/27 43/76/27 45/73/27 35/75/27
f 39/78/26 40/79/26 46/74/26 45/73/26
f 52/81/27 51/82/27 48/83/27 49/84/27
f 48/83/29 47/85/29 50/86/29 49/84/29
f 54/87/28 53/88/28 50/89/28 47/90/28
f 51/91/3 54/87/3 47/90/3 48/92/3
f 50/89/30 53/88/30 57/93/30 55/94/30
f 66/95/2 59/96/2 52/97/2 53/88/2
f 64/98/3 61/99/3 54/100/3 51/82/3
f 61/101/28 66/95/28 53/88/28 54/87/28
f 59/102/27 64/98/27 51/82/27 52/81/27
f 52/81/31 49/84/31 56/103/31 58/104/31
f 49/84/32 50/86/32 55/105/32 56/103/32
f 53/88/33 52/97/33 58/106/33 57/93/33
f 43/76/27 37/80/27 63/107/27 60/108/27
f 60/109/34 63/110/34 71/111/34 68/112/34
f 38/67/28 44/70/28 65/113/28 62/114/28
f 62/115/35 65/116/35 73/117/35 70/118/35
f 37/68/3 38/67/3 62/114/3 63/119/3
f 63/120/16 62/115/16 70/118/16 71/121/16
f 44/70/2 43/69/2 60/122/2 65/123/2
f 65/116/16 60/109/16 68/112/16 73/117/16
f 68/124/36 71/125/36 72/126/36 67/127/36
f 70/128/37 73/129/37 74/130/37 69/131/37
f 71/125/38 70/128/38 69/131/38 72/126/38
f 73/129/39 68/132/39 67/133/39 74/130/39
f 59/134/14 66/135/14 74/136/14 67/137/14
f 61/138/14 64/139/14 72/140/14 69/141/14
f 66/142/40 61/138/40 69/141/40 74/143/40
f 64/139/41 59/144/41 67/145/41 72/140/41
f 8/146/42 10/147/42 11/148/42 3/149/42 17/150/42 19/151/42 20/152/42 18/153/42
