# Blender v3.1.2 OBJ File: 'puzzle g.blend'
# www.blender.org
mtllib B_Buche01.mtl
o B_Buche01_Cylinder.013
v 0.094673 -0.252325 0.027163
v 0.094673 0.254997 0.027163
v 0.069342 -0.243627 0.064956
v 0.069342 0.250267 0.064956
v 0.028711 -0.239643 0.084724
v 0.028711 0.248101 0.084724
v -0.073436 -0.261233 0.013897
v -0.073436 0.259840 0.013897
v -0.070194 -0.267617 -0.031795
v -0.070194 0.263311 -0.031795
v -0.044863 -0.270935 -0.069589
v -0.044863 0.265115 -0.069589
v -0.004232 -0.271886 -0.089356
v -0.004232 0.265632 -0.089356
vt 0.696843 0.014971
vt 0.696843 0.396972
vt 0.606670 0.393411
vt 0.606670 0.021521
vt 0.517115 0.391780
vt 0.517115 0.024521
vt 0.387997 0.405465
vt 0.474789 0.430186
vt 0.474789 0.733206
vt 0.388035 0.755432
vt 0.301285 0.730787
vt 0.237775 0.665858
vt 0.301218 0.427645
vt 0.270758 0.008264
vt 0.270758 0.400619
vt 0.179970 0.403232
vt 0.179970 0.003457
vt 0.089797 0.404591
vt 0.089797 0.000958
vt 0.000243 0.404980
vt 0.000242 0.000242
vt 0.237290 0.730921
vt 0.150395 0.755887
vt 0.063540 0.733858
vt 0.000242 0.495216
vt 0.063767 0.430176
vt 0.150524 0.405465
vt 0.237290 0.427649
vt 0.999758 0.000242
vt 0.999758 0.404980
vn 0.8307 0.0000 0.5568
vn 0.4375 0.0000 0.8992
vn 0.0216 0.9953 0.0946
vn -0.9975 0.0000 -0.0708
vn -0.8307 0.0000 -0.5568
vn -0.4375 0.0000 -0.8992
vn -0.5698 0.0000 0.8218
vn 0.0393 -0.9843 0.1721
vn 0.7624 0.0000 -0.6471
usemtl None
s off
f 1/1/1 2/2/1 4/3/1 3/4/1
f 3/4/2 4/3/2 6/5/2 5/6/2
f 4/7/3 2/8/3 14/9/3 12/10/3 10/11/3 8/12/3 6/13/3
f 7/14/4 8/15/4 10/16/4 9/17/4
f 9/17/5 10/16/5 12/18/5 11/19/5
f 11/19/6 12/18/6 14/20/6 13/21/6
f 5/6/7 6/5/7 8/15/7 7/14/7
f 1/22/8 3/23/8 5/24/8 7/25/8 9/26/8 11/27/8 13/28/8
f 1/1/9 13/29/9 14/30/9 2/2/9
