# Blender v3.1.2 OBJ File: 'puzzle g.blend'
# www.blender.org
mtllib B_Buche02.mtl
o B_Buche02_Cylinder.014
v 0.083471 -0.274777 -0.001913
v 0.083479 0.256229 -0.002027
v 0.073997 -0.264177 0.019694
v 0.073997 0.263254 0.019694
v -0.019425 -0.248420 0.055615
v -0.019425 0.254243 0.055615
v -0.041780 -0.246995 0.029661
v -0.041624 0.238554 0.029663
v -0.044895 -0.251943 -0.004370
v -0.044958 0.262075 -0.004383
v -0.036949 -0.247623 -0.037406
v -0.036915 0.256759 -0.037405
v -0.014581 -0.252542 -0.061239
v -0.014392 0.255362 -0.061199
vt 0.307039 0.430005
vt 0.306706 0.005870
vt 0.370150 0.000252
vt 0.370193 0.421532
vt 0.275122 0.756298
vt 0.211874 0.764039
vt 0.000252 0.599230
vt 0.028856 0.512104
vt 0.102759 0.458049
vt 0.189513 0.430510
vt 0.275122 0.449006
vt 0.638123 0.408920
vt 0.638081 0.007422
vt 0.729501 0.019944
vt 0.729817 0.407772
vt 0.821061 0.001093
vt 0.821297 0.411659
vt 0.912044 0.005288
vt 0.912249 0.408159
vt 0.999748 0.006346
vt 0.999748 0.412029
vt 0.487366 0.430510
vt 0.550505 0.438886
vt 0.550505 0.745037
vt 0.464808 0.763721
vt 0.377920 0.736410
vt 0.300769 0.683623
vt 0.275626 0.594842
vt 0.000252 0.412384
vt 0.000556 0.006700
vn 0.9162 0.0000 0.4008
vn -0.1690 -0.9833 0.0680
vn -0.7588 0.0001 0.6513
vn -0.9955 0.0001 0.0943
vn -0.9719 -0.0000 -0.2353
vn -0.7277 0.0002 -0.6859
vn -0.0553 0.9985 -0.0057
vn 0.3589 0.0000 0.9334
vn 0.5175 -0.0002 -0.8557
usemtl None
s off
f 1/1/1 2/2/1 4/3/1 3/4/1
f 1/5/2 3/6/2 5/7/2 7/8/2 9/9/2 11/10/2 13/11/2
f 5/12/3 6/13/3 8/14/3 7/15/3
f 7/15/4 8/14/4 10/16/4 9/17/4
f 9/17/5 10/16/5 12/18/5 11/19/5
f 11/19/6 12/18/6 14/20/6 13/21/6
f 4/22/7 2/23/7 14/24/7 12/25/7 10/26/7 8/27/7 6/28/7
f 3/4/8 4/3/8 6/13/8 5/12/8
f 1/1/9 13/29/9 14/30/9 2/2/9
