# Blender v3.1.2 OBJ File: 'puzzle g.blend'
# www.blender.org
mtllib B_Buche01.mtl
o B_Buche02_Cylinder.014
v 5.798978 -0.178950 13.414693
v 5.798986 0.352056 13.414578
v 5.789505 -0.168350 13.436300
v 5.789505 0.359081 13.436300
v 5.696082 -0.152593 13.472220
v 5.696082 0.350071 13.472220
v 5.673727 -0.151168 13.446266
v 5.673883 0.334381 13.446269
v 5.670612 -0.156116 13.412236
v 5.670549 0.357902 13.412223
v 5.678558 -0.151796 13.379200
v 5.678592 0.352586 13.379201
v 5.700926 -0.156715 13.355368
v 5.701115 0.351189 13.355407
vt 0.307039 0.430005
vt 0.306706 0.005870
vt 0.370150 0.000252
vt 0.370193 0.421532
vt 0.275122 0.756298
vt 0.211874 0.764039
vt 0.000252 0.599230
vt 0.028856 0.512104
vt 0.102759 0.458049
vt 0.189513 0.430510
vt 0.275122 0.449006
vt 0.638123 0.408920
vt 0.638081 0.007422
vt 0.729501 0.019944
vt 0.729817 0.407772
vt 0.821061 0.001093
vt 0.821297 0.411659
vt 0.912044 0.005288
vt 0.912249 0.408159
vt 0.999748 0.006346
vt 0.999748 0.412029
vt 0.487366 0.430510
vt 0.550505 0.438886
vt 0.550505 0.745037
vt 0.464808 0.763721
vt 0.377920 0.736410
vt 0.300769 0.683623
vt 0.275626 0.594842
vt 0.000252 0.412384
vt 0.000556 0.006700
vn 0.9162 0.0000 0.4008
vn -0.1690 -0.9833 0.0680
vn -0.7588 0.0001 0.6513
vn -0.9955 0.0001 0.0943
vn -0.9719 -0.0000 -0.2353
vn -0.7277 0.0002 -0.6859
vn -0.0553 0.9985 -0.0057
vn 0.3589 0.0000 0.9334
vn 0.5175 -0.0002 -0.8557
usemtl None
s off
f 1/1/1 2/2/1 4/3/1 3/4/1
f 1/5/2 3/6/2 5/7/2 7/8/2 9/9/2 11/10/2 13/11/2
f 5/12/3 6/13/3 8/14/3 7/15/3
f 7/15/4 8/14/4 10/16/4 9/17/4
f 9/17/5 10/16/5 12/18/5 11/19/5
f 11/19/6 12/18/6 14/20/6 13/21/6
f 4/22/7 2/23/7 14/24/7 12/25/7 10/26/7 8/27/7 6/28/7
f 3/4/8 4/3/8 6/13/8 5/12/8
f 1/1/9 13/29/9 14/30/9 2/2/9
