# Blender v3.1.2 OBJ File: 'puzzle g.blend'
# www.blender.org
mtllib B_Horloge.mtl
o B_Horloge_Cylinder.008
v 6.768078 1.968331 12.808400
v 6.768078 1.951085 12.872312
v 6.906526 1.931904 12.815419
v 6.892012 1.918477 12.878595
v 7.007876 1.832385 12.834596
v 6.982738 1.829390 12.895761
v 7.044972 1.696438 12.860791
v 7.015946 1.707695 12.919210
v 7.007876 1.560492 12.886987
v 6.982738 1.586000 12.942660
v 6.906526 1.460972 12.906163
v 6.892012 1.496913 12.959826
v 6.768078 1.424546 12.913182
v 6.768078 1.464305 12.966109
v 6.629631 1.460972 12.906163
v 6.644145 1.496913 12.959826
v 6.528281 1.560492 12.886987
v 6.553419 1.586000 12.942660
v 6.491184 1.696438 12.860791
v 6.520211 1.707695 12.919210
v 6.528281 1.832384 12.834596
v 6.553419 1.829390 12.895761
v 6.629631 1.931904 12.815419
v 6.644145 1.918477 12.878595
v 6.906526 1.943161 12.873839
v 6.768078 1.979588 12.866820
v 7.007876 1.843641 12.893015
v 7.044972 1.707695 12.919210
v 7.007876 1.571749 12.945406
v 6.906526 1.472229 12.964582
v 6.768078 1.435802 12.971601
v 6.629631 1.472229 12.964582
v 6.528281 1.571749 12.945406
v 6.491184 1.707695 12.919210
v 6.528281 1.843641 12.893015
v 6.629631 1.943161 12.873839
v 6.837616 1.824288 12.887738
v 6.768078 1.842584 12.884212
v 6.888521 1.774303 12.897369
v 6.907153 1.706022 12.910526
v 6.888521 1.637740 12.923683
v 6.837616 1.587755 12.933315
v 6.768078 1.569459 12.936841
v 6.698541 1.587755 12.933315
v 6.647636 1.637740 12.923683
v 6.629004 1.706022 12.910526
v 6.647636 1.774303 12.897369
v 6.698541 1.824288 12.887738
v 6.892012 1.912446 12.847298
v 6.768078 1.945055 12.841014
v 6.982738 1.823359 12.864464
v 7.015946 1.701664 12.887913
v 6.982738 1.579969 12.911363
v 6.892012 1.490882 12.928529
v 6.768078 1.458274 12.934812
v 6.644145 1.490882 12.928529
v 6.553419 1.579969 12.911363
v 6.520211 1.701664 12.887913
v 6.553419 1.823359 12.864464
v 6.644145 1.912446 12.847298
v 6.873344 1.882716 12.863894
v 6.768078 1.910413 12.858557
v 6.950405 1.807048 12.878474
v 6.978611 1.703683 12.898392
v 6.950405 1.600319 12.918309
v 6.873344 1.524651 12.932889
v 6.768078 1.496954 12.938227
v 6.662812 1.524651 12.932889
v 6.585752 1.600319 12.918309
v 6.557546 1.703683 12.898392
v 6.585752 1.807048 12.878474
v 6.662812 1.882716 12.863894
vt 0.965117 0.500000
vt 0.930653 0.500000
vt 0.930653 0.416970
vt 0.965117 0.416970
vt 0.930653 0.333940
vt 0.965117 0.333940
vt 0.930653 0.250910
vt 0.965117 0.250910
vt 0.930653 0.167880
vt 0.965117 0.167880
vt 0.930653 0.084850
vt 0.965117 0.084850
vt 0.930653 0.001820
vt 0.965117 0.001820
vt 0.965117 0.998180
vt 0.930653 0.998180
vt 0.930653 0.915150
vt 0.965117 0.915150
vt 0.930653 0.832120
vt 0.965117 0.832120
vt 0.930653 0.749090
vt 0.965117 0.749090
vt 0.930653 0.666060
vt 0.965117 0.666060
vt 0.987221 0.670754
vt 0.987222 0.745080
vt 0.968758 0.745080
vt 0.968758 0.670754
vt 0.930653 0.583030
vt 0.965117 0.583030
vt 0.080115 0.084827
vt 0.185682 0.023878
vt 0.307580 0.023878
vt 0.413147 0.084827
vt 0.474097 0.190394
vt 0.474097 0.312293
vt 0.413147 0.417860
vt 0.307580 0.478809
vt 0.185682 0.478809
vt 0.080115 0.417860
vt 0.019165 0.312293
vt 0.019165 0.190394
vt 0.395692 0.860679
vt 0.450251 0.766178
vt 0.474096 0.772568
vt 0.413147 0.878134
vt 0.450251 0.657059
vt 0.474096 0.650669
vt 0.395691 0.562558
vt 0.413147 0.545102
vt 0.301191 0.507998
vt 0.307580 0.484153
vt 0.192070 0.507998
vt 0.185681 0.484153
vt 0.097569 0.562558
vt 0.080113 0.545102
vt 0.043011 0.657058
vt 0.019165 0.650669
vt 0.043011 0.766178
vt 0.019165 0.772567
vt 0.097571 0.860679
vt 0.080115 0.878134
vt 0.192071 0.915238
vt 0.185682 0.939084
vt 0.301191 0.915238
vt 0.307580 0.939084
vt 0.738727 0.351006
vt 0.677753 0.350937
vt 0.624980 0.320392
vt 0.594571 0.267528
vt 0.594602 0.206540
vt 0.625139 0.153773
vt 0.677985 0.123357
vt 0.738980 0.123445
vt 0.791780 0.153969
vt 0.822208 0.206805
vt 0.822141 0.267779
vt 0.791565 0.320542
vt 0.987222 0.001820
vt 0.987222 0.076146
vt 0.968758 0.076146
vt 0.968758 0.001820
vt 0.987221 0.224798
vt 0.987221 0.299124
vt 0.968757 0.299124
vt 0.968758 0.224798
vt 0.987221 0.596428
vt 0.968758 0.596428
vt 0.987222 0.819406
vt 0.987222 0.893732
vt 0.968758 0.893732
vt 0.968758 0.819406
vt 0.987221 0.150472
vt 0.968758 0.150472
vt 0.987221 0.522102
vt 0.968758 0.522102
vt 0.987221 0.373450
vt 0.987221 0.447776
vt 0.968757 0.447776
vt 0.968757 0.373450
vt 0.661880 0.410483
vt 0.754762 0.410505
vt 0.763437 0.442656
vt 0.653316 0.442665
vt 0.835204 0.364080
vt 0.858791 0.387588
vt 0.881682 0.283656
vt 0.913863 0.292224
vt 0.881711 0.190778
vt 0.913863 0.182104
vt 0.835289 0.110331
vt 0.858794 0.086743
vt 0.754860 0.063881
vt 0.763425 0.031699
vt 0.661968 0.063845
vt 0.653297 0.031690
vt 0.581512 0.110257
vt 0.557924 0.086749
vt 0.535058 0.190682
vt 0.502878 0.182121
vt 0.535047 0.283556
vt 0.502896 0.292229
vt 0.581458 0.364018
vt 0.557948 0.387604
vn -0.0000 0.6199 -0.7847
vn -0.0000 0.8671 0.4982
vn 0.3786 0.7675 0.5174
vn 0.3786 0.5203 -0.7655
vn 0.6557 0.4953 0.5698
vn 0.6557 0.2481 -0.7131
vn 0.7572 0.1236 0.6414
vn 0.7572 -0.1236 -0.6414
vn 0.6557 -0.2481 0.7131
vn 0.6557 -0.4953 -0.5698
vn 0.3786 -0.5203 0.7655
vn 0.3786 -0.7675 -0.5174
vn 0.0000 -0.6199 0.7847
vn -0.0000 -0.8671 -0.4982
vn -0.3786 -0.5203 0.7655
vn -0.3786 -0.7675 -0.5174
vn -0.6557 -0.2482 0.7131
vn -0.6557 -0.4953 -0.5698
vn -0.7572 0.1236 0.6414
vn -0.7572 -0.1236 -0.6414
vn -0.6557 0.4953 0.5698
vn -0.6557 0.2481 -0.7131
vn 0.6377 0.1457 0.7563
vn 0.5523 0.4588 0.6960
vn 0.5841 0.4708 0.6612
vn 0.6745 0.1397 0.7250
vn -0.3786 0.7675 0.5174
vn -0.3786 0.5203 -0.7655
vn -0.0000 -0.4805 0.8770
vn -0.3189 -0.3966 0.8608
vn -0.5523 -0.1674 0.8167
vn -0.6377 0.1457 0.7563
vn -0.5523 0.4588 0.6960
vn -0.3189 0.6881 0.6519
vn 0.0000 0.7719 0.6357
vn 0.3189 0.6881 0.6519
vn 0.5523 -0.1674 0.8167
vn 0.3189 -0.3966 0.8608
vn 0.0498 0.2730 0.9607
vn -0.0000 0.2861 0.9582
vn -0.0498 0.2730 0.9607
vn -0.0863 0.2372 0.9676
vn -0.0996 0.1883 0.9771
vn -0.0863 0.1394 0.9865
vn -0.0498 0.1035 0.9934
vn 0.0000 0.0904 0.9959
vn 0.0498 0.1035 0.9934
vn 0.0863 0.1394 0.9865
vn 0.0996 0.1883 0.9771
vn 0.0863 0.2372 0.9676
vn -0.3372 0.7133 0.6145
vn -0.0000 0.8020 0.5974
vn -0.5841 -0.1914 0.7888
vn -0.6745 0.1397 0.7250
vn 0.5841 -0.1914 0.7888
vn 0.3372 0.7133 0.6145
vn -0.5841 0.4708 0.6612
vn 0.3372 -0.4338 0.8355
vn 0.0000 -0.5226 0.8526
vn -0.3372 -0.4339 0.8355
vn 0.0000 0.4113 0.9115
vn 0.1157 0.3808 0.9174
vn 0.2004 0.2977 0.9334
vn 0.2314 0.1841 0.9553
vn 0.2004 0.0705 0.9772
vn 0.1157 -0.0127 0.9932
vn 0.0000 -0.0431 0.9991
vn -0.1157 -0.0127 0.9932
vn -0.2004 0.0705 0.9772
vn -0.2314 0.1841 0.9553
vn -0.2004 0.2977 0.9334
vn -0.1157 0.3808 0.9174
usemtl None
s 1
f 1/1/1 26/2/2 25/3/3 3/4/4
f 3/4/4 25/3/3 27/5/5 5/6/6
f 5/6/6 27/5/5 28/7/7 7/8/8
f 7/8/8 28/7/7 29/9/9 9/10/10
f 9/10/10 29/9/9 30/11/11 11/12/12
f 11/12/12 30/11/11 31/13/13 13/14/14
f 13/15/14 31/16/13 32/17/15 15/18/16
f 15/18/16 32/17/15 33/19/17 17/20/18
f 17/20/18 33/19/17 34/21/19 19/22/20
f 19/22/20 34/21/19 35/23/21 21/24/22
f 20/25/23 18/26/24 57/27/25 58/28/26
f 21/24/22 35/23/21 36/29/27 23/30/28
f 23/30/28 36/29/27 26/2/2 1/1/1
f 1/31/1 3/32/4 5/33/6 7/34/8 9/35/10 11/36/12 13/37/14 15/38/16 17/39/18 19/40/20 21/41/22 23/42/28
f 2/43/29 4/44/30 25/45/3 26/46/2
f 4/44/30 6/47/31 27/48/5 25/45/3
f 6/47/31 8/49/32 28/50/7 27/48/5
f 8/49/32 10/51/33 29/52/9 28/50/7
f 10/51/33 12/53/34 30/54/11 29/52/9
f 12/53/34 14/55/35 31/56/13 30/54/11
f 14/55/35 16/57/36 32/58/15 31/56/13
f 16/57/36 18/59/24 33/60/17 32/58/15
f 18/59/24 20/61/23 34/62/19 33/60/17
f 20/61/23 22/63/37 35/64/21 34/62/19
f 22/63/37 24/65/38 36/66/27 35/64/21
f 24/65/38 2/43/29 26/46/2 36/66/27
f 37/67/39 38/68/40 48/69/41 47/70/42 46/71/43 45/72/44 44/73/45 43/74/46 42/75/47 41/76/48 40/77/49 39/78/50
f 14/79/35 12/80/34 54/81/51 55/82/52
f 8/83/32 6/84/31 51/85/53 52/86/54
f 22/87/37 20/25/23 58/28/26 59/88/55
f 16/89/36 14/90/35 55/91/52 56/92/56
f 10/93/33 8/83/32 52/86/54 53/94/57
f 24/95/38 22/87/37 59/88/55 60/96/58
f 4/97/30 2/98/29 50/99/59 49/100/60
f 18/26/24 16/89/36 56/92/56 57/27/25
f 12/80/34 10/93/33 53/94/57 54/81/51
f 2/98/29 24/95/38 60/96/58 50/99/59
f 6/84/31 4/97/30 49/100/60 51/85/53
f 62/101/61 61/102/62 49/103/60 50/104/59
f 61/102/62 63/105/63 51/106/53 49/103/60
f 63/105/63 64/107/64 52/108/54 51/106/53
f 64/107/64 65/109/65 53/110/57 52/108/54
f 65/109/65 66/111/66 54/112/51 53/110/57
f 66/111/66 67/113/67 55/114/52 54/112/51
f 67/113/67 68/115/68 56/116/56 55/114/52
f 68/115/68 69/117/69 57/118/25 56/116/56
f 69/117/69 70/119/70 58/120/26 57/118/25
f 70/119/70 71/121/71 59/122/55 58/120/26
f 71/121/71 72/123/72 60/124/58 59/122/55
f 72/123/72 62/101/61 50/104/59 60/124/58
f 38/68/40 37/67/39 61/102/62 62/101/61
f 37/67/39 39/78/50 63/105/63 61/102/62
f 39/78/50 40/77/49 64/107/64 63/105/63
f 40/77/49 41/76/48 65/109/65 64/107/64
f 41/76/48 42/75/47 66/111/66 65/109/65
f 42/75/47 43/74/46 67/113/67 66/111/66
f 43/74/46 44/73/45 68/115/68 67/113/67
f 44/73/45 45/72/44 69/117/69 68/115/68
f 45/72/44 46/71/43 70/119/70 69/117/69
f 46/71/43 47/70/42 71/121/71 70/119/70
f 47/70/42 48/69/41 72/123/72 71/121/71
f 48/69/41 38/68/40 62/101/61 72/123/72
