# Blender v3.1.2 OBJ File: 'puzzle g.blend'
# www.blender.org
mtllib B_LivreOuvert.mtl
o B_LivreOuvert_B_LivreOuvert_Cube.001
v -0.161082 -0.027492 -0.016165
v -0.161082 -0.001694 -0.016165
v -0.161082 -0.001694 -0.262060
v -0.161082 -0.027492 -0.262060
v 0.000000 -0.027492 -0.242173
v 0.000000 -0.001694 -0.242173
v 0.161082 -0.001694 -0.262060
v 0.161082 -0.027492 -0.262060
v 0.161082 -0.027492 0.016165
v 0.161082 -0.001694 0.016165
v 0.161082 -0.001695 0.262060
v 0.161082 -0.027492 0.262060
v 0.000000 -0.027492 0.242173
v 0.000000 -0.001695 0.242173
v -0.161082 -0.001695 0.262060
v -0.161082 -0.027492 0.262060
v 0.000000 0.019303 0.045870
v -0.125507 0.019303 0.049636
v -0.125507 0.019303 0.228589
v 0.000000 0.019303 0.211242
v 0.000000 0.019303 -0.211243
v -0.125507 0.019303 -0.228589
v -0.125507 0.019303 -0.049636
v 0.000000 0.019303 -0.045869
v 0.000000 -0.001694 0.014939
v 0.161082 0.013992 0.009811
v 0.000000 0.013992 0.009067
v 0.161082 -0.001694 -0.016165
v 0.161082 -0.027492 -0.016165
v -0.161082 -0.001694 0.016165
v -0.161082 -0.027492 0.016165
v 0.000000 0.013992 -0.009068
v -0.161082 0.013992 -0.009812
v -0.161082 0.013992 0.009811
v 0.161082 0.013992 -0.009812
v 0.000000 -0.001694 -0.014939
v -0.147218 -0.001694 -0.029209
v -0.147218 -0.001694 -0.249016
v 0.000000 -0.001694 -0.230120
v 0.147218 -0.001694 -0.249016
v 0.147218 -0.001694 0.029208
v 0.147218 -0.001695 0.249016
v 0.000000 -0.001695 0.230120
v -0.147218 -0.001695 0.249016
v -0.147218 -0.001694 0.029208
v 0.147218 -0.001694 -0.029209
v 0.000000 -0.001694 -0.026993
v 0.000000 -0.001694 0.026992
v 0.125507 0.019303 -0.228589
v 0.125507 0.019303 0.049636
v 0.125507 0.019303 0.228589
v 0.125507 0.019303 -0.049636
vt 0.972240 0.855054
vt 0.987434 0.855054
vt 0.987434 0.999882
vt 0.972240 0.999882
vt 0.972241 0.095710
vt 0.987435 0.095710
vt 0.987435 0.191303
vt 0.972241 0.191303
vt 0.972240 0.355170
vt 0.987434 0.355170
vt 0.987434 0.499996
vt 0.972240 0.499996
vt 0.972240 0.595590
vt 0.987434 0.595590
vt 0.987434 0.691184
vt 0.972240 0.691184
vt 0.466088 0.908658
vt 0.250117 0.895825
vt 0.250606 0.593837
vt 0.469135 0.611926
vt 0.456084 0.396370
vt 0.214768 0.420105
vt 0.243944 0.092709
vt 0.466941 0.088881
vt 0.948854 0.501044
vt 0.951614 0.993389
vt 0.899887 0.993531
vt 0.897653 0.501044
vt 0.987434 0.336128
vt 0.972240 0.336128
vt 0.987434 0.836012
vt 0.972240 0.836012
vt 0.842193 0.501037
vt 0.839959 0.008550
vt 0.899886 0.008549
vt 0.996673 0.339870
vt 0.996673 0.351428
vt 0.996673 0.839754
vt 0.996673 0.851312
vt 0.790992 0.501037
vt 0.788233 0.008692
vt 0.192270 0.040479
vt 0.158310 0.451745
vt 0.130479 0.473925
vt 0.168162 0.015742
vt 0.456454 0.450762
vt 0.741414 0.470196
vt 0.766779 0.493087
vt 0.456771 0.473145
vt 0.734951 0.945670
vt 0.740775 0.545108
vt 0.766553 0.523079
vt 0.758960 0.968319
vt 0.469298 0.559139
vt 0.195007 0.542548
vt 0.170158 0.520520
vt 0.469374 0.538335
vt 0.200053 0.943065
vt 0.175043 0.965706
vt 0.740840 0.058551
vt 0.766779 0.035786
vt 0.468628 0.035546
vt 0.469326 0.014228
vt 0.465924 0.960603
vt 0.465847 0.981444
vt 0.684483 0.416505
vt 0.680756 0.896968
vt 0.689447 0.594961
vt 0.688799 0.106158
vt 0.173469 0.477414
vt 0.146042 0.501642
vt 0.788233 0.993390
vt 0.839960 0.993532
vt 0.951614 0.008691
vt 0.972241 0.000118
vt 0.987435 0.000118
vt 0.148390 0.763906
vt 0.148390 0.868725
vt 0.079724 0.860248
vt 0.011059 0.868725
vt 0.011059 0.763906
vt 0.011059 0.750125
vt 0.011059 0.645306
vt 0.079724 0.653783
vt 0.148390 0.645306
vt 0.148390 0.750125
vn -1.0000 0.0000 0.0000
vn -0.1225 0.0000 -0.9925
vn 1.0000 0.0000 0.0000
vn 0.1225 0.0000 0.9925
vn -0.0000 1.0000 0.0000
vn -0.0057 0.3631 0.9317
vn 0.0057 0.3631 -0.9317
vn -0.6952 0.7188 0.0000
vn -0.0999 0.6519 -0.7517
vn 0.6952 0.7188 0.0000
vn 0.0999 0.6519 0.7517
vn -0.0159 0.6876 0.7259
vn 0.0159 0.6876 -0.7259
vn -0.0159 0.6876 -0.7259
vn 0.0159 0.6876 0.7259
vn -0.0999 0.6519 0.7517
vn 0.0999 0.6519 -0.7517
vn -0.0057 0.3631 -0.9317
vn 0.0057 0.3631 0.9317
vn -0.1225 0.0000 0.9925
vn 0.1225 0.0000 -0.9925
vn 0.0000 -1.0000 -0.0000
usemtl None
s off
f 1/1/1 2/2/1 3/3/1 4/4/1
f 5/5/2 6/6/2 7/7/2 8/8/2
f 9/9/3 10/10/3 11/11/3 12/12/3
f 13/13/4 14/14/4 15/15/4 16/16/4
f 17/17/5 18/18/5 19/19/5 20/20/5
f 21/21/5 22/22/5 23/23/5 24/24/5
f 25/25/6 10/26/6 26/27/6 27/28/6
f 8/8/3 7/7/3 28/29/3 29/30/3
f 29/30/3 28/29/3 10/10/3 9/9/3
f 16/16/1 15/15/1 30/31/1 31/32/1
f 31/32/1 30/31/1 2/2/1 1/1/1
f 32/33/5 33/34/5 34/35/5 27/28/5
f 10/10/3 28/29/3 35/36/3 26/37/3
f 2/2/1 30/31/1 34/38/1 33/39/1
f 36/40/7 2/41/7 33/34/7 32/33/7
f 37/42/5 38/43/5 3/44/5 2/45/5
f 39/46/5 40/47/5 7/48/5 6/49/5
f 41/50/5 42/51/5 11/52/5 10/53/5
f 43/54/5 44/55/5 15/56/5 14/57/5
f 44/55/5 45/58/5 30/59/5 15/56/5
f 40/47/5 46/60/5 28/61/5 7/48/5
f 47/62/5 37/42/5 2/45/5 36/63/5
f 48/64/5 41/50/5 10/53/5 25/65/5
f 23/23/8 22/22/8 38/43/8 37/42/8
f 21/21/9 49/66/9 40/47/9 39/46/9
f 50/67/10 51/68/10 42/51/10 41/50/10
f 20/20/11 19/19/11 44/55/11 43/54/11
f 19/19/8 18/18/8 45/58/8 44/55/8
f 49/66/10 52/69/10 46/60/10 40/47/10
f 24/24/12 23/23/12 37/42/12 47/62/12
f 17/17/13 50/67/13 41/50/13 48/64/13
f 18/18/14 17/17/14 48/64/14 45/58/14
f 52/69/15 24/24/15 47/62/15 46/60/15
f 51/68/16 20/20/16 43/54/16 42/51/16
f 22/22/17 21/21/17 39/46/17 38/70/17
f 45/58/5 48/64/5 25/65/5 30/59/5
f 46/60/5 47/62/5 36/63/5 28/61/5
f 42/51/5 43/54/5 14/57/5 11/52/5
f 38/70/5 39/46/5 6/49/5 3/71/5
f 28/72/18 36/40/18 32/33/18 35/73/18
f 35/73/5 32/33/5 27/28/5 26/27/5
f 30/74/19 25/25/19 27/28/19 34/35/19
f 49/66/5 21/21/5 24/24/5 52/69/5
f 50/67/5 17/17/5 20/20/5 51/68/5
f 12/12/20 11/11/20 14/14/20 13/13/20
f 4/75/21 3/76/21 6/6/21 5/5/21
f 1/77/22 4/78/22 5/79/22 8/80/22 29/81/22 9/82/22 12/83/22 13/84/22 16/85/22 31/86/22
