# Blender v3.1.2 OBJ File: 'puzzle g.blend'
# www.blender.org
mtllib B_Miroir.mtl
o B_Miroir_Cube.045
v -0.076111 -0.004469 -0.081190
v -0.034050 0.164906 0.016510
v -0.076111 0.001538 -0.091603
v -0.034050 0.170913 0.006096
v 0.054495 -0.004469 -0.081190
v 0.012434 0.164906 0.016510
v 0.054495 0.001538 -0.091603
v 0.012434 0.170913 0.006096
v -0.020411 0.006761 0.058699
v -0.020411 -0.005014 0.049596
v 0.044625 0.028891 0.053387
v 0.048195 0.018331 0.043992
v 0.092235 0.089350 0.038873
v 0.098419 0.082109 0.028682
v 0.109661 0.171939 0.019047
v 0.116802 0.169231 0.007768
v 0.092235 0.254527 -0.000779
v 0.098419 0.256353 -0.013146
v 0.044625 0.314986 -0.015292
v 0.048195 0.320131 -0.028456
v -0.020411 0.337116 -0.020604
v -0.020411 0.343476 -0.034060
v -0.085448 0.314986 -0.015292
v -0.089018 0.320131 -0.028457
v -0.133058 0.254527 -0.000779
v -0.139241 0.256353 -0.013146
v -0.150484 0.171939 0.019047
v -0.157624 0.169231 0.007768
v -0.133058 0.089350 0.038873
v -0.139241 0.082109 0.028682
v -0.085448 0.028891 0.053387
v -0.089018 0.018331 0.043992
v -0.020411 -0.002306 0.060876
v 0.048195 0.021038 0.055272
v 0.098419 0.084816 0.039961
v 0.116802 0.171939 0.019047
v 0.098419 0.259061 -0.001867
v 0.048195 0.322839 -0.017177
v -0.020411 0.346183 -0.022781
v -0.089018 0.322839 -0.017177
v -0.139241 0.259061 -0.001867
v -0.157624 0.171939 0.019047
v -0.139241 0.084816 0.039961
v -0.089018 0.021038 0.055272
v -0.020411 0.029213 0.054796
v 0.035918 0.048380 0.050194
v 0.077154 0.100744 0.037624
v 0.092247 0.172276 0.020453
v 0.077154 0.243807 0.003281
v 0.035918 0.296172 -0.009289
v -0.020411 0.315339 -0.013890
v -0.076740 0.296172 -0.009289
v -0.117976 0.243807 0.003281
v -0.133070 0.172276 0.020453
v -0.117976 0.100745 0.037624
v -0.076741 0.048380 0.050194
v -0.020411 0.004416 0.048929
v 0.044625 0.026545 0.043617
v 0.092235 0.087005 0.029103
v 0.109661 0.169593 0.009277
v 0.092235 0.252182 -0.010548
v 0.044625 0.312641 -0.025062
v -0.020411 0.334771 -0.030374
v -0.085448 0.312641 -0.025062
v -0.133058 0.252182 -0.010548
v -0.150484 0.169593 0.009277
v -0.133058 0.087005 0.029103
v -0.085448 0.026545 0.043617
vt 0.461816 0.641949
vt 0.914066 0.661582
vt 0.912886 0.688766
vt 0.460635 0.669133
vt 0.930529 0.792484
vt 0.510208 0.960548
vt 0.940631 0.817749
vt 0.520310 0.985813
vt 0.536455 0.355926
vt 0.940631 0.559783
vt 0.985267 0.999725
vt 0.973522 0.999725
vt 0.973522 0.926125
vt 0.985267 0.926125
vt 0.973521 0.842475
vt 0.985267 0.842475
vt 0.973521 0.749860
vt 0.985267 0.749860
vt 0.973521 0.657246
vt 0.985267 0.657246
vt 0.973521 0.573597
vt 0.985267 0.573597
vt 0.973521 0.499998
vt 0.985267 0.499998
vt 0.973521 0.426399
vt 0.985267 0.426399
vt 0.973521 0.342750
vt 0.985267 0.342750
vt 0.973521 0.250137
vt 0.985267 0.250137
vt 0.973522 0.157523
vt 0.985267 0.157523
vt 0.823527 0.011200
vt 0.883563 0.003092
vt 0.935556 0.034186
vt 0.965574 0.096151
vt 0.965574 0.172383
vt 0.935556 0.242457
vt 0.883563 0.287595
vt 0.823527 0.295704
vt 0.771534 0.264610
vt 0.741515 0.202645
vt 0.741515 0.126412
vt 0.771533 0.056339
vt 0.973522 0.073875
vt 0.985267 0.073875
vt 0.973522 0.000275
vt 0.985267 0.000275
vt 0.995992 0.324929
vt 0.995992 0.404225
vt 0.985818 0.404225
vt 0.985818 0.324929
vt 0.260130 0.402193
vt 0.334548 0.446698
vt 0.332189 0.458194
vt 0.253686 0.411245
vt 0.217165 0.313501
vt 0.208362 0.317685
vt 0.217165 0.204388
vt 0.208363 0.202582
vt 0.260131 0.104091
vt 0.253687 0.096779
vt 0.334548 0.039485
vt 0.332189 0.028627
vt 0.420478 0.027879
vt 0.422836 0.016384
vt 0.494896 0.072384
vt 0.501339 0.063332
vt 0.537861 0.161075
vt 0.546663 0.156891
vt 0.537861 0.270187
vt 0.546663 0.271993
vt 0.494894 0.370488
vt 0.501338 0.377799
vt 0.420476 0.435096
vt 0.422834 0.445954
vt 0.280985 0.951433
vt 0.184738 0.937966
vt 0.102181 0.865566
vt 0.054333 0.752957
vt 0.053602 0.630523
vt 0.100976 0.531163
vt 0.183460 0.481292
vt 0.279032 0.494410
vt 0.362343 0.566595
vt 0.410697 0.679050
vt 0.411222 0.801406
vt 0.363982 0.900717
vt 0.995992 0.877946
vt 0.995992 0.947716
vt 0.985818 0.947716
vt 0.985818 0.877946
vt 0.995992 0.070045
vt 0.995992 0.149341
vt 0.985818 0.149341
vt 0.985818 0.070045
vt 0.995992 0.623061
vt 0.995992 0.710856
vt 0.985818 0.710856
vt 0.985818 0.623061
vt 0.995992 0.473995
vt 0.985818 0.473995
vt 0.995992 0.237135
vt 0.985818 0.237135
vt 0.995992 0.798650
vt 0.985818 0.798650
vt 0.995992 0.543765
vt 0.985818 0.543765
vt 0.995992 0.000275
vt 0.985818 0.000275
vt 0.287591 0.992957
vt 0.175032 0.976927
vt 0.077001 0.892252
vt 0.020114 0.760035
vt 0.019823 0.615956
vt 0.076578 0.498797
vt 0.174971 0.440224
vt 0.288531 0.454983
vt 0.387481 0.539704
vt 0.444933 0.671927
vt 0.444933 0.815974
vt 0.388381 0.932648
vt 0.291454 0.992175
vt 0.548896 0.312036
vt 0.945721 0.312036
vt 0.945721 0.348563
vt 0.548896 0.348563
vn -0.9776 0.1822 0.1051
vn 0.0000 0.4997 -0.8662
vn 0.9776 0.1822 0.1051
vn 0.0000 -0.4997 0.8662
vn 0.3303 -0.9178 0.2203
vn 0.7940 -0.5912 0.1419
vn 0.9796 -0.1954 0.0469
vn 0.9796 0.1954 -0.0469
vn 0.7940 0.5912 -0.1419
vn 0.3303 0.9178 -0.2203
vn -0.3303 0.9178 -0.2203
vn -0.7940 0.5912 -0.1419
vn -0.9796 0.1954 -0.0469
vn -0.9796 -0.1954 0.0469
vn 0.0000 -0.2334 -0.9724
vn -0.7940 -0.5912 0.1419
vn -0.3303 -0.9178 0.2203
vn 0.0000 0.2334 0.9724
vn 0.1559 -0.2274 0.9612
vn 0.4127 -0.1079 0.9045
vn 0.5473 0.0844 0.8327
vn 0.5473 0.3028 0.7802
vn 0.4127 0.5067 0.7569
vn 0.1559 0.6390 0.7533
vn -0.1559 0.6390 0.7533
vn -0.4127 0.5067 0.7569
vn -0.5473 0.3028 0.7802
vn -0.5473 0.0844 0.8327
vn -0.4127 -0.1079 0.9044
vn -0.1559 -0.2274 0.9612
vn 0.0000 -0.8662 -0.4997
usemtl None
s off
f 1/1/1 2/2/1 4/3/1 3/4/1
f 3/4/2 4/3/2 8/5/2 7/6/2
f 7/6/3 8/5/3 6/7/3 5/8/3
f 5/9/4 6/10/4 2/2/4 1/1/4
f 33/11/5 10/12/5 12/13/5 34/14/5
f 34/14/6 12/13/6 14/15/6 35/16/6
f 35/16/7 14/15/7 16/17/7 36/18/7
f 36/18/8 16/17/8 18/19/8 37/20/8
f 37/20/9 18/19/9 20/21/9 38/22/9
f 38/22/10 20/21/10 22/23/10 39/24/10
f 39/24/11 22/23/11 24/25/11 40/26/11
f 40/26/12 24/25/12 26/27/12 41/28/12
f 41/28/13 26/27/13 28/29/13 42/30/13
f 42/30/14 28/29/14 30/31/14 43/32/14
f 12/33/15 10/34/15 32/35/15 30/36/15 28/37/15 26/38/15 24/39/15 22/40/15 20/41/15 18/42/15 16/43/15 14/44/15
f 43/32/16 30/31/16 32/45/16 44/46/16
f 44/46/17 32/45/17 10/47/17 33/48/17
f 17/49/16 19/50/16 62/51/16 61/52/16
f 11/53/18 9/54/18 33/55/18 34/56/18
f 13/57/18 11/53/18 34/56/18 35/58/18
f 15/59/18 13/57/18 35/58/18 36/60/18
f 17/61/18 15/59/18 36/60/18 37/62/18
f 19/63/18 17/61/18 37/62/18 38/64/18
f 21/65/18 19/63/18 38/64/18 39/66/18
f 23/67/18 21/65/18 39/66/18 40/68/18
f 25/69/18 23/67/18 40/68/18 41/70/18
f 27/71/18 25/69/18 41/70/18 42/72/18
f 29/73/18 27/71/18 42/72/18 43/74/18
f 31/75/18 29/73/18 43/74/18 44/76/18
f 9/54/18 31/75/18 44/76/18 33/55/18
f 45/77/18 46/78/18 47/79/18 48/80/18 49/81/18 50/82/18 51/83/18 52/84/18 53/85/18 54/86/18 55/87/18 56/88/18
f 31/89/10 9/90/10 57/91/10 68/92/10
f 11/93/12 13/94/12 59/95/12 58/96/12
f 25/97/7 27/98/7 66/99/7 65/100/7
f 19/50/17 21/101/17 63/102/17 62/51/17
f 13/94/13 15/103/13 60/104/13 59/95/13
f 27/98/8 29/105/8 67/106/8 66/99/8
f 21/101/5 23/107/5 64/108/5 63/102/5
f 15/103/14 17/49/14 61/52/14 60/104/14
f 29/105/9 31/89/9 68/92/9 67/106/9
f 9/109/11 11/93/11 58/96/11 57/110/11
f 23/107/6 25/97/6 65/100/6 64/108/6
f 46/78/19 45/77/19 57/111/19 58/112/19
f 47/79/20 46/78/20 58/112/20 59/113/20
f 48/80/21 47/79/21 59/113/21 60/114/21
f 49/81/22 48/80/22 60/114/22 61/115/22
f 50/82/23 49/81/23 61/115/23 62/116/23
f 51/83/24 50/82/24 62/116/24 63/117/24
f 52/84/25 51/83/25 63/117/25 64/118/25
f 53/85/26 52/84/26 64/118/26 65/119/26
f 54/86/27 53/85/27 65/119/27 66/120/27
f 55/87/28 54/86/28 66/120/28 67/121/28
f 56/88/29 55/87/29 67/121/29 68/122/29
f 45/77/30 56/88/30 68/122/30 57/123/30
f 3/124/31 7/125/31 5/126/31 1/127/31
