# Blender v3.1.2 OBJ File: 'puzzle g.blend'
# www.blender.org
mtllib B_TableBasse.mtl
o B_TableBasse_Cube.025
v -0.276969 0.290805 0.221095
v -0.276969 0.333720 0.221095
v -0.276969 0.290805 -0.220290
v -0.276969 0.333720 -0.220290
v 0.220591 0.290805 0.221095
v 0.220591 0.333720 0.221095
v 0.220591 0.290805 -0.220290
v 0.220591 0.333720 -0.220290
v 0.176483 0.290805 -0.244323
v -0.232861 0.290805 -0.244323
v -0.232861 0.333720 -0.244323
v 0.176483 0.333720 -0.244323
v -0.232861 0.290805 0.245128
v 0.176483 0.290805 0.245128
v 0.176483 0.333720 0.245128
v -0.232861 0.333720 0.245128
v -0.290875 0.290805 -0.174245
v -0.290875 0.290805 0.175049
v -0.290875 0.333720 0.175049
v -0.290875 0.333720 -0.174245
v 0.234497 0.290805 0.175049
v 0.234497 0.290805 -0.174245
v 0.234497 0.333720 -0.174245
v 0.234497 0.333720 0.175049
v 0.187923 0.333720 -0.193264
v 0.187923 0.333720 0.194067
v -0.244302 0.333720 -0.193264
v -0.244302 0.333720 0.194067
v -0.244302 0.290805 -0.193264
v -0.244302 0.290805 0.194067
v 0.187923 0.290805 -0.193264
v 0.187923 0.290805 0.194067
v -0.232861 0.221715 -0.174245
v -0.232861 0.221715 0.175049
v 0.176483 0.221715 -0.174245
v 0.176483 0.221715 0.175049
v 0.141637 0.290805 -0.258894
v -0.198015 0.290805 -0.258894
v -0.198015 0.333720 -0.258894
v 0.141637 0.333720 -0.258894
v -0.198015 0.290805 0.259699
v 0.141637 0.290805 0.259699
v 0.141637 0.333720 0.259699
v -0.198015 0.333720 0.259699
v 0.141637 0.290805 -0.204795
v -0.198015 0.290805 -0.204795
v 0.141637 0.290805 0.205598
v -0.198015 0.290805 0.205598
v -0.207508 0.333720 -0.204795
v 0.151129 0.333720 -0.204795
v -0.207508 0.333720 0.205598
v 0.151129 0.333720 0.205598
v 0.141637 0.221715 -0.204795
v -0.198015 0.221715 -0.204795
v 0.141637 0.221715 0.205598
v -0.198015 0.221715 0.205598
v -0.293123 0.290805 -0.147515
v -0.293123 0.290805 0.148316
v -0.293123 0.333720 0.148316
v -0.293123 0.333720 -0.147515
v 0.236744 0.290805 0.148316
v 0.236744 0.290805 -0.147515
v 0.236744 0.333720 -0.147515
v 0.236744 0.333720 0.148316
v 0.189772 0.333720 -0.163623
v 0.189772 0.333720 0.164423
v -0.246151 0.333720 -0.163623
v -0.246151 0.333720 0.164423
v -0.246151 0.290805 -0.147515
v -0.246151 0.290805 0.148316
v 0.189772 0.290805 -0.147515
v 0.189772 0.290805 0.148316
v -0.246151 0.221715 -0.147515
v -0.246151 0.221715 0.148316
v 0.189772 0.221715 -0.147515
v 0.189772 0.221715 0.148316
v -0.198015 0.221715 -0.147515
v -0.198015 0.221715 0.148316
v 0.141637 0.221715 -0.147515
v 0.141637 0.221715 0.148316
v 0.152663 0.333720 -0.173389
v 0.152663 0.333720 0.174189
v -0.209042 0.333720 -0.173389
v -0.209042 0.333720 0.174189
v -0.232861 -0.002068 0.168636
v -0.232861 -0.002068 0.199041
v 0.176483 -0.002068 0.168636
v 0.176483 -0.002068 0.199041
v -0.198015 -0.002068 -0.198238
v -0.232861 -0.002068 -0.198238
v -0.198015 -0.002068 0.199041
v 0.176483 -0.002068 -0.198238
v 0.141637 -0.002068 -0.198238
v 0.141637 -0.002068 0.199041
v -0.198015 -0.002068 0.168636
v 0.141637 -0.002068 0.168636
v -0.232861 -0.002068 -0.167836
v 0.176483 -0.002068 -0.167836
v -0.198015 -0.002068 -0.167836
v 0.141637 -0.002068 -0.167836
v -0.030475 0.290805 -0.285623
v -0.030475 0.333720 -0.285623
v -0.030475 0.290805 0.286428
v -0.030475 0.333720 0.286428
v -0.030475 0.290805 -0.233216
v -0.030475 0.290805 0.234019
v -0.030603 0.333720 -0.233216
v -0.030603 0.333720 0.234019
v -0.030475 0.221715 -0.233216
v -0.030475 0.221715 0.234019
v -0.030624 0.333720 -0.202793
v -0.030624 0.333720 0.203593
v -0.030475 0.221715 -0.202793
v -0.030475 0.221715 0.203593
v -0.303319 0.290805 0.011739
v -0.303319 0.333720 0.011739
v 0.246941 0.290805 0.011739
v 0.246941 0.333720 0.011739
v 0.199318 0.333720 0.012974
v -0.255697 0.333720 0.012974
v -0.255697 0.290805 0.011739
v 0.199318 0.290805 0.011739
v -0.255697 0.221715 0.011739
v 0.199318 0.221715 0.011739
v -0.218074 0.221715 0.011739
v 0.161696 0.221715 0.011739
v 0.161696 0.333720 0.013722
v -0.218074 0.333720 0.013722
v -0.030475 0.221715 0.011739
v -0.030475 0.333720 0.011739
vt 0.059293 0.872418
vt 0.095746 0.870437
vt 0.097349 0.909409
vt 0.061229 0.911126
vt 0.628898 0.924864
vt 0.625643 0.888151
vt 0.663381 0.885829
vt 0.666007 0.921964
vt 0.666692 0.117202
vt 0.630240 0.119183
vt 0.628636 0.080210
vt 0.664756 0.078493
vt 0.097088 0.064755
vt 0.100343 0.101468
vt 0.062605 0.103790
vt 0.059979 0.067655
vt 0.933928 0.753428
vt 0.933927 0.747006
vt 0.940632 0.747005
vt 0.940633 0.753428
vt 0.102201 0.141321
vt 0.064290 0.143012
vt 0.592469 0.120632
vt 0.591050 0.081060
vt 0.132401 0.140191
vt 0.131469 0.099710
vt 0.933933 0.843318
vt 0.933933 0.836895
vt 0.940638 0.836895
vt 0.940638 0.843317
vt 0.933928 0.758503
vt 0.940633 0.758502
vt 0.628254 0.044046
vt 0.591085 0.044439
vt 0.126165 0.061385
vt 0.097731 0.945572
vt 0.134935 0.908558
vt 0.134900 0.945179
vt 0.599821 0.928234
vt 0.594517 0.889909
vt 0.802922 0.758510
vt 0.802921 0.753436
vt 0.809626 0.753436
vt 0.809627 0.758510
vt 0.715161 0.335904
vt 0.740810 0.335799
vt 0.741018 0.386652
vt 0.715369 0.386757
vt 0.802926 0.843326
vt 0.802925 0.836903
vt 0.809630 0.836902
vt 0.809631 0.843325
vt 0.930040 0.843318
vt 0.930040 0.836895
vt 0.165586 0.908131
vt 0.133517 0.868988
vt 0.163578 0.867707
vt 0.132875 0.163054
vt 0.103120 0.164310
vt 0.623785 0.848299
vt 0.661697 0.846608
vt 0.631255 0.142159
vt 0.593440 0.143546
vt 0.065135 0.166024
vt 0.802921 0.747013
vt 0.809626 0.747013
vt 0.930035 0.753429
vt 0.930035 0.747006
vt 0.699773 0.884470
vt 0.698315 0.845424
vt 0.668123 0.139673
vt 0.026213 0.105149
vt 0.027671 0.144196
vt 0.057863 0.849949
vt 0.094730 0.847463
vt 0.724580 0.064919
vt 0.744257 0.064838
vt 0.745266 0.311425
vt 0.725589 0.311506
vt 0.698723 0.014170
vt 0.724372 0.014065
vt 0.698931 0.065024
vt 0.771549 0.014029
vt 0.791226 0.014029
vt 0.791225 0.064883
vt 0.771549 0.064883
vt 0.834661 0.014029
vt 0.854335 0.014029
vt 0.854335 0.064883
vt 0.834661 0.064883
vt 0.816874 0.014029
vt 0.816874 0.064883
vt 0.936746 0.591427
vt 0.936746 0.714963
vt 0.903737 0.714963
vt 0.903737 0.591427
vt 0.760692 0.386572
vt 0.761702 0.633159
vt 0.742027 0.633239
vt 0.803508 0.925238
vt 0.813405 0.975058
vt 0.808137 0.974953
vt 0.797513 0.925118
vt 0.563788 0.144756
vt 0.562408 0.121913
vt 0.346401 0.117298
vt 0.345299 0.092012
vt 0.593585 0.849429
vt 0.382464 0.938293
vt 0.380687 0.897608
vt 0.879984 0.014029
vt 0.879984 0.064883
vt 0.936634 0.318603
vt 0.938734 0.442120
vt 0.905729 0.442681
vt 0.903630 0.319164
vt 0.802925 0.831829
vt 0.809630 0.831828
vt 0.793409 0.795170
vt 0.801041 0.795170
vt 0.164167 0.945516
vt 0.383677 0.973725
vt 0.560399 0.081487
vt 0.561818 0.044103
vt 0.342309 0.015894
vt 0.343522 0.051326
vt 0.933932 0.831821
vt 0.940637 0.831820
vt 0.942517 0.795161
vt 0.950149 0.795161
vt 0.162197 0.844866
vt 0.379585 0.872324
vt 0.362993 0.494811
vt 0.134305 0.505025
vt 0.593112 0.826568
vt 0.622867 0.825313
vt 0.623602 0.483210
vt 0.591681 0.484596
vt 0.988940 0.928957
vt 0.976326 0.978326
vt 0.971059 0.978220
vt 0.982945 0.928837
vt 0.893227 0.927037
vt 0.892152 0.980591
vt 0.826205 0.588471
vt 0.800557 0.588576
vt 0.799547 0.341989
vt 0.825196 0.341884
vt 0.894449 0.866071
vt 0.894300 0.873483
vt 0.815394 0.875855
vt 0.815532 0.868989
vt 0.744048 0.013985
vt 0.991683 0.198957
vt 0.991683 0.390418
vt 0.958674 0.390418
vt 0.958674 0.198957
vt 0.760484 0.335718
vt 0.956798 0.593970
vt 0.956798 0.402509
vt 0.989808 0.402509
vt 0.989808 0.593970
vt 0.854335 0.311472
vt 0.834660 0.311472
vt 0.892004 0.988004
vt 0.813267 0.981924
vt 0.028331 0.166871
vt 0.026213 0.509700
vt 0.062511 0.508160
vt 0.660852 0.823598
vt 0.697656 0.822751
vt 0.699773 0.479921
vt 0.663475 0.481462
vt 0.813518 0.747013
vt 0.813519 0.753436
vt 0.871776 0.750107
vt 0.871776 0.743172
vt 0.132546 0.846076
vt 0.102384 0.506412
vt 0.813522 0.836902
vt 0.813523 0.843325
vt 0.871782 0.847159
vt 0.871781 0.840224
vt 0.978315 0.879122
vt 0.973049 0.879016
vt 0.753895 0.986352
vt 0.719664 0.986492
vt 0.718316 0.657387
vt 0.752548 0.657247
vt 0.865701 0.338776
vt 0.885377 0.338696
vt 0.886387 0.585283
vt 0.866710 0.585364
vt 0.917840 0.008431
vt 0.934488 0.008431
vt 0.934488 0.168493
vt 0.917839 0.168493
vt 0.791225 0.311472
vt 0.771549 0.311472
vt 0.780156 0.986245
vt 0.778809 0.657140
vt 0.905069 0.008431
vt 0.905068 0.168493
vt 0.840052 0.338881
vt 0.841062 0.585469
vt 0.716379 0.633344
vt 0.879984 0.311472
vt 0.699941 0.311611
vt 0.780882 0.588656
vt 0.779872 0.342070
vt 0.816874 0.311472
vt 0.934535 0.195085
vt 0.901530 0.195646
vt 0.810127 0.875749
vt 0.936746 0.467892
vt 0.903737 0.467892
vt 0.970922 0.985086
vt 0.956799 0.785430
vt 0.989808 0.785430
vt 0.991683 0.007497
vt 0.958674 0.007497
vt 0.973187 0.872150
vt 0.895370 0.661084
vt 0.847307 0.661084
vt 0.847307 0.606001
vt 0.895370 0.606001
vt 0.833690 0.605386
vt 0.833690 0.660469
vt 0.785628 0.660469
vt 0.785628 0.605386
vt 0.892904 0.672240
vt 0.892904 0.727323
vt 0.844846 0.727323
vt 0.844846 0.672240
vt 0.834916 0.674086
vt 0.834916 0.729169
vt 0.786858 0.729169
vt 0.786858 0.674086
vn -0.9573 0.0000 -0.2891
vn 0.4785 0.0000 -0.8781
vn 0.9573 0.0000 0.2891
vn -0.4785 0.0000 0.8781
vn 0.0000 -1.0000 0.0000
vn 0.0000 1.0000 0.0000
vn 0.4785 0.0000 0.8781
vn -0.3858 0.0000 0.9226
vn -0.4785 0.0000 -0.8781
vn 0.3858 0.0000 -0.9226
vn 0.4546 -0.1583 -0.8765
vn 0.9573 0.0000 -0.2891
vn 0.9965 0.0000 0.0838
vn -0.9573 0.0000 0.2891
vn -0.9965 -0.0000 -0.0838
vn -0.9740 -0.0065 0.2265
vn -0.4546 -0.1583 0.8765
vn 0.9731 -0.1085 0.2032
vn -0.9731 -0.1085 -0.2032
vn 0.4546 -0.1583 0.8765
vn -0.1672 0.0000 0.9859
vn 0.9740 -0.0065 -0.2266
vn -0.4546 -0.1583 -0.8765
vn 0.1629 0.0000 -0.9866
vn -0.3858 0.0000 -0.9226
vn 0.1535 0.0000 -0.9882
vn 0.3858 0.0000 0.9226
vn -0.1575 0.0000 0.9875
vn -0.0000 -0.0904 0.9959
vn -0.9731 -0.1085 0.2032
vn -0.9982 0.0000 -0.0598
vn 0.9731 -0.1085 -0.2032
vn 0.9976 0.0000 0.0697
vn -0.9740 -0.0065 -0.2266
vn -0.9965 0.0000 0.0838
vn -0.9980 -0.0000 -0.0639
vn 0.9965 0.0000 -0.0838
vn 0.9972 -0.0000 0.0745
vn -0.0000 -0.0904 -0.9959
vn 1.0000 0.0000 0.0000
vn 0.9740 -0.0065 0.2265
vn -1.0000 0.0000 0.0000
vn 0.4012 0.0357 -0.9153
vn -0.4012 0.0357 -0.9153
vn -0.4012 0.0357 0.9153
vn 0.4012 0.0357 0.9153
vn 0.1535 0.0000 0.9882
vn -0.1575 0.0000 -0.9875
vn -0.1672 0.0000 -0.9859
vn 0.1629 0.0000 0.9866
vn 0.9980 0.0000 -0.0639
vn -0.9972 0.0000 0.0745
vn 0.9982 0.0000 -0.0598
vn -0.9976 0.0000 0.0697
usemtl None
s off
f 17/1/1 20/2/1 4/3/1 3/4/1
f 9/5/2 12/6/2 8/7/2 7/8/2
f 21/9/3 24/10/3 6/11/3 5/12/3
f 13/13/4 16/14/4 2/15/4 1/16/4
f 32/17/5 21/18/5 5/19/5 14/20/5
f 28/21/6 19/22/6 2/15/6 16/14/6
f 24/10/6 26/23/6 15/24/6 6/11/6
f 51/25/6 28/21/6 16/14/6 44/26/6
f 18/27/5 30/28/5 13/29/5 1/30/5
f 47/31/5 32/17/5 14/20/5 42/32/5
f 5/33/7 6/11/7 15/24/7 14/34/7
f 41/35/8 44/26/8 16/14/8 13/13/8
f 3/36/9 4/3/9 11/37/9 10/38/9
f 37/39/10 40/40/10 12/6/10 9/5/10
f 37/41/5 9/42/5 31/43/5 45/44/5
f 45/45/11 31/46/11 35/47/11 53/48/11
f 3/49/5 10/50/5 29/51/5 17/52/5
f 58/53/5 70/54/5 30/28/5 18/27/5
f 39/55/6 11/37/6 27/56/6 49/57/6
f 84/58/6 68/59/6 28/21/6 51/25/6
f 8/7/6 12/6/6 25/60/6 23/61/6
f 64/62/6 66/63/6 26/23/6 24/10/6
f 11/37/6 4/3/6 20/2/6 27/56/6
f 68/59/6 59/64/6 19/22/6 28/21/6
f 9/42/5 7/65/5 22/66/5 31/43/5
f 72/67/5 61/68/5 21/18/5 32/17/5
f 7/69/12 8/7/12 23/61/12 22/70/12
f 61/71/13 64/62/13 24/10/13 21/9/13
f 1/72/14 2/15/14 19/22/14 18/73/14
f 57/74/15 60/75/15 20/2/15 17/1/15
f 34/76/16 74/77/16 85/78/16 86/79/16
f 48/80/17 30/81/17 34/76/17 56/82/17
f 72/83/18 32/84/18 36/85/18 76/86/18
f 69/87/19 29/88/19 33/89/19 73/90/19
f 32/84/20 47/91/20 55/92/20 36/85/20
f 106/93/21 48/94/21 56/95/21 110/96/21
f 35/47/22 75/97/22 98/98/22 92/99/22
f 114/100/5 80/101/5 55/102/5 110/103/5
f 66/63/6 82/104/6 52/105/6 26/23/6
f 112/106/6 84/58/6 51/25/6 108/107/6
f 12/6/6 40/40/6 50/108/6 25/60/6
f 102/109/6 39/55/6 49/57/6 107/110/6
f 29/88/23 46/111/23 54/112/23 33/89/23
f 105/113/24 45/114/24 53/115/24 109/116/24
f 10/50/5 38/117/5 46/118/5 29/51/5
f 101/119/5 37/41/5 45/44/5 105/120/5
f 10/38/25 11/37/25 39/55/25 38/121/25
f 101/122/26 102/109/26 40/40/26 37/39/26
f 14/34/27 15/24/27 43/123/27 42/124/27
f 103/125/28 104/126/28 44/26/28 41/35/28
f 30/28/5 48/127/5 41/128/5 13/29/5
f 106/129/5 47/31/5 42/32/5 103/130/5
f 26/23/6 52/105/6 43/123/6 15/24/6
f 108/107/6 51/25/6 44/26/6 104/126/6
f 107/110/6 49/57/6 83/131/6 111/132/6
f 130/133/6 128/134/6 84/58/6 112/106/6
f 25/60/6 50/108/6 81/135/6 65/136/6
f 119/137/6 127/138/6 82/104/6 66/63/6
f 109/139/5 53/140/5 79/141/5 113/142/5
f 129/143/5 126/144/5 80/101/5 114/100/5
f 75/145/29 79/146/29 100/147/29 98/148/29
f 123/149/5 125/150/5 78/151/5 74/152/5
f 30/81/30 70/153/30 74/77/30 34/76/30
f 121/154/31 69/155/31 73/156/31 123/157/31
f 31/46/32 71/158/32 75/97/32 35/47/32
f 122/159/33 72/160/33 76/161/33 124/162/33
f 73/90/34 33/89/34 90/163/34 97/164/34
f 126/144/5 124/165/5 76/166/5 80/101/5
f 18/73/35 19/22/35 59/64/35 58/167/35
f 115/168/36 116/169/36 60/75/36 57/74/36
f 22/70/37 23/61/37 63/170/37 62/171/37
f 117/172/38 118/173/38 64/62/38 61/71/38
f 31/43/5 22/66/5 62/174/5 71/175/5
f 122/176/5 117/177/5 61/68/5 72/67/5
f 27/56/6 20/2/6 60/75/6 67/178/6
f 120/179/6 116/169/6 59/64/6 68/59/6
f 23/61/6 25/60/6 65/136/6 63/170/6
f 118/173/6 119/137/6 66/63/6 64/62/6
f 49/57/6 27/56/6 67/178/6 83/131/6
f 128/134/6 120/179/6 68/59/6 84/58/6
f 17/52/5 29/51/5 69/180/5 57/181/5
f 115/182/5 121/183/5 70/54/5 58/53/5
f 50/108/6 107/110/6 111/132/6 81/135/6
f 127/138/6 130/133/6 112/106/6 82/104/6
f 54/184/5 109/139/5 113/142/5 77/185/5
f 125/150/5 129/143/5 114/100/5 78/151/5
f 80/186/39 76/187/39 87/188/39 96/189/39
f 78/190/40 56/191/40 91/192/40 95/193/40
f 77/194/29 73/195/29 97/196/29 99/197/29
f 76/86/41 36/85/41 88/198/41 87/199/41
f 55/200/42 80/186/42 96/189/42 94/201/42
f 54/202/40 77/194/40 99/197/40 89/203/40
f 74/204/39 78/190/39 95/193/39 85/205/39
f 53/48/43 35/47/43 92/99/43 93/206/43
f 33/89/44 54/112/44 89/207/44 90/163/44
f 56/82/45 34/76/45 86/79/45 91/208/45
f 79/146/42 53/209/42 93/210/42 100/147/42
f 36/85/46 55/92/46 94/211/46 88/198/46
f 52/105/6 108/107/6 104/126/6 43/123/6
f 48/127/5 106/129/5 103/130/5 41/128/5
f 42/124/47 43/123/47 104/126/47 103/125/47
f 38/121/48 39/55/48 102/109/48 101/122/48
f 38/117/5 101/119/5 105/120/5 46/118/5
f 46/212/49 105/113/49 109/116/49 54/213/49
f 40/40/6 102/109/6 107/110/6 50/108/6
f 82/104/6 112/106/6 108/107/6 52/105/6
f 78/151/5 114/100/5 110/103/5 56/214/5
f 47/215/50 106/93/50 110/96/50 55/216/50
f 77/185/5 113/142/5 129/143/5 125/150/5
f 81/135/6 111/132/6 130/133/6 127/138/6
f 57/181/5 69/180/5 121/183/5 115/182/5
f 83/131/6 67/178/6 120/179/6 128/134/6
f 63/170/6 65/136/6 119/137/6 118/173/6
f 67/178/6 60/75/6 116/169/6 120/179/6
f 71/175/5 62/174/5 117/177/5 122/176/5
f 62/171/51 63/170/51 118/173/51 117/172/51
f 58/167/52 59/64/52 116/169/52 115/168/52
f 79/141/5 75/217/5 124/165/5 126/144/5
f 71/218/53 122/159/53 124/162/53 75/219/53
f 70/220/54 121/154/54 123/157/54 74/221/54
f 73/222/5 77/185/5 125/150/5 123/149/5
f 113/142/5 79/141/5 126/144/5 129/143/5
f 65/136/6 81/135/6 127/138/6 119/137/6
f 111/132/6 83/131/6 128/134/6 130/133/6
f 86/223/5 85/224/5 95/225/5 91/226/5
f 88/227/5 94/228/5 96/229/5 87/230/5
f 90/231/5 89/232/5 99/233/5 97/234/5
f 93/235/5 92/236/5 98/237/5 100/238/5
