# Blender v3.1.2 OBJ File: 'puzzle g.blend'
# www.blender.org
mtllib S_Biere.mtl
o S_Biere_Cylinder.021
v 0.000000 -0.199717 -0.047316
v 0.000000 0.089826 -0.011115
v 0.023658 -0.199717 -0.040977
v 0.005558 0.089826 -0.009626
v 0.040977 -0.199717 -0.023658
v 0.009626 0.089826 -0.005558
v 0.047316 -0.199717 -0.000000
v 0.011115 0.089826 -0.000000
v 0.040977 -0.199717 0.023658
v 0.009626 0.089826 0.005558
v 0.023658 -0.199717 0.040977
v 0.005558 0.089826 0.009626
v 0.000000 -0.199717 0.047316
v 0.000000 0.089826 0.011115
v -0.023658 -0.199717 0.040977
v -0.005558 0.089826 0.009626
v -0.040977 -0.199717 0.023658
v -0.009626 0.089826 0.005558
v -0.047316 -0.199717 0.000000
v -0.011115 0.089826 -0.000000
v -0.040977 -0.199717 -0.023658
v -0.009626 0.089826 -0.005558
v -0.023658 -0.199717 -0.040977
v -0.005558 0.089826 -0.009626
v 0.009724 0.025434 -0.016842
v 0.000000 0.025434 -0.019447
v 0.016842 0.025434 -0.009724
v 0.019447 0.025434 -0.000000
v 0.016842 0.025434 0.009724
v 0.009724 0.025434 0.016842
v 0.000000 0.025434 0.019447
v -0.009724 0.025434 0.016842
v -0.016842 0.025434 0.009724
v -0.019447 0.025434 0.000000
v -0.016842 0.025434 -0.009724
v -0.009724 0.025434 -0.016842
v 0.000000 0.015616 -0.024363
v 0.000000 -0.017949 -0.043372
v 0.000000 -0.001644 -0.036106
v 0.021686 -0.017949 -0.037561
v 0.012181 0.015616 -0.021099
v 0.018053 -0.001644 -0.031269
v 0.037561 -0.017949 -0.021686
v 0.021099 0.015616 -0.012181
v 0.031269 -0.001644 -0.018053
v 0.043372 -0.017949 -0.000000
v 0.024363 0.015616 -0.000000
v 0.036106 -0.001644 -0.000000
v 0.037561 -0.017949 0.021686
v 0.021099 0.015616 0.012181
v 0.031269 -0.001644 0.018053
v 0.021686 -0.017949 0.037561
v 0.012181 0.015616 0.021099
v 0.018053 -0.001644 0.031269
v 0.000000 -0.017949 0.043372
v 0.000000 0.015616 0.024363
v 0.000000 -0.001644 0.036106
v -0.021686 -0.017949 0.037561
v -0.012181 0.015616 0.021099
v -0.018053 -0.001644 0.031269
v -0.037561 -0.017949 0.021686
v -0.021099 0.015616 0.012181
v -0.031268 -0.001644 0.018053
v -0.043372 -0.017949 0.000000
v -0.024363 0.015616 0.000000
v -0.036106 -0.001644 0.000000
v -0.037561 -0.017949 -0.021686
v -0.021099 0.015616 -0.012181
v -0.031269 -0.001644 -0.018053
v -0.021686 -0.017949 -0.037561
v -0.012181 0.015616 -0.021099
v -0.018053 -0.001644 -0.031268
v 0.008470 0.089826 -0.014671
v 0.000000 0.089826 -0.016940
v 0.014671 0.089826 -0.008470
v 0.016940 0.089826 -0.000000
v 0.014671 0.089826 0.008470
v 0.008470 0.089826 0.014671
v 0.000000 0.089826 0.016940
v -0.008470 0.089826 0.014671
v -0.014671 0.089826 0.008470
v -0.016940 0.089826 0.000000
v -0.014671 0.089826 -0.008470
v -0.008470 0.089826 -0.014671
v 0.005558 0.070102 -0.009626
v -0.000000 0.070102 -0.011115
v 0.009626 0.070102 -0.005558
v 0.011115 0.070102 -0.000000
v 0.009626 0.070102 0.005558
v 0.005558 0.070102 0.009626
v -0.000000 0.070102 0.011115
v -0.005558 0.070102 0.009626
v -0.009626 0.070102 0.005558
v -0.011115 0.070102 -0.000000
v -0.009626 0.070102 -0.005558
v -0.005558 0.070102 -0.009626
v 0.022494 -0.025195 -0.038962
v 0.023658 -0.046298 -0.040977
v 0.000000 -0.046298 -0.047316
v 0.000000 -0.025195 -0.044989
v 0.038962 -0.025195 -0.022494
v 0.040977 -0.046298 -0.023658
v 0.044989 -0.025195 -0.000000
v 0.047316 -0.046298 -0.000000
v 0.038962 -0.025195 0.022494
v 0.040977 -0.046298 0.023658
v 0.022494 -0.025195 0.038961
v 0.023658 -0.046298 0.040977
v 0.000000 -0.025195 0.044989
v 0.000000 -0.046298 0.047316
v -0.022494 -0.025195 0.038962
v -0.023658 -0.046298 0.040977
v -0.038961 -0.025195 0.022494
v -0.040977 -0.046298 0.023658
v -0.044989 -0.025195 0.000000
v -0.047316 -0.046298 0.000000
v -0.038962 -0.025195 -0.022494
v -0.040977 -0.046298 -0.023658
v -0.022494 -0.025195 -0.038961
v -0.023658 -0.046298 -0.040977
vt 0.006925 0.076117
vt 0.479771 0.087131
vt 0.477332 0.161904
vt 0.005231 0.152527
vt 0.665061 0.046995
vt 0.634335 0.085285
vt 0.620728 0.076062
vt 0.652937 0.035650
vt 0.609813 0.127753
vt 0.595038 0.120542
vt 0.591079 0.173417
vt 0.575395 0.168098
vt 0.577866 0.221562
vt 0.561471 0.218058
vt 0.570072 0.271749
vt 0.553046 0.270078
vt 0.567970 0.323694
vt 0.550394 0.324020
vt 0.572249 0.377028
vt 0.554274 0.379660
vt 0.583964 0.431041
vt 0.565917 0.436387
vt 0.604319 0.484430
vt 0.586774 0.492853
vt 0.991770 0.905033
vt 0.991770 0.947419
vt 0.797332 0.947419
vt 0.797332 0.905033
vt 0.634106 0.535292
vt 0.617816 0.546769
vt 0.673368 0.582218
vt 0.658419 0.596027
vt 0.001463 0.843155
vt 0.478595 0.837432
vt 0.481800 0.914192
vt 0.002338 0.920281
vt 0.763823 0.134407
vt 0.752752 0.160368
vt 0.711743 0.136774
vt 0.730543 0.108572
vt 0.743344 0.189049
vt 0.696456 0.169009
vt 0.736033 0.219869
vt 0.684783 0.204227
vt 0.731170 0.252246
vt 0.676863 0.241615
vt 0.729022 0.285590
vt 0.672869 0.280473
vt 0.729779 0.319290
vt 0.673026 0.320122
vt 0.733545 0.352683
vt 0.677599 0.359823
vt 0.740313 0.385033
vt 0.686871 0.398703
vt 0.749917 0.415517
vt 0.701120 0.435709
vt 0.761985 0.443186
vt 0.720707 0.469602
vt 0.775504 0.466874
vt 0.746894 0.498930
vt 0.999709 0.151876
vt 0.995778 0.174673
vt 0.775875 0.111826
vt 0.992482 0.196576
vt 0.989786 0.218767
vt 0.987769 0.241227
vt 0.986498 0.263903
vt 0.986019 0.286725
vt 0.986357 0.309611
vt 0.987518 0.332469
vt 0.989484 0.355204
vt 0.992215 0.377724
vt 0.995650 0.399951
vt 0.999709 0.421840
vt 0.008715 0.000291
vt 0.483685 0.011501
vt 0.000813 0.766104
vt 0.476569 0.761637
vt 0.000418 0.689135
vt 0.475284 0.686250
vt 0.000291 0.612246
vt 0.474502 0.611053
vt 0.000437 0.535437
vt 0.474102 0.535966
vt 0.000858 0.458707
vt 0.474029 0.460970
vt 0.001554 0.382054
vt 0.474267 0.386065
vt 0.002520 0.305477
vt 0.474836 0.311258
vt 0.003751 0.228972
vt 0.475803 0.236551
vt 0.672620 0.506745
vt 0.708060 0.545927
vt 0.646254 0.463340
vt 0.627836 0.417203
vt 0.616626 0.369786
vt 0.611851 0.322262
vt 0.612822 0.275471
vt 0.619040 0.230028
vt 0.630240 0.186471
vt 0.646368 0.145420
vt 0.667506 0.107677
vt 0.693861 0.074264
vt 0.702429 0.013471
vt 0.725781 0.046408
vt 0.752646 0.085947
vt 0.726488 0.828168
vt 0.693150 0.808920
vt 0.703236 0.771276
vt 0.754045 0.800610
vt 0.654654 0.808920
vt 0.644567 0.771276
vt 0.621316 0.828168
vt 0.593758 0.800611
vt 0.602068 0.861507
vt 0.564424 0.851420
vt 0.602068 0.900002
vt 0.564424 0.910089
vt 0.621316 0.933341
vt 0.593758 0.960898
vt 0.654654 0.952588
vt 0.644567 0.990233
vt 0.693150 0.952588
vt 0.703237 0.990233
vt 0.726488 0.933341
vt 0.754046 0.960898
vt 0.745736 0.900002
vt 0.783381 0.910089
vt 0.745736 0.861507
vt 0.783381 0.851420
vt 0.651425 0.618824
vt 0.688131 0.597631
vt 0.730517 0.597631
vt 0.767224 0.618824
vt 0.788416 0.655531
vt 0.788416 0.697916
vt 0.767224 0.734623
vt 0.730517 0.755816
vt 0.688131 0.755816
vt 0.651425 0.734623
vt 0.630232 0.697916
vt 0.630232 0.655531
vt 0.991770 0.608335
vt 0.991769 0.650721
vt 0.797332 0.650720
vt 0.797332 0.608335
vt 0.991770 0.735492
vt 0.991770 0.777877
vt 0.797332 0.777877
vt 0.797332 0.735491
vt 0.991769 0.862648
vt 0.797332 0.862648
vt 0.991770 0.565950
vt 0.797332 0.565950
vt 0.991769 0.693106
vt 0.797332 0.693106
vt 0.991769 0.820262
vt 0.797332 0.820262
vt 0.991770 0.523564
vt 0.797332 0.523564
vt 0.991769 0.989804
vt 0.797332 0.989804
vt 0.991769 0.481179
vt 0.797332 0.481179
vt 0.549812 0.017383
vt 0.545422 0.090074
vt 0.543191 0.163516
vt 0.541922 0.237481
vt 0.541160 0.311777
vt 0.540737 0.386279
vt 0.540601 0.460914
vt 0.540745 0.535634
vt 0.541197 0.610400
vt 0.542027 0.685167
vt 0.543403 0.759878
vt 0.545715 0.834473
vt 0.549812 0.908960
vt 0.691801 0.000291
vt 0.879972 0.023266
vt 0.906826 0.007762
vt 0.937835 0.007762
vt 0.964690 0.023266
vt 0.980194 0.050121
vt 0.980194 0.081130
vt 0.964690 0.107984
vt 0.937835 0.123489
vt 0.906826 0.123489
vt 0.879972 0.107984
vt 0.864467 0.081130
vt 0.864467 0.050121
vn 0.3786 -0.6532 -0.6557
vn 0.4993 0.0544 -0.8647
vn 0.8647 0.0544 -0.4993
vn 0.6557 -0.6532 -0.3786
vn 0.4755 0.3092 -0.8236
vn 0.8236 0.3092 -0.4755
vn 0.8545 0.1625 -0.4934
vn 0.4934 0.1625 -0.8545
vn 0.9510 0.3092 0.0000
vn 0.9867 0.1625 0.0000
vn 0.8236 0.3092 0.4755
vn 0.8545 0.1625 0.4934
vn 0.4755 0.3092 0.8236
vn 0.4934 0.1625 0.8545
vn 0.0000 0.3092 0.9510
vn 0.0000 0.1625 0.9867
vn -0.4755 0.3092 0.8236
vn -0.4934 0.1625 0.8545
vn -0.8236 0.3092 0.4755
vn -0.8545 0.1625 0.4934
vn -0.9510 0.3092 0.0000
vn -0.9867 0.1625 0.0000
vn -0.8236 0.3092 -0.4755
vn -0.8545 0.1625 -0.4934
vn -0.5523 0.7703 0.3189
vn -0.3189 0.7703 0.5523
vn -0.3786 0.6532 0.6557
vn -0.6557 0.6532 0.3786
vn -0.4755 0.3092 -0.8236
vn -0.4934 0.1625 -0.8545
vn -0.0000 0.3092 -0.9510
vn -0.0000 0.1625 -0.9867
vn -0.3786 -0.6532 -0.6557
vn -0.4993 0.0544 -0.8647
vn -0.0000 0.0544 -0.9985
vn -0.0000 -0.6532 -0.7572
vn 0.4831 0.2577 -0.8368
vn 0.8368 0.2577 -0.4831
vn 0.7444 0.5111 -0.4298
vn 0.4298 0.5111 -0.7444
vn 0.9662 0.2577 -0.0000
vn 0.8595 0.5111 0.0000
vn 0.8368 0.2577 0.4831
vn 0.7444 0.5111 0.4298
vn 0.4831 0.2577 0.8368
vn 0.4298 0.5111 0.7444
vn -0.0000 0.2577 0.9662
vn -0.0000 0.5111 0.8595
vn -0.4831 0.2577 0.8368
vn -0.4298 0.5111 0.7444
vn -0.8368 0.2577 0.4831
vn -0.7444 0.5111 0.4298
vn -0.9662 0.2577 0.0000
vn -0.8595 0.5111 0.0000
vn -0.8368 0.2577 -0.4831
vn -0.7444 0.5111 -0.4298
vn -0.4831 0.2577 -0.8368
vn -0.4298 0.5111 -0.7444
vn -0.0000 0.2577 -0.9662
vn -0.0000 0.5111 -0.8595
vn -0.0000 0.6676 -0.7445
vn 0.3722 0.6676 -0.6447
vn 0.6447 0.6676 -0.3722
vn 0.7445 0.6676 0.0000
vn 0.6447 0.6676 0.3722
vn 0.3722 0.6676 0.6447
vn -0.0000 0.6676 0.7445
vn -0.3722 0.6676 0.6447
vn -0.6447 0.6676 0.3722
vn -0.7445 0.6676 0.0000
vn -0.6447 0.6676 -0.3722
vn -0.3722 0.6676 -0.6447
vn -0.6557 -0.6532 -0.3786
vn -0.8647 0.0544 -0.4993
vn -0.7572 -0.6532 0.0000
vn -0.9985 0.0544 0.0000
vn -0.6557 -0.6532 0.3786
vn -0.8647 0.0544 0.4993
vn -0.3786 -0.6532 0.6557
vn -0.4993 0.0544 0.8647
vn 0.0000 -0.6532 0.7572
vn 0.0000 0.0544 0.9985
vn 0.3786 -0.6532 0.6557
vn 0.4993 0.0544 0.8647
vn 0.6557 -0.6532 0.3786
vn 0.8647 0.0544 0.4993
vn 0.7572 -0.6532 0.0000
vn 0.9985 0.0544 0.0000
vn -0.4385 0.4806 -0.7595
vn -0.0000 0.4806 -0.8770
vn -0.7595 0.4806 -0.4385
vn -0.8770 0.4806 0.0000
vn -0.7595 0.4806 0.4385
vn -0.4385 0.4806 0.7595
vn 0.0000 0.4806 0.8770
vn 0.4385 0.4806 0.7595
vn 0.7595 0.4806 0.4385
vn 0.8770 0.4806 0.0000
vn 0.7595 0.4806 -0.4385
vn 0.4385 0.4806 -0.7595
vn 0.0000 0.7703 0.6377
vn -0.6377 0.7703 0.0000
vn -0.5523 0.7703 -0.3189
vn -0.3189 0.7703 -0.5523
vn 0.0000 0.7703 -0.6377
vn 0.3189 0.7703 -0.5523
vn 0.5523 0.7703 -0.3189
vn 0.6377 0.7703 -0.0000
vn 0.5523 0.7703 0.3189
vn 0.3189 0.7703 0.5523
vn 0.0000 0.6532 0.7572
vn 0.3786 0.6532 0.6557
vn 0.6557 0.6532 0.3786
vn 0.7572 0.6532 -0.0000
vn 0.6557 0.6532 -0.3786
vn 0.3786 0.6532 -0.6557
vn 0.0000 0.6532 -0.7572
vn -0.3786 0.6532 -0.6557
vn -0.6557 0.6532 -0.3786
vn -0.7572 0.6532 -0.0000
usemtl None
s 1
f 3/1/1 98/2/2 102/3/3 5/4/4
f 40/5/5 43/6/6 101/7/7 97/8/8
f 43/6/6 46/9/9 103/10/10 101/7/7
f 46/9/9 49/11/11 105/12/12 103/10/10
f 49/11/11 52/13/13 107/14/14 105/12/12
f 52/13/13 55/15/15 109/16/16 107/14/14
f 55/15/15 58/17/17 111/18/18 109/16/16
f 58/17/17 61/19/19 113/20/20 111/18/18
f 61/19/19 64/21/21 115/22/22 113/20/20
f 64/21/21 67/23/23 117/24/24 115/22/22
f 6/25/25 4/26/26 85/27/27 87/28/28
f 67/23/23 70/29/29 119/30/30 117/24/24
f 70/29/29 38/31/31 100/32/32 119/30/30
f 23/33/33 120/34/34 99/35/35 1/36/36
f 25/37/37 27/38/38 44/39/39 41/40/40
f 27/38/38 28/41/41 47/42/42 44/39/39
f 28/41/41 29/43/43 50/44/44 47/42/42
f 29/43/43 30/45/45 53/46/46 50/44/44
f 30/45/45 31/47/47 56/48/48 53/46/46
f 31/47/47 32/49/49 59/50/50 56/48/48
f 32/49/49 33/51/51 62/52/52 59/50/50
f 33/51/51 34/53/53 65/54/54 62/52/52
f 34/53/53 35/55/55 68/56/56 65/54/54
f 35/55/55 36/57/57 71/58/58 68/56/56
f 36/57/57 26/59/59 37/60/60 71/58/58
f 74/61/61 73/62/62 25/37/37 26/63/59
f 73/62/62 75/64/63 27/38/38 25/37/37
f 75/64/63 76/65/64 28/41/41 27/38/38
f 76/65/64 77/66/65 29/43/43 28/41/41
f 77/66/65 78/67/66 30/45/45 29/43/43
f 78/67/66 79/68/67 31/47/47 30/45/45
f 79/68/67 80/69/68 32/49/49 31/47/47
f 80/69/68 81/70/69 33/51/51 32/49/49
f 81/70/69 82/71/70 34/53/53 33/51/51
f 82/71/70 83/72/71 35/55/55 34/53/53
f 83/72/71 84/73/72 36/57/57 35/55/55
f 84/73/72 74/74/61 26/59/59 36/57/57
f 1/75/36 99/76/35 98/2/2 3/1/1
f 21/77/73 118/78/74 120/34/34 23/33/33
f 19/79/75 116/80/76 118/78/74 21/77/73
f 17/81/77 114/82/78 116/80/76 19/79/75
f 15/83/79 112/84/80 114/82/78 17/81/77
f 13/85/81 110/86/82 112/84/80 15/83/79
f 11/87/83 108/88/84 110/86/82 13/85/81
f 9/89/85 106/90/86 108/88/84 11/87/83
f 7/91/87 104/92/88 106/90/86 9/89/85
f 5/4/4 102/3/3 104/92/88 7/91/87
f 38/31/31 70/29/29 72/93/89 39/94/90
f 39/94/90 72/93/89 71/58/58 37/60/60
f 70/29/29 67/23/23 69/95/91 72/93/89
f 72/93/89 69/95/91 68/56/56 71/58/58
f 67/23/23 64/21/21 66/96/92 69/95/91
f 69/95/91 66/96/92 65/54/54 68/56/56
f 64/21/21 61/19/19 63/97/93 66/96/92
f 66/96/92 63/97/93 62/52/52 65/54/54
f 61/19/19 58/17/17 60/98/94 63/97/93
f 63/97/93 60/98/94 59/50/50 62/52/52
f 58/17/17 55/15/15 57/99/95 60/98/94
f 60/98/94 57/99/95 56/48/48 59/50/50
f 55/15/15 52/13/13 54/100/96 57/99/95
f 57/99/95 54/100/96 53/46/46 56/48/48
f 52/13/13 49/11/11 51/101/97 54/100/96
f 54/100/96 51/101/97 50/44/44 53/46/46
f 49/11/11 46/9/9 48/102/98 51/101/97
f 51/101/97 48/102/98 47/42/42 50/44/44
f 46/9/9 43/6/6 45/103/99 48/102/98
f 48/102/98 45/103/99 44/39/39 47/42/42
f 43/6/6 40/5/5 42/104/100 45/103/99
f 45/103/99 42/104/100 41/40/40 44/39/39
f 40/5/5 38/105/31 39/106/90 42/104/100
f 42/104/100 39/106/90 37/107/60 41/40/40
f 26/63/59 25/37/37 41/40/40 37/107/60
f 2/108/101 4/109/26 73/110/62 74/111/61
f 4/109/26 6/112/25 75/113/63 73/110/62
f 6/112/25 8/114/102 76/115/64 75/113/63
f 8/114/102 10/116/103 77/117/65 76/115/64
f 10/116/103 12/118/104 78/119/66 77/117/65
f 12/118/104 14/120/105 79/121/67 78/119/66
f 14/120/105 16/122/106 80/123/68 79/121/67
f 16/122/106 18/124/107 81/125/69 80/123/68
f 18/124/107 20/126/108 82/127/70 81/125/69
f 20/126/108 22/128/109 83/129/71 82/127/70
f 22/128/109 24/130/110 84/131/72 83/129/71
f 24/130/110 2/108/101 74/111/61 84/131/72
f 85/132/27 86/133/111 96/134/112 95/135/113 94/136/114 93/137/115 92/138/116 91/139/117 90/140/118 89/141/119 88/142/120 87/143/28
f 20/144/108 18/145/107 93/146/115 94/147/114
f 14/148/105 12/149/104 90/150/118 91/151/117
f 8/152/102 6/25/25 87/28/28 88/153/120
f 22/154/109 20/144/108 94/147/114 95/155/113
f 16/156/106 14/148/105 91/151/117 92/157/116
f 10/158/103 8/152/102 88/153/120 89/159/119
f 24/160/110 22/154/109 95/155/113 96/161/112
f 4/26/26 2/162/101 86/163/111 85/27/27
f 18/145/107 16/156/106 92/157/116 93/146/115
f 12/149/104 10/158/103 89/159/119 90/150/118
f 2/164/101 24/160/110 96/161/112 86/165/111
f 98/2/2 99/76/35 100/166/32 97/167/8
f 102/3/3 98/2/2 97/167/8 101/168/7
f 104/92/88 102/3/3 101/168/7 103/169/10
f 106/90/86 104/92/88 103/169/10 105/170/12
f 108/88/84 106/90/86 105/170/12 107/171/14
f 110/86/82 108/88/84 107/171/14 109/172/16
f 112/84/80 110/86/82 109/172/16 111/173/18
f 114/82/78 112/84/80 111/173/18 113/174/20
f 116/80/76 114/82/78 113/174/20 115/175/22
f 118/78/74 116/80/76 115/175/22 117/176/24
f 120/34/34 118/78/74 117/176/24 119/177/30
f 99/35/35 120/34/34 119/177/30 100/178/32
f 38/105/31 40/5/5 97/8/8 100/179/32
f 1/180/36 3/181/1 5/182/4 7/183/87 9/184/85 11/185/83 13/186/81 15/187/79 17/188/77 19/189/75 21/190/73 23/191/33
