# Blender v3.1.2 OBJ File: 'puzzle g.blend'
# www.blender.org
mtllib S_Cadre.mtl
o S_Cadre_S_Cadre_Cube.044
v -0.042332 0.618559 -0.412576
v -0.040403 0.618592 0.413021
v -0.022813 0.634747 0.423596
v -0.024793 0.634713 -0.423356
v 0.027931 -0.618679 0.412660
v 0.026316 0.000226 0.362729
v 0.008734 0.000080 0.372219
v 0.010392 -0.634834 0.423439
v 0.023359 0.538845 -0.344574
v 0.024968 0.538871 0.344263
v -0.013698 0.538551 0.344488
v -0.015308 0.538524 -0.344348
v -0.021395 -0.000170 0.372393
v -0.039021 -0.000317 0.363109
v -0.040717 -0.000345 -0.362646
v -0.023135 -0.000199 -0.372136
v 0.026175 0.000223 0.302619
v 0.024935 0.619133 0.412642
v 0.024761 0.000200 -0.302915
v 0.025968 -0.538449 -0.344560
v 0.026002 -0.618711 -0.412938
v 0.024620 0.000197 -0.363025
v 0.027578 -0.538423 0.344278
v 0.023005 0.619101 -0.412956
v 0.015972 0.000127 -0.239789
v 0.014795 0.454559 -0.272770
v 0.016069 0.454581 0.272567
v 0.017092 0.000147 0.239599
v -0.013905 -0.000121 -0.302691
v -0.012699 -0.538770 -0.344334
v -0.011089 -0.538743 0.344502
v -0.012491 -0.000098 0.302843
v 0.016995 -0.454306 -0.272759
v 0.018270 -0.454285 0.272580
v 0.005337 0.634963 -0.423530
v 0.007317 0.634997 0.423422
v 0.008411 -0.634866 -0.423513
v 0.006995 0.000051 -0.372311
v -0.037406 -0.619221 0.413038
v -0.039336 -0.619252 -0.412558
v -0.021717 -0.635116 -0.423338
v -0.019738 -0.635084 0.423615
vt 0.295513 0.443419
vt 0.085660 0.440011
vt 0.092081 0.435025
vt 0.289071 0.437351
vt 0.102726 0.042914
vt 0.042910 0.227762
vt 0.035218 0.227764
vt 0.098881 0.036464
vt 0.297603 0.975111
vt 0.069077 0.957280
vt 0.081208 0.942094
vt 0.286325 0.961461
vt 0.021862 0.227761
vt 0.014492 0.227715
vt 0.371647 0.237953
vt 0.364138 0.237950
vt 0.065973 0.227466
vt 0.113920 0.400009
vt 0.102792 0.420381
vt 0.319403 0.238268
vt 0.269782 0.064292
vt 0.280860 0.043634
vt 0.342798 0.238076
vt 0.113251 0.062204
vt 0.269058 0.403579
vt 0.279221 0.422842
vt 0.467977 0.502182
vt 0.439576 0.097286
vt 0.924621 0.097339
vt 0.896285 0.502695
vt 0.352976 0.752764
vt 0.333275 0.751156
vt 0.072397 0.476887
vt 0.311083 0.514313
vt 0.297587 0.526030
vt 0.086736 0.496696
vt 0.014899 0.739479
vt 0.035378 0.738802
vt 0.994174 0.022672
vt 0.958514 0.502842
vt 0.439653 0.907537
vt 0.370270 0.982515
vt 0.405912 0.502347
vt 0.924693 0.907581
vt 0.988591 0.987167
vt 0.375920 0.987110
vt 0.375861 0.017990
vt 0.988540 0.018059
vt 0.282819 0.428805
vt 0.098768 0.426727
vt 0.284697 0.037611
vt 0.350581 0.238040
vt 0.086600 0.022979
vt 0.297803 0.022979
vt 0.291063 0.029085
vt 0.092732 0.028044
vt 0.370262 0.022709
vt 0.994174 0.982468
vn -0.6769 0.7360 0.0016
vn 0.4732 0.0721 0.8780
vn 0.0083 -1.0000 0.0000
vn -0.4643 -0.0722 0.8827
vn -0.4732 -0.0721 -0.8780
vn 1.0000 0.0024 -0.0023
vn 0.0052 0.0771 0.9970
vn -0.0083 1.0000 -0.0000
vn -0.0051 -0.0771 -0.9970
vn 0.9084 -0.0293 0.4170
vn 0.9057 0.0338 -0.4225
vn 0.9440 -0.3300 -0.0022
vn 0.9419 0.3358 -0.0022
vn 0.6686 0.7436 -0.0016
vn 0.6770 -0.7360 -0.0016
vn 0.4654 -0.0700 -0.8823
vn -0.6686 -0.7436 0.0016
vn -0.0064 0.0804 -0.9967
vn 0.0051 0.0804 0.9967
vn 0.4743 -0.0697 0.8776
vn 0.0064 -0.0804 0.9967
vn -0.0051 -0.0804 -0.9967
vn 0.4644 0.0722 -0.8827
vn 0.9060 -0.0294 -0.4224
vn 0.9082 0.0337 0.4172
vn -0.0064 0.0771 -0.9970
vn 0.0064 -0.0771 0.9970
vn -0.4742 0.0697 -0.8776
vn -0.4654 0.0700 0.8823
usemtl None.001
s off
f 1/1/1 2/2/1 3/3/1 4/4/1
f 5/5/2 6/6/2 7/7/2 8/8/2
f 9/9/3 10/10/3 11/11/3 12/12/3
f 13/13/4 3/3/4 2/2/4 14/14/4
f 15/15/5 1/1/5 4/4/5 16/16/5
f 17/17/6 10/18/6 18/19/6 6/6/6
f 19/20/6 20/21/6 21/22/6 22/23/6
f 20/21/6 23/24/6 5/5/6 21/22/6
f 10/18/6 9/25/6 24/26/6 18/19/6
f 25/27/6 26/28/6 27/29/6 28/30/6
f 19/31/7 9/9/7 12/12/7 29/32/7
f 23/33/8 20/34/8 30/35/8 31/36/8
f 17/37/9 23/33/9 31/36/9 32/38/9
f 28/30/10 27/29/10 11/39/10 32/40/10
f 25/27/11 33/41/11 30/42/11 29/43/11
f 33/41/12 34/44/12 31/45/12 30/46/12
f 27/29/13 26/28/13 12/47/13 11/48/13
f 35/49/14 36/50/14 18/19/14 24/26/14
f 8/8/15 37/51/15 21/22/15 5/5/15
f 38/52/16 35/49/16 24/26/16 22/23/16
f 39/53/17 40/54/17 41/55/17 42/56/17
f 36/50/8 35/49/8 4/4/8 3/3/8
f 37/51/3 8/8/3 42/56/3 41/55/3
f 38/52/18 37/51/18 41/55/18 16/16/18
f 13/13/19 42/56/19 8/8/19 7/7/19
f 6/6/20 18/19/20 36/50/20 7/7/20
f 3/3/21 13/13/21 7/7/21 36/50/21
f 35/49/22 38/52/22 16/16/22 4/4/22
f 37/51/23 38/52/23 22/23/23 21/22/23
f 26/28/24 25/27/24 29/43/24 12/57/24
f 34/44/25 28/30/25 32/40/25 31/58/25
f 10/10/26 17/37/26 32/38/26 11/11/26
f 20/34/27 19/31/27 29/32/27 30/35/27
f 33/41/6 25/27/6 28/30/6 34/44/6
f 9/25/6 19/20/6 22/23/6 24/26/6
f 23/24/6 17/17/6 6/6/6 5/5/6
f 40/54/28 15/15/28 16/16/28 41/55/28
f 42/56/29 13/13/29 14/14/29 39/53/29
