# Blender v3.1.2 OBJ File: 'puzzle g.blend'
# www.blender.org
mtllib S_Cigarette.mtl
o S_Cigarette_Plane.043
v -0.001264 -0.062343 -0.008410
v -0.000901 0.062352 -0.008395
v 0.003083 -0.062356 -0.007825
v 0.003446 0.062339 -0.007811
v 0.006554 -0.062366 -0.005146
v 0.006917 0.062328 -0.005131
v 0.008221 -0.062372 -0.001090
v 0.008584 0.062323 -0.001075
v 0.007636 -0.062371 0.003257
v 0.008000 0.062324 0.003272
v 0.004957 -0.062363 0.006728
v 0.005320 0.062332 0.006743
v 0.000901 -0.062352 0.008395
v 0.001264 0.062343 0.008410
v -0.003446 -0.062339 0.007811
v -0.003083 0.062356 0.007825
v -0.006917 -0.062328 0.005131
v -0.006554 0.062366 0.005146
v -0.008584 -0.062323 0.001075
v -0.008221 0.062372 0.001090
v -0.008000 -0.062324 -0.003272
v -0.007636 0.062371 -0.003257
v -0.005320 -0.062332 -0.006743
v -0.004957 0.062363 -0.006728
vt 0.000156 0.386914
vt 0.999844 0.386907
vt 0.999844 0.422065
vt 0.000157 0.422074
vt 0.000158 0.000156
vt 0.999844 0.000164
vt 0.999843 0.035322
vt 0.000157 0.035314
vt 0.999844 0.070480
vt 0.000157 0.070474
vt 0.999843 0.105639
vt 0.000157 0.105636
vt 0.999843 0.140797
vt 0.000157 0.140794
vt 0.999843 0.175956
vt 0.000156 0.175955
vt 0.999843 0.211114
vt 0.000156 0.211113
vt 0.999843 0.246273
vt 0.000157 0.246272
vt 0.999843 0.281431
vt 0.000156 0.281431
vt 0.999843 0.316590
vt 0.000156 0.316591
vt 0.194380 0.474266
vt 0.323641 0.474266
vt 0.435584 0.538895
vt 0.500216 0.650838
vt 0.500216 0.780099
vt 0.435587 0.892043
vt 0.323644 0.956673
vt 0.194383 0.956673
vt 0.082438 0.892043
vt 0.017808 0.780101
vt 0.017808 0.650839
vt 0.082439 0.538897
vt 0.999843 0.351748
vt 0.000156 0.351753
vt 0.992958 0.651313
vt 0.992958 0.778375
vt 0.929427 0.888414
vt 0.819389 0.951945
vt 0.692326 0.951944
vt 0.582288 0.888414
vt 0.518757 0.778375
vt 0.518757 0.651313
vt 0.582288 0.541273
vt 0.692327 0.477743
vt 0.819388 0.477743
vt 0.929427 0.541275
vn 0.1333 -0.0003 -0.9911
vn 0.6110 -0.0017 -0.7916
vn 0.9249 -0.0026 -0.3801
vn 0.9911 -0.0029 0.1333
vn 0.7916 -0.0024 0.6110
vn 0.3801 -0.0012 0.9250
vn -0.1333 0.0003 0.9911
vn -0.6110 0.0017 0.7916
vn -0.9250 0.0026 0.3801
vn -0.9911 0.0029 -0.1333
vn 0.0029 1.0000 0.0001
vn -0.7916 0.0024 -0.6110
vn -0.3801 0.0012 -0.9250
vn -0.0029 -1.0000 -0.0001
usemtl None
s off
f 1/1/1 2/2/1 4/3/1 3/4/1
f 3/5/2 4/6/2 6/7/2 5/8/2
f 5/8/3 6/7/3 8/9/3 7/10/3
f 7/10/4 8/9/4 10/11/4 9/12/4
f 9/12/5 10/11/5 12/13/5 11/14/5
f 11/14/6 12/13/6 14/15/6 13/16/6
f 13/16/7 14/15/7 16/17/7 15/18/7
f 15/18/8 16/17/8 18/19/8 17/20/8
f 17/20/9 18/19/9 20/21/9 19/22/9
f 19/22/10 20/21/10 22/23/10 21/24/10
f 4/25/11 2/26/11 24/27/11 22/28/11 20/29/11 18/30/11 16/31/11 14/32/11 12/33/11 10/34/11 8/35/11 6/36/11
f 21/24/12 22/23/12 24/37/12 23/38/12
f 23/38/13 24/37/13 2/2/13 1/1/13
f 1/39/14 3/40/14 5/41/14 7/42/14 9/43/14 11/44/14 13/45/14 15/46/14 17/47/14 19/48/14 21/49/14 23/50/14
