# Blender v3.1.2 OBJ File: 'puzzle g.blend'
# www.blender.org
mtllib S_Cigarette.mtl
o S_Cigarette_Plane.043
v 0.819346 0.575909 13.392295
v 0.819709 0.700604 13.392310
v 0.823692 0.575896 13.392879
v 0.824055 0.700591 13.392895
v 0.827164 0.575886 13.395559
v 0.827527 0.700580 13.395575
v 0.828830 0.575880 13.399615
v 0.829194 0.700575 13.399631
v 0.828246 0.575881 13.403962
v 0.828609 0.700576 13.403976
v 0.825566 0.575889 13.407434
v 0.825929 0.700584 13.407449
v 0.821510 0.575900 13.409101
v 0.821873 0.700595 13.409116
v 0.817164 0.575913 13.408516
v 0.817527 0.700608 13.408531
v 0.813692 0.575924 13.405836
v 0.814055 0.700618 13.405851
v 0.812025 0.575929 13.401780
v 0.812388 0.700624 13.401795
v 0.812610 0.575928 13.397434
v 0.812973 0.700623 13.397449
v 0.815289 0.575920 13.393962
v 0.815652 0.700615 13.393977
vt 0.000156 0.386914
vt 0.999844 0.386907
vt 0.999844 0.422065
vt 0.000157 0.422074
vt 0.000158 0.000156
vt 0.999844 0.000164
vt 0.999843 0.035322
vt 0.000157 0.035314
vt 0.999844 0.070480
vt 0.000157 0.070474
vt 0.999843 0.105639
vt 0.000157 0.105636
vt 0.999843 0.140797
vt 0.000157 0.140794
vt 0.999843 0.175956
vt 0.000156 0.175955
vt 0.999843 0.211114
vt 0.000156 0.211113
vt 0.999843 0.246273
vt 0.000157 0.246272
vt 0.999843 0.281431
vt 0.000156 0.281431
vt 0.999843 0.316590
vt 0.000156 0.316591
vt 0.194380 0.474266
vt 0.323641 0.474266
vt 0.435584 0.538895
vt 0.500216 0.650838
vt 0.500216 0.780099
vt 0.435587 0.892043
vt 0.323644 0.956673
vt 0.194383 0.956673
vt 0.082438 0.892043
vt 0.017808 0.780101
vt 0.017808 0.650839
vt 0.082439 0.538897
vt 0.999843 0.351748
vt 0.000156 0.351753
vt 0.992958 0.651313
vt 0.992958 0.778375
vt 0.929427 0.888414
vt 0.819389 0.951945
vt 0.692326 0.951944
vt 0.582288 0.888414
vt 0.518757 0.778375
vt 0.518757 0.651313
vt 0.582288 0.541273
vt 0.692327 0.477743
vt 0.819388 0.477743
vt 0.929427 0.541275
vn 0.1334 -0.0003 -0.9911
vn 0.6110 -0.0017 -0.7916
vn 0.9249 -0.0026 -0.3802
vn 0.9911 -0.0029 0.1333
vn 0.7917 -0.0024 0.6109
vn 0.3800 -0.0012 0.9250
vn -0.1332 0.0003 0.9911
vn -0.6110 0.0017 0.7916
vn -0.9250 0.0026 0.3801
vn -0.9911 0.0029 -0.1333
vn 0.0029 1.0000 0.0001
vn -0.7917 0.0024 -0.6109
vn -0.3802 0.0012 -0.9249
vn -0.0029 -1.0000 -0.0001
usemtl None
s off
f 1/1/1 2/2/1 4/3/1 3/4/1
f 3/5/2 4/6/2 6/7/2 5/8/2
f 5/8/3 6/7/3 8/9/3 7/10/3
f 7/10/4 8/9/4 10/11/4 9/12/4
f 9/12/5 10/11/5 12/13/5 11/14/5
f 11/14/6 12/13/6 14/15/6 13/16/6
f 13/16/7 14/15/7 16/17/7 15/18/7
f 15/18/8 16/17/8 18/19/8 17/20/8
f 17/20/9 18/19/9 20/21/9 19/22/9
f 19/22/10 20/21/10 22/23/10 21/24/10
f 4/25/11 2/26/11 24/27/11 22/28/11 20/29/11 18/30/11 16/31/11 14/32/11 12/33/11 10/34/11 8/35/11 6/36/11
f 21/24/12 22/23/12 24/37/12 23/38/12
f 23/38/13 24/37/13 2/2/13 1/1/13
f 1/39/14 3/40/14 5/41/14 7/42/14 9/43/14 11/44/14 13/45/14 15/46/14 17/47/14 19/48/14 21/49/14 23/50/14
