# Blender v3.1.2 OBJ File: 'puzzle g.blend'
# www.blender.org
mtllib S_Etagère.mtl
o S_Etagère_Cube.022
v 1.387844 -0.153188 10.210576
v 1.387844 -0.153188 9.751179
v 1.825083 -0.153188 9.751179
v 1.825083 -0.153188 10.210576
v 1.387844 0.177774 10.210576
v 1.387844 0.177774 9.751179
v 1.825083 0.177774 9.751179
v 1.825083 0.177774 10.210576
v 1.387844 -0.153188 9.780480
v 1.387844 -0.153188 10.181274
v 1.825083 -0.153188 9.780480
v 1.825083 -0.153188 10.181274
v 1.387844 0.177774 10.181274
v 1.387844 0.177774 9.780480
v 1.800866 -0.153188 9.751179
v 1.412061 -0.153188 9.751179
v 1.412061 -0.153188 10.210576
v 1.800866 -0.153188 10.210576
v 1.412061 0.177774 9.751179
v 1.800866 0.177774 9.751179
v 1.800866 0.177774 10.210576
v 1.387844 0.153911 9.751179
v 1.387844 -0.129325 9.751179
v 1.825083 0.153911 9.751179
v 1.825083 -0.129325 9.751179
v 1.825083 0.153911 10.210576
v 1.825083 -0.129325 10.210576
v 1.387844 -0.129325 10.210576
v 1.387844 0.153911 10.210576
v 1.387844 0.153911 10.181274
v 1.387844 -0.129325 10.181274
v 1.387844 0.153911 9.780480
v 1.387844 -0.129325 9.780480
v 1.800866 0.153911 10.210576
v 1.800866 -0.129325 10.210576
v 1.412061 0.153911 10.210576
v 1.412061 -0.129325 10.210576
v 1.412061 0.153911 9.751179
v 1.412061 -0.129325 9.751179
v 1.800866 0.153911 9.751179
v 1.800866 -0.129325 9.751179
v 1.412387 -0.129325 9.780480
v 1.801442 -0.129325 9.780480
v 1.801442 -0.129325 10.181274
v 1.412125 0.153911 9.780480
v 1.411731 0.153911 10.181274
v 1.411731 -0.129325 10.181274
v 1.800866 0.153911 10.181555
v 1.825083 0.177774 10.180173
v 1.800866 0.177774 10.180173
v 1.801442 0.153159 9.780480
v 1.411688 0.177774 10.210576
v 1.411688 0.177774 10.181211
v 1.412036 0.177774 9.780180
v 1.800866 0.177774 9.779654
v 1.825083 0.177774 9.779654
v 1.825083 0.153911 9.779899
v 1.825083 0.153911 10.180044
v 1.825212 -0.129325 9.780480
v 1.825212 -0.129325 10.181274
vt 0.468572 0.947206
vt 0.468633 0.967948
vt 0.447584 0.968010
vt 0.447523 0.947268
vt 0.945535 0.928164
vt 0.937559 0.960405
vt 0.914127 0.946271
vt 0.915248 0.922833
vt 0.972775 0.022111
vt 0.972775 0.008469
vt 0.989527 0.008469
vt 0.989527 0.022111
vt 0.886382 0.959899
vt 0.879525 0.928816
vt 0.052325 0.427645
vt 0.052325 0.406903
vt 0.400694 0.406903
vt 0.400694 0.427645
vt 0.896347 0.086952
vt 0.896790 0.066581
vt 0.915412 0.054532
vt 0.924117 0.082744
vt 0.006114 0.047905
vt 0.026855 0.047905
vt 0.026856 0.386178
vt 0.006115 0.385854
vt 0.827569 0.946147
vt 0.827630 0.966888
vt 0.806581 0.966950
vt 0.806520 0.946209
vt 0.805732 0.679281
vt 0.805794 0.700022
vt 0.467846 0.701019
vt 0.467784 0.680278
vt 0.826782 0.679219
vt 0.826843 0.699960
vt 0.385854 0.443779
vt 0.385854 0.464520
vt 0.047905 0.464521
vt 0.047905 0.443780
vt 0.896773 0.424890
vt 0.896876 0.398357
vt 0.923799 0.398449
vt 0.923705 0.424988
vt 0.006114 0.489989
vt 0.026855 0.489989
vt 0.026855 0.838359
vt 0.006114 0.838359
vt 0.916691 0.543764
vt 0.916595 0.573626
vt 0.879928 0.573517
vt 0.880019 0.543653
vt 0.972775 0.197681
vt 0.972775 0.184038
vt 0.989527 0.184038
vt 0.989527 0.197681
vt 0.947000 0.543864
vt 0.946901 0.573730
vt 0.446796 0.701081
vt 0.446735 0.680340
vt 0.047617 0.489989
vt 0.048187 0.838359
vt 0.386354 0.489990
vt 0.386354 0.838359
vt 0.826130 0.420802
vt 0.826857 0.666990
vt 0.805524 0.667053
vt 0.805026 0.420864
vt 0.849561 0.928783
vt 0.849963 0.573483
vt 0.787268 0.386173
vt 0.438898 0.386173
vt 0.438898 0.365068
vt 0.787268 0.365410
vt 0.983571 0.573872
vt 0.982205 0.928305
vt 0.812737 0.027174
vt 0.812737 0.365123
vt 0.787511 0.027174
vt 0.956466 0.082777
vt 0.956466 0.398483
vt 0.869892 0.057217
vt 0.886577 0.030717
vt 0.053282 0.047905
vt 0.052380 0.386178
vt 0.467360 0.668051
vt 0.466635 0.422517
vt 0.438897 0.026674
vt 0.906455 0.985210
vt 0.400956 0.385876
vt 0.426164 0.385854
vt 0.426164 0.406903
vt 0.401413 0.047905
vt 0.053282 0.026856
vt 0.401413 0.026856
vt 0.426164 0.047905
vt 0.426164 0.026856
vt 0.864799 0.082704
vt 0.989209 0.397585
vt 0.989209 0.411667
vt 0.972405 0.411667
vt 0.972260 0.397585
vt 0.401200 0.006114
vt 0.053394 0.006114
vt 0.407015 0.489990
vt 0.407015 0.838359
vt 0.427757 0.838359
vt 0.427757 0.489990
vt 0.864179 0.424758
vt 0.864288 0.398215
vt 0.989209 0.230440
vt 0.971916 0.230440
vt 0.971917 0.216358
vt 0.989209 0.216358
vt 0.438392 0.006114
vt 0.786198 0.006125
vt 0.837810 0.398160
vt 0.837770 0.082651
vt 0.446699 0.668112
vt 0.446078 0.421923
vn 0.0000 0.0000 -1.0000
vn 0.0000 0.0000 1.0000
vn -1.0000 0.0000 0.0000
vn 0.0000 1.0000 0.0000
vn 0.0000 -1.0000 0.0000
vn 0.9999 0.0000 -0.0113
vn -1.0000 -0.0010 -0.0099
vn -0.0010 -1.0000 0.0009
vn 1.0000 -0.0000 0.0000
vn 1.0000 -0.0054 0.0000
vn 1.0000 -0.0027 0.0022
vn 1.0000 -0.0027 -0.0022
vn 1.0000 0.0002 0.0022
vn 0.0158 -0.9999 0.0009
vn -0.0315 -0.0017 -0.9995
vn 0.0123 0.0010 0.9999
vn 1.0000 0.0002 -0.0022
usemtl None
s off
f 40/1/1 20/2/1 7/3/1 24/4/1
f 36/5/2 52/6/2 5/7/2 29/8/2
f 32/9/3 14/10/3 6/11/3 22/12/3
f 29/8/3 5/7/3 13/13/3 30/14/3
f 30/15/3 13/16/3 14/17/3 32/18/3
f 26/19/2 8/20/2 21/21/2 34/22/2
f 34/23/2 21/24/2 52/25/2 36/26/2
f 22/27/1 6/28/1 19/29/1 38/30/1
f 38/30/1 19/29/1 20/2/1 40/1/1
f 16/31/1 39/32/1 41/33/1 15/34/1
f 39/32/1 38/30/1 40/1/1 41/33/1
f 2/35/1 23/36/1 39/32/1 16/31/1
f 23/36/1 22/27/1 38/30/1 39/32/1
f 18/37/2 35/38/2 37/39/2 17/40/2
f 4/41/2 27/42/2 35/43/2 18/44/2
f 27/42/2 26/19/2 34/22/2 35/43/2
f 10/45/3 31/46/3 33/47/3 9/48/3
f 1/49/3 28/50/3 31/51/3 10/52/3
f 28/50/3 29/8/3 30/14/3 31/51/3
f 9/53/3 33/54/3 23/55/3 2/56/3
f 33/54/3 32/9/3 22/12/3 23/55/3
f 17/57/2 37/58/2 28/50/2 1/49/2
f 37/58/2 36/5/2 29/8/2 28/50/2
f 15/34/1 41/33/1 25/59/1 3/60/1
f 41/33/1 40/1/1 24/4/1 25/59/1
f 33/47/4 31/46/4 47/61/4 42/62/4
f 42/62/4 47/61/4 44/63/4 43/64/4
f 37/39/4 35/38/4 44/63/4 47/61/4
f 32/65/2 33/66/2 42/67/2 45/68/2
f 31/51/1 30/14/1 46/69/1 47/70/1
f 30/71/5 32/72/5 45/73/5 46/74/5
f 37/58/6 47/75/6 46/76/6 36/5/6
f 34/77/5 36/78/5 46/74/5 48/79/5
f 34/22/7 48/80/7 44/81/7 35/43/7
f 21/21/4 8/20/4 49/82/4 50/83/4
f 52/25/4 21/24/4 50/84/4 53/85/4
f 42/67/2 43/86/2 51/87/2 45/68/2
f 46/74/8 45/73/8 51/88/8 48/79/8
f 5/7/4 52/6/4 53/89/4 13/13/4
f 54/90/4 14/17/4 13/16/4 53/85/4
f 19/91/4 6/92/4 14/17/4 54/90/4
f 55/93/4 50/84/4 49/94/4 56/95/4
f 20/96/4 55/93/4 56/95/4 7/97/4
f 20/96/4 19/91/4 54/90/4 55/93/4
f 50/84/4 55/93/4 54/90/4 53/85/4
f 58/98/9 49/82/9 8/20/9 26/19/9
f 24/99/9 7/100/9 56/101/9 57/102/9
f 57/103/9 56/95/9 49/94/9 58/104/9
f 43/64/4 44/63/4 60/105/4 59/106/4
f 11/107/10 59/106/10 60/105/10 12/108/10
f 12/109/11 60/110/11 27/42/11 4/41/11
f 25/111/12 59/112/12 11/113/12 3/114/12
f 27/42/13 60/110/13 58/98/13 26/19/13
f 48/79/14 51/88/14 57/115/14 58/116/14
f 44/117/15 48/118/15 58/98/15 60/110/15
f 51/87/16 43/86/16 59/119/16 57/120/16
f 24/99/17 57/102/17 59/112/17 25/111/17
