# Blender v3.1.2 OBJ File: 'puzzle g.blend'
# www.blender.org
mtllib S_Oreiller02.mtl
o S_Oreiller02_Cube.012
v 0.192497 -0.006211 0.290078
v 0.192497 0.006211 0.290078
v -0.183205 -0.006211 0.304791
v -0.183205 0.006211 0.304791
v 0.183204 -0.006211 -0.304791
v 0.183204 0.006211 -0.304791
v -0.192497 -0.006211 -0.290077
v -0.192497 0.006211 -0.290077
v -0.085356 -0.048399 0.300959
v 0.094649 -0.048398 0.293910
v 0.094649 0.048398 0.293910
v -0.085356 0.048399 0.300959
v 0.085357 -0.048398 -0.300959
v -0.094649 -0.048399 -0.293909
v -0.094649 0.048399 -0.293909
v 0.085357 0.048398 -0.300959
v -0.190084 -0.048235 -0.135566
v -0.185618 -0.048235 0.150279
v -0.185618 0.048235 0.150279
v -0.190084 0.048235 -0.135566
v 0.190083 -0.048235 0.135565
v 0.185618 -0.048235 -0.150279
v 0.185618 0.048235 -0.150279
v 0.190083 0.048235 0.135565
v -0.087770 0.071054 0.146447
v -0.092235 0.071053 -0.139398
v 0.092236 0.071053 0.139397
v 0.087770 0.071053 -0.146447
v -0.092235 -0.071053 -0.139398
v -0.087770 -0.071054 0.146447
v 0.087770 -0.071053 -0.146447
v 0.092236 -0.071053 0.139397
vt 0.809332 0.586181
vt 0.701194 0.601343
vt 0.715996 0.483466
vt 0.730271 0.479457
vt 0.274396 0.425179
vt 0.278106 0.517794
vt 0.113801 0.490651
vt 0.112425 0.477225
vt 0.002328 0.786572
vt 0.109896 0.783082
vt 0.081877 0.896758
vt 0.067487 0.898986
vt 0.563715 0.997672
vt 0.551201 0.891234
vt 0.726787 0.896688
vt 0.730077 0.910483
vt 0.240352 0.133855
vt 0.065537 0.147396
vt 0.046530 0.027222
vt 0.229174 0.021403
vt 0.548998 0.788039
vt 0.705478 0.782670
vt 0.547717 0.514261
vt 0.547702 0.612413
vt 0.090439 0.353557
vt 0.261978 0.325417
vt 0.099917 0.486775
vt 0.122633 0.604637
vt 0.022204 0.583059
vt 0.741172 0.899136
vt 0.809332 0.794044
vt 0.729015 0.341717
vt 0.554620 0.319323
vt 0.556089 0.123882
vt 0.737358 0.127787
vt 0.716215 0.469506
vt 0.550403 0.421667
vt 0.274517 0.613748
vt 0.264893 0.788106
vt 0.257300 0.891930
vt 0.555110 0.008501
vt 0.743681 0.002328
vt 0.078907 0.910846
vt 0.244119 0.995458
vn -0.0847 -0.6800 0.7283
vn -0.0847 0.6800 0.7283
vn -0.6364 0.3908 0.6650
vn -0.6364 -0.3908 0.6650
vn -0.7747 -0.6301 -0.0526
vn -0.7747 0.6301 -0.0526
vn -0.6725 0.3901 -0.6289
vn -0.6725 -0.3901 -0.6289
vn 0.0847 -0.6800 -0.7283
vn 0.0847 0.6800 -0.7283
vn 0.6364 0.3908 -0.6650
vn 0.6364 -0.3908 -0.6650
vn 0.7747 -0.6301 0.0526
vn 0.7747 0.6301 0.0526
vn 0.6725 0.3901 0.6289
vn 0.6725 -0.3901 0.6289
vn 0.1314 -0.9875 -0.0875
vn 0.7716 -0.6312 -0.0788
vn 0.1385 0.9868 0.0835
vn 0.1378 0.6782 0.7218
vn -0.7716 0.6312 0.0788
vn -0.1314 0.9875 0.0875
vn -0.1378 -0.6782 -0.7218
vn -0.1385 -0.9868 -0.0835
vn -0.1378 0.6782 -0.7218
vn 0.1378 -0.6782 0.7218
vn -0.1314 -0.9875 0.0875
vn 0.1385 -0.9868 0.0835
vn -0.7716 -0.6312 0.0788
vn -0.1385 0.9868 -0.0835
vn 0.1314 0.9875 -0.0875
vn 0.7716 0.6312 -0.0788
usemtl None
s 1
f 9/1/1 12/2/2 4/3/3 3/4/4
f 17/5/5 20/6/6 8/7/7 7/8/8
f 13/9/9 16/10/10 6/11/11 5/12/12
f 21/13/13 24/14/14 2/15/15 1/16/16
f 31/17/17 13/18/9 5/19/12 22/20/18
f 27/21/19 11/22/20 2/15/15 24/14/14
f 19/23/21 4/3/3 12/2/2 25/24/22
f 25/24/22 12/2/2 11/22/20 27/21/19
f 17/5/5 7/8/8 14/25/23 29/26/24
f 29/26/24 14/25/23 13/18/9 31/17/17
f 7/27/8 8/7/7 15/28/25 14/29/23
f 14/29/23 15/28/25 16/10/10 13/9/9
f 1/30/16 2/15/15 11/22/20 10/31/26
f 10/31/26 11/22/20 12/2/2 9/1/1
f 9/32/1 30/33/27 32/34/28 10/35/26
f 30/33/27 29/26/24 31/17/17 32/34/28
f 3/36/4 18/37/29 30/33/27 9/32/1
f 18/37/29 17/5/5 29/26/24 30/33/27
f 15/28/25 26/38/30 28/39/31 16/10/10
f 26/38/30 25/24/22 27/21/19 28/39/31
f 8/7/7 20/6/6 26/38/30 15/28/25
f 20/6/6 19/23/21 25/24/22 26/38/30
f 16/10/10 28/39/31 23/40/32 6/11/11
f 28/39/31 27/21/19 24/14/14 23/40/32
f 10/35/26 32/34/28 21/41/13 1/42/16
f 32/34/28 31/17/17 22/20/18 21/41/13
f 5/43/12 6/11/11 23/40/32 22/44/18
f 22/44/18 23/40/32 24/14/14 21/13/13
f 3/36/4 4/3/3 19/23/21 18/37/29
f 18/37/29 19/23/21 20/6/6 17/5/5
