# Blender v3.1.2 OBJ File: 'puzzle g.blend'
# www.blender.org
mtllib S_Tapis.mtl
o S_Tapis_Plane.017
v -0.864008 0.014963 1.176917
v 0.864008 0.004583 1.176917
v -0.864008 -0.005607 -1.176917
v 0.864008 -0.006640 -1.176917
v -0.864008 -0.019458 -1.176917
v -0.864008 0.001021 1.176917
v 0.864008 -0.009262 1.176917
v 0.864008 -0.020498 -1.176917
v -0.518405 0.003693 1.176917
v -0.172802 -0.002951 1.176917
v 0.172802 0.004477 1.176917
v 0.518405 0.009065 1.176917
v 0.518405 -0.003376 -1.176917
v 0.172802 0.000411 -1.176917
v -0.172802 -0.005607 -1.176917
v -0.518405 -0.010664 -1.176917
v -0.518405 -0.010133 1.176917
v -0.172802 -0.016695 1.176917
v 0.172802 -0.009361 1.176917
v 0.518405 -0.004804 1.176917
v 0.518405 -0.017210 -1.176917
v 0.172802 -0.013403 -1.176917
v -0.172802 -0.019458 -1.176917
v -0.518405 -0.024552 -1.176917
v -0.864008 -0.001739 -0.784611
v -0.864008 0.000685 -0.392306
v -0.864008 0.003865 0.000000
v -0.864008 0.007863 0.392306
v -0.864008 0.010722 0.784611
v 0.864008 0.010772 0.784611
v 0.864008 0.004583 0.392306
v 0.864008 0.007828 -0.000000
v 0.864008 0.017782 -0.392306
v 0.864008 0.004478 -0.784611
v -0.864008 -0.015568 -0.784611
v -0.864008 -0.013119 -0.392306
v -0.864008 -0.009965 0.000000
v -0.864008 -0.006001 0.392306
v -0.864008 -0.003128 0.784611
v 0.864008 -0.003106 0.784611
v 0.864008 -0.009262 0.392306
v 0.864008 -0.006014 -0.000000
v 0.864008 0.003957 -0.392306
v 0.864008 -0.009418 -0.784611
v -0.518405 0.002806 0.784611
v -0.518405 0.014585 0.392306
v -0.518405 0.006061 -0.000000
v -0.518405 0.000685 -0.392306
v -0.518405 -0.004540 -0.784611
v -0.172802 0.007548 0.784611
v -0.172802 0.018976 0.392306
v -0.172802 0.009065 -0.000000
v -0.172802 0.000960 -0.392306
v -0.172802 -0.001739 -0.784611
v 0.172802 0.010772 0.784611
v 0.172802 0.010772 0.392306
v 0.172802 0.004583 -0.000000
v 0.172802 0.010875 -0.392306
v 0.172802 0.004583 -0.784611
v 0.518405 0.018878 0.784611
v 0.518405 0.009065 0.392306
v 0.518405 0.010565 -0.000000
v 0.518405 0.022721 -0.392306
v 0.518405 0.009030 -0.784611
vt 0.584231 0.821606
vt 0.725891 0.821606
vt 0.725891 0.982408
vt 0.584231 0.982408
vt 0.017592 0.017592
vt 0.017592 0.002228
vt 0.159252 0.002228
vt 0.159252 0.017592
vt 0.741255 0.821606
vt 0.741255 0.982408
vt 0.017592 0.178395
vt 0.002228 0.178395
vt 0.002228 0.017592
vt 0.159252 0.982408
vt 0.159252 0.997772
vt 0.017592 0.997772
vt 0.017592 0.982408
vt 0.584231 0.017592
vt 0.584231 0.002228
vt 0.725891 0.002228
vt 0.725891 0.017592
vt 0.300912 0.002228
vt 0.300912 0.017592
vt 0.442571 0.002228
vt 0.442571 0.017592
vt 0.725891 0.997772
vt 0.584231 0.997772
vt 0.442571 0.997772
vt 0.442571 0.982408
vt 0.300911 0.997772
vt 0.300911 0.982408
vt 0.017592 0.821605
vt 0.159252 0.821605
vt 0.300911 0.821605
vt 0.442571 0.821605
vt 0.584231 0.178395
vt 0.442571 0.178395
vt 0.584231 0.339197
vt 0.442571 0.339197
vt 0.584231 0.500000
vt 0.442571 0.500000
vt 0.584231 0.660803
vt 0.442571 0.660803
vt 0.300911 0.178395
vt 0.300911 0.339197
vt 0.300911 0.500000
vt 0.300911 0.660803
vt 0.159252 0.178395
vt 0.159252 0.339197
vt 0.159252 0.500000
vt 0.159252 0.660803
vt 0.017592 0.339197
vt 0.017592 0.500000
vt 0.017592 0.660803
vt 0.002228 0.982408
vt 0.002228 0.821605
vt 0.002228 0.660803
vt 0.002228 0.500000
vt 0.002228 0.339197
vt 0.741255 0.017592
vt 0.741255 0.178395
vt 0.725891 0.178395
vt 0.741255 0.339197
vt 0.725891 0.339197
vt 0.741255 0.500000
vt 0.725891 0.500000
vt 0.741255 0.660803
vt 0.725891 0.660803
vn 0.0113 0.9995 -0.0300
vn 0.0000 0.0000 1.0000
vn 1.0000 0.0000 0.0000
vn -1.0000 0.0000 0.0000
vn 0.0000 0.0000 -1.0000
vn 0.0114 0.9999 -0.0127
vn -0.0114 0.9999 -0.0127
vn -0.0178 0.9998 -0.0102
vn -0.0010 0.9998 -0.0211
vn -0.0184 0.9996 0.0205
vn -0.0093 0.9999 -0.0125
vn -0.0062 1.0000 -0.0060
vn -0.0258 0.9994 0.0235
vn -0.0236 0.9994 -0.0255
vn -0.0154 0.9997 0.0214
vn 0.0072 0.9999 0.0146
vn 0.0183 0.9996 -0.0205
vn -0.0079 1.0000 -0.0023
vn -0.0235 0.9997 -0.0115
vn 0.0028 0.9999 0.0123
vn -0.0132 0.9995 0.0296
vn -0.0107 0.9997 -0.0235
vn -0.0047 0.9998 -0.0172
vn -0.0044 0.9999 -0.0101
vn 0.0277 0.9996 -0.0065
vn 0.0017 0.9999 0.0114
vn -0.0129 0.9998 -0.0160
vn -0.0032 0.9999 -0.0109
vn 0.0041 0.9999 -0.0097
vn 0.0182 0.9996 0.0204
vn 0.0182 0.9996 -0.0204
vn 0.0104 0.9999 0.0060
vn 0.0111 0.9995 0.0282
vn 0.0137 0.9993 -0.0344
usemtl None
s off
f 64/1/1 34/2/1 4/3/1 13/4/1
f 1/5/2 6/6/2 17/7/2 9/8/2
f 34/2/3 44/9/3 8/10/3 4/3/3
f 29/11/4 39/12/4 6/13/4 1/5/4
f 16/14/5 24/15/5 5/16/5 3/17/5
f 12/18/2 20/19/2 7/20/2 2/21/2
f 9/8/2 17/7/2 18/22/2 10/23/2
f 10/23/2 18/22/2 19/24/2 11/25/2
f 11/25/2 19/24/2 20/19/2 12/18/2
f 4/3/5 8/26/5 21/27/5 13/4/5
f 13/4/5 21/27/5 22/28/5 14/29/5
f 14/29/5 22/28/5 23/30/5 15/31/5
f 15/31/5 23/30/5 24/15/5 16/14/5
f 25/32/6 49/33/6 16/14/6 3/17/6
f 49/33/7 54/34/7 15/31/7 16/14/7
f 54/34/8 59/35/8 14/29/8 15/31/8
f 59/35/9 64/1/9 13/4/9 14/29/9
f 11/25/10 12/18/10 60/36/10 55/37/10
f 55/37/11 60/36/11 61/38/11 56/39/11
f 56/39/12 61/38/12 62/40/12 57/41/12
f 57/41/13 62/40/13 63/42/13 58/43/13
f 58/43/14 63/42/14 64/1/14 59/35/14
f 10/23/15 11/25/15 55/37/15 50/44/15
f 50/44/16 55/37/16 56/39/16 51/45/16
f 51/45/17 56/39/17 57/41/17 52/46/17
f 52/46/18 57/41/18 58/43/18 53/47/18
f 53/47/19 58/43/19 59/35/19 54/34/19
f 9/8/20 10/23/20 50/44/20 45/48/20
f 45/48/21 50/44/21 51/45/21 46/49/21
f 46/49/22 51/45/22 52/46/22 47/50/22
f 47/50/23 52/46/23 53/47/23 48/51/23
f 48/51/24 53/47/24 54/34/24 49/33/24
f 1/5/25 9/8/25 45/48/25 29/11/25
f 29/11/26 45/48/26 46/49/26 28/52/26
f 28/52/27 46/49/27 47/50/27 27/53/27
f 27/53/28 47/50/28 48/51/28 26/54/28
f 26/54/29 48/51/29 49/33/29 25/32/29
f 3/17/4 5/55/4 35/56/4 25/32/4
f 25/32/4 35/56/4 36/57/4 26/54/4
f 26/54/4 36/57/4 37/58/4 27/53/4
f 27/53/4 37/58/4 38/59/4 28/52/4
f 28/52/4 38/59/4 39/12/4 29/11/4
f 2/21/3 7/60/3 40/61/3 30/62/3
f 30/62/3 40/61/3 41/63/3 31/64/3
f 31/64/3 41/63/3 42/65/3 32/66/3
f 32/66/3 42/65/3 43/67/3 33/68/3
f 33/68/3 43/67/3 44/9/3 34/2/3
f 12/18/30 2/21/30 30/62/30 60/36/30
f 60/36/31 30/62/31 31/64/31 61/38/31
f 61/38/32 31/64/32 32/66/32 62/40/32
f 62/40/33 32/66/33 33/68/33 63/42/33
f 63/42/34 33/68/34 34/2/34 64/1/34
