# Blender v3.1.2 OBJ File: 'puzzle g.blend'
# www.blender.org
mtllib S_Vase01.mtl
o S_Vase01_Cylinder
v -0.001994 -0.000000 -0.056832
v -0.001994 0.118509 -0.062134
v 0.021453 -0.000000 -0.052168
v 0.023482 0.118509 -0.057066
v 0.041331 -0.000000 -0.038886
v 0.045080 0.118509 -0.042635
v 0.054613 -0.000000 -0.019008
v 0.059511 0.118509 -0.021037
v 0.059277 -0.000000 0.004439
v 0.064579 0.118509 0.004439
v 0.054613 -0.000000 0.027887
v 0.059511 0.118509 0.029916
v 0.041331 -0.000000 0.047765
v 0.045080 0.118509 0.051514
v 0.021453 -0.000000 0.061046
v 0.023482 0.118509 0.065945
v -0.001994 -0.000000 0.065710
v -0.001994 0.118509 0.071012
v -0.025442 -0.000000 0.061046
v -0.027471 0.118509 0.065945
v -0.045320 -0.000000 0.047765
v -0.049069 0.118509 0.051514
v -0.058602 -0.000000 0.027887
v -0.063500 0.118509 0.029916
v -0.063266 -0.000000 0.004439
v -0.068567 0.118509 0.004439
v -0.058602 -0.000000 -0.019008
v -0.063500 0.118509 -0.021037
v -0.045320 -0.000000 -0.038886
v -0.049069 0.118509 -0.042635
v -0.025442 -0.000000 -0.052168
v -0.027471 0.118509 -0.057066
v -0.001994 0.118509 -0.077167
v 0.029235 0.118509 -0.070955
v 0.055710 0.118509 -0.053265
v 0.073400 0.118509 -0.026790
v 0.079612 0.118509 0.004439
v 0.073400 0.118509 0.035669
v 0.055710 0.118509 0.062144
v 0.029235 0.118509 0.079834
v -0.001994 0.118509 0.086046
v -0.033224 0.118509 0.079834
v -0.059699 0.118509 0.062144
v -0.077389 0.118509 0.035669
v -0.083601 0.118509 0.004439
v -0.077389 0.118509 -0.026790
v -0.059699 0.118509 -0.053265
v -0.033224 0.118509 -0.070955
v -0.001994 0.090866 -0.057762
v 0.021809 0.090866 -0.053027
v 0.041989 0.090866 -0.039544
v 0.055472 0.090866 -0.019364
v 0.060207 0.090866 0.004439
v 0.055472 0.090866 0.028243
v 0.041989 0.090866 0.048422
v 0.021809 0.090866 0.061906
v -0.001994 0.090866 0.066641
v -0.025798 0.090866 0.061906
v -0.045977 0.090866 0.048422
v -0.059461 0.090866 0.028243
v -0.064196 0.090866 0.004439
v -0.059461 0.090866 -0.019364
v -0.045977 0.090866 -0.039544
v -0.025798 0.090866 -0.053027
vt 0.075317 0.931542
vt 0.068707 0.872334
vt 0.309369 0.831210
vt 0.318930 0.884174
vt 0.060776 0.813380
vt 0.301301 0.778118
vt 0.053296 0.754018
vt 0.294663 0.724793
vt 0.046956 0.694202
vt 0.289444 0.671205
vt 0.042037 0.633997
vt 0.285649 0.617363
vt 0.038655 0.573473
vt 0.283288 0.563293
vt 0.036862 0.512687
vt 0.282370 0.509026
vt 0.036681 0.451688
vt 0.282905 0.454600
vt 0.038123 0.390514
vt 0.284903 0.400050
vt 0.041184 0.329183
vt 0.288373 0.345414
vt 0.045830 0.267667
vt 0.293334 0.290723
vt 0.051946 0.205801
vt 0.299825 0.236001
vt 0.059183 0.143026
vt 0.307946 0.181234
vt 0.066413 0.077593
vt 0.317971 0.126291
vt 0.069458 0.003729
vt 0.330227 0.074011
vt 0.334208 0.625903
vt 0.402097 0.617585
vt 0.411100 0.676210
vt 0.343844 0.688648
vt 0.044926 0.989841
vt 0.045016 0.933350
vt 0.076982 0.996271
vt 0.572553 0.509009
vt 0.665691 0.470430
vt 0.766502 0.470430
vt 0.859640 0.509009
vt 0.930924 0.580293
vt 0.969503 0.673431
vt 0.969503 0.774242
vt 0.930925 0.867380
vt 0.859640 0.938665
vt 0.766502 0.977244
vt 0.665691 0.977243
vt 0.572553 0.938665
vt 0.501268 0.867380
vt 0.462689 0.774242
vt 0.462689 0.673431
vt 0.501268 0.580293
vt 0.037731 0.876149
vt 0.029169 0.817380
vt 0.021244 0.757543
vt 0.014602 0.697005
vt 0.009468 0.635985
vt 0.005925 0.574609
vt 0.004007 0.512956
vt 0.003729 0.451084
vt 0.005094 0.389038
vt 0.008084 0.326855
vt 0.012637 0.264549
vt 0.018555 0.202082
vt 0.025255 0.139280
vt 0.031006 0.075635
vt 0.030519 0.010144
vt 0.374479 0.186677
vt 0.439723 0.207201
vt 0.423658 0.264296
vt 0.357285 0.247785
vt 0.596110 0.416196
vt 0.534607 0.354694
vt 0.501322 0.274336
vt 0.501322 0.187358
vt 0.534607 0.107000
vt 0.596110 0.045497
vt 0.676467 0.012212
vt 0.763446 0.012212
vt 0.843803 0.045497
vt 0.905306 0.107000
vt 0.938591 0.187358
vt 0.938591 0.274336
vt 0.905306 0.354694
vt 0.843803 0.416197
vt 0.763446 0.449482
vt 0.676467 0.449482
vt 0.343844 0.309826
vt 0.411100 0.322263
vt 0.357285 0.750689
vt 0.423658 0.734177
vt 0.334208 0.372571
vt 0.402097 0.380888
vt 0.374480 0.811796
vt 0.439723 0.791272
vt 0.328412 0.435786
vt 0.396681 0.439952
vt 0.395365 0.871742
vt 0.459237 0.847282
vt 0.419863 0.068168
vt 0.447883 0.011207
vt 0.508307 0.043253
vt 0.482127 0.096474
vt 0.326478 0.499237
vt 0.394874 0.499237
vt 0.419863 0.930305
vt 0.482127 0.901999
vt 0.395365 0.126731
vt 0.459237 0.151191
vt 0.328412 0.562688
vt 0.396681 0.558521
vt 0.447883 0.987266
vt 0.508307 0.955221
vt 0.330227 0.937256
vn 0.3058 0.6013 -0.7382
vn 0.5650 0.6013 -0.5650
vn 0.4858 -0.7266 -0.4858
vn 0.2629 -0.7266 -0.6347
vn 0.7382 0.6013 -0.3058
vn 0.6347 -0.7266 -0.2629
vn 0.7990 0.6013 -0.0000
vn 0.6870 -0.7266 -0.0000
vn 0.7382 0.6013 0.3058
vn 0.6347 -0.7266 0.2629
vn 0.5650 0.6013 0.5650
vn 0.4858 -0.7266 0.4858
vn 0.3058 0.6013 0.7382
vn 0.2629 -0.7266 0.6347
vn -0.0000 0.6013 0.7990
vn -0.0000 -0.7266 0.6870
vn -0.3058 0.6013 0.7382
vn -0.2629 -0.7266 0.6347
vn -0.5650 0.6013 0.5650
vn -0.4858 -0.7266 0.4858
vn -0.7382 0.6013 0.3058
vn -0.6347 -0.7266 0.2629
vn -0.7990 0.6013 -0.0000
vn -0.6870 -0.7266 -0.0000
vn -0.7382 0.6013 -0.3058
vn -0.6347 -0.7266 -0.2629
vn -0.5650 0.6013 -0.5650
vn -0.4858 -0.7266 -0.4858
vn -0.3058 0.6013 -0.7382
vn -0.2629 -0.7266 -0.6347
vn 0.0000 0.6013 -0.7990
vn 0.0000 -0.7266 -0.6870
vn 0.4225 0.8018 -0.4225
vn 0.4892 0.7221 -0.4892
vn 0.6391 0.7221 -0.2647
vn 0.5521 0.8018 -0.2287
vn -0.0000 0.8018 0.5976
vn -0.2287 0.8018 0.5521
vn -0.4225 0.8018 0.4225
vn -0.5521 0.8018 0.2287
vn -0.5976 0.8018 -0.0000
vn -0.5521 0.8018 -0.2287
vn -0.4225 0.8018 -0.4225
vn -0.2287 0.8018 -0.5521
vn 0.0000 0.8018 -0.5976
vn 0.2287 0.8018 -0.5521
vn 0.5976 0.8018 -0.0000
vn 0.5521 0.8018 0.2287
vn 0.4225 0.8018 0.4225
vn 0.2287 0.8018 0.5521
vn -0.6391 0.7221 0.2647
vn -0.6918 0.7221 0.0000
vn -0.0000 0.7221 0.6918
vn 0.2647 0.7221 0.6391
vn 0.4892 0.7221 0.4892
vn 0.6391 0.7221 0.2647
vn 0.6918 0.7221 0.0000
vn 0.2647 0.7221 -0.6391
vn 0.0000 0.7221 -0.6918
vn -0.2647 0.7221 -0.6391
vn -0.4892 0.7221 -0.4892
vn -0.6391 0.7221 -0.2647
vn -0.4892 0.7221 0.4892
vn -0.2647 0.7221 0.6391
usemtl None
s 1
f 34/1/1 35/2/2 5/3/3 3/4/4
f 35/2/2 36/5/5 7/6/6 5/3/3
f 36/5/5 37/7/7 9/8/8 7/6/6
f 37/7/7 38/9/9 11/10/10 9/8/8
f 38/9/9 39/11/11 13/12/12 11/10/10
f 39/11/11 40/13/13 15/14/14 13/12/12
f 40/13/13 41/15/15 17/16/16 15/14/14
f 41/15/15 42/17/17 19/18/18 17/16/16
f 42/17/17 43/19/19 21/20/20 19/18/18
f 43/19/19 44/21/21 23/22/22 21/20/20
f 44/21/21 45/23/23 25/24/24 23/22/22
f 45/23/23 46/25/25 27/26/26 25/24/24
f 46/25/25 47/27/27 29/28/28 27/26/26
f 47/27/27 48/29/29 31/30/30 29/28/28
f 48/29/29 33/31/31 1/32/32 31/30/30
f 22/33/33 59/34/34 60/35/35 24/36/36
f 2/37/37 4/38/38 34/1/1 33/39/31
f 1/40/32 3/41/4 5/42/3 7/43/6 9/44/8 11/45/10 13/46/12 15/47/14 17/48/16 19/49/18 21/50/20 23/51/22 25/52/24 27/53/26 29/54/28 31/55/30
f 4/38/38 6/56/39 35/2/2 34/1/1
f 6/56/39 8/57/40 36/5/5 35/2/2
f 8/57/40 10/58/41 37/7/7 36/5/5
f 10/58/41 12/59/42 38/9/9 37/7/7
f 12/59/42 14/60/43 39/11/11 38/9/9
f 14/60/43 16/61/44 40/13/13 39/11/11
f 16/61/44 18/62/45 41/15/15 40/13/13
f 18/62/45 20/63/46 42/17/17 41/15/15
f 20/63/46 22/64/33 43/19/19 42/17/17
f 22/64/33 24/65/36 44/21/21 43/19/19
f 24/65/36 26/66/47 45/23/23 44/21/21
f 26/66/47 28/67/48 46/25/25 45/23/23
f 28/67/48 30/68/49 47/27/27 46/25/25
f 30/68/49 32/69/50 48/29/29 47/27/27
f 32/69/50 2/70/37 33/31/31 48/29/29
f 8/71/40 52/72/51 53/73/52 10/74/41
f 49/75/53 64/76/54 63/77/55 62/78/56 61/79/57 60/80/35 59/81/34 58/82/58 57/83/59 56/84/60 55/85/61 54/86/62 53/87/52 52/88/51 51/89/63 50/90/64
f 12/91/42 10/74/41 53/73/52 54/92/62
f 26/93/47 24/36/36 60/35/35 61/94/57
f 14/95/43 12/91/42 54/92/62 55/96/61
f 28/97/48 26/93/47 61/94/57 62/98/56
f 16/99/44 14/95/43 55/96/61 56/100/60
f 30/101/49 28/97/48 62/98/56 63/102/55
f 4/103/38 2/104/37 49/105/53 50/106/64
f 18/107/45 16/99/44 56/100/60 57/108/59
f 32/109/50 30/101/49 63/102/55 64/110/54
f 6/111/39 4/103/38 50/106/64 51/112/63
f 20/113/46 18/107/45 57/108/59 58/114/58
f 2/115/37 32/109/50 64/110/54 49/116/53
f 8/71/40 6/111/39 51/112/63 52/72/51
f 22/33/33 20/113/46 58/114/58 59/34/34
f 33/39/31 34/1/1 3/4/4 1/117/32
