# Blender v3.1.2 OBJ File: 'puzzle g.blend'
# www.blender.org
mtllib S_Vase02.mtl
o S_Vase02_Cylinder.003
v 1.704434 0.298443 9.976645
v 1.704434 0.344905 9.959869
v 1.724032 0.298443 9.980543
v 1.730452 0.344905 9.965045
v 1.740646 0.298443 9.991645
v 1.752509 0.344905 9.979783
v 1.751748 0.298443 10.008259
v 1.767246 0.344905 10.001840
v 1.755646 0.298443 10.027857
v 1.772422 0.344905 10.027857
v 1.751748 0.298443 10.047455
v 1.767246 0.344905 10.053874
v 1.740646 0.298443 10.064069
v 1.752509 0.344905 10.075932
v 1.724032 0.298443 10.075170
v 1.730452 0.344905 10.090669
v 1.704434 0.298443 10.079068
v 1.704434 0.344905 10.095844
v 1.684837 0.298443 10.075170
v 1.678417 0.344905 10.090669
v 1.668222 0.298443 10.064069
v 1.656360 0.344905 10.075932
v 1.657121 0.298443 10.047455
v 1.641622 0.344905 10.053874
v 1.653223 0.298443 10.027857
v 1.636447 0.344905 10.027857
v 1.657121 0.298443 10.008259
v 1.641622 0.344905 10.001840
v 1.668222 0.298443 9.991645
v 1.656360 0.344905 9.979783
v 1.684837 0.298443 9.980543
v 1.678417 0.344905 9.965045
v 1.732867 0.394948 9.959215
v 1.704434 0.394948 9.953560
v 1.756971 0.394948 9.975321
v 1.773076 0.394948 9.999425
v 1.778732 0.394948 10.027857
v 1.773076 0.394948 10.056290
v 1.756971 0.394948 10.080393
v 1.732867 0.394948 10.096498
v 1.704434 0.394948 10.102154
v 1.676002 0.394948 10.096498
v 1.651898 0.394948 10.080393
v 1.635793 0.394948 10.056290
v 1.630137 0.394948 10.027857
v 1.635793 0.394948 9.999425
v 1.651898 0.394948 9.975321
v 1.676002 0.394948 9.959215
v 1.721394 0.457705 9.986912
v 1.704434 0.457705 9.983538
v 1.735772 0.457705 9.996519
v 1.745380 0.457705 10.010897
v 1.748753 0.457705 10.027857
v 1.745380 0.457705 10.044817
v 1.735772 0.457705 10.059195
v 1.721394 0.457705 10.068802
v 1.704434 0.457705 10.072176
v 1.687474 0.457705 10.068802
v 1.673096 0.457705 10.059195
v 1.663489 0.457705 10.044817
v 1.660116 0.457705 10.027857
v 1.663489 0.457705 10.010897
v 1.673096 0.457705 9.996519
v 1.687474 0.457705 9.986912
v 1.712398 0.527705 10.008632
v 1.704434 0.527705 10.007048
v 1.719149 0.527705 10.013143
v 1.723660 0.527705 10.019894
v 1.725244 0.527705 10.027857
v 1.723660 0.527705 10.035820
v 1.719149 0.527705 10.042571
v 1.712398 0.527705 10.047082
v 1.704434 0.527705 10.048666
v 1.696471 0.527705 10.047082
v 1.689720 0.527705 10.042571
v 1.685209 0.527705 10.035820
v 1.683625 0.527705 10.027857
v 1.685209 0.527705 10.019894
v 1.689720 0.527705 10.013143
v 1.696471 0.527705 10.008632
v 1.712925 0.609784 10.007360
v 1.704434 0.609784 10.005671
v 1.720123 0.609784 10.012169
v 1.724932 0.609784 10.019366
v 1.726621 0.609784 10.027857
v 1.724932 0.609784 10.036347
v 1.720123 0.609784 10.043545
v 1.712925 0.609784 10.048354
v 1.704434 0.609784 10.050043
v 1.695944 0.609784 10.048354
v 1.688746 0.609784 10.043545
v 1.683937 0.609784 10.036347
v 1.682248 0.609784 10.027857
v 1.683937 0.609784 10.019366
v 1.688746 0.609784 10.012169
v 1.695944 0.609784 10.007360
v 1.716123 0.609784 9.999639
v 1.704434 0.609784 9.997313
v 1.726032 0.609784 10.006260
v 1.732653 0.609784 10.016169
v 1.734978 0.609784 10.027857
v 1.732653 0.609784 10.039545
v 1.726032 0.609784 10.049454
v 1.716123 0.609784 10.056075
v 1.704434 0.609784 10.058400
v 1.692746 0.609784 10.056075
v 1.682837 0.609784 10.049454
v 1.676216 0.609784 10.039545
v 1.673891 0.609784 10.027857
v 1.676216 0.609784 10.016169
v 1.682837 0.609784 10.006260
v 1.692746 0.609784 9.999639
v 1.711743 0.596978 10.010211
v 1.704434 0.596978 10.008757
v 1.717940 0.596978 10.014351
v 1.722080 0.596978 10.020548
v 1.723534 0.596978 10.027857
v 1.722080 0.596978 10.035166
v 1.717940 0.596978 10.041363
v 1.711743 0.596978 10.045503
v 1.704434 0.596978 10.046956
v 1.697125 0.596978 10.045503
v 1.690929 0.596978 10.041363
v 1.686789 0.596978 10.035166
v 1.685335 0.596978 10.027857
v 1.686789 0.596978 10.020548
v 1.690929 0.596978 10.014351
v 1.697125 0.596978 10.010211
vt 0.067008 0.035407
vt 0.208211 0.022721
vt 0.201074 0.096180
vt 0.068362 0.092737
vt 0.191969 0.160795
vt 0.064322 0.149567
vt 0.182548 0.220550
vt 0.057470 0.205924
vt 0.173638 0.277657
vt 0.049413 0.262295
vt 0.165739 0.333424
vt 0.041204 0.319062
vt 0.159212 0.388657
vt 0.033553 0.376505
vt 0.154359 0.443871
vt 0.026953 0.434838
vt 0.151483 0.499386
vt 0.021752 0.494263
vt 0.150936 0.555358
vt 0.018218 0.555023
vt 0.151695 0.611661
vt 0.021570 0.615874
vt 0.154560 0.668438
vt 0.026149 0.675363
vt 0.158933 0.725986
vt 0.031282 0.733843
vt 0.164189 0.785004
vt 0.036111 0.791618
vt 0.169532 0.846659
vt 0.039444 0.849005
vt 0.322242 0.122256
vt 0.301486 0.183359
vt 0.173710 0.912800
vt 0.039595 0.906317
vt 0.174738 0.984532
vt 0.033746 0.963343
vt 0.910371 0.003183
vt 0.950033 0.019612
vt 0.980388 0.049967
vt 0.996817 0.089629
vt 0.996817 0.132558
vt 0.980388 0.172220
vt 0.950033 0.202575
vt 0.910371 0.219003
vt 0.867442 0.219003
vt 0.827780 0.202575
vt 0.797425 0.172220
vt 0.780997 0.132558
vt 0.780997 0.089629
vt 0.797425 0.049967
vt 0.827780 0.019612
vt 0.867442 0.003183
vt 0.250032 0.606170
vt 0.248126 0.553665
vt 0.404037 0.550334
vt 0.407170 0.594265
vt 0.256046 0.398301
vt 0.251113 0.449929
vt 0.254242 0.659381
vt 0.260826 0.713791
vt 0.273033 0.293891
vt 0.263308 0.346445
vt 0.281929 0.829997
vt 0.297714 0.895652
vt 0.285538 0.239916
vt 0.248474 0.501643
vt 0.269929 0.770206
vt 0.350307 0.053140
vt 0.319935 0.972350
vt 0.468956 0.817142
vt 0.448882 0.772300
vt 0.666758 0.683314
vt 0.672390 0.709513
vt 0.453700 0.247761
vt 0.437894 0.290365
vt 0.412928 0.638409
vt 0.425532 0.333282
vt 0.421533 0.682797
vt 0.416133 0.376382
vt 0.433338 0.727444
vt 0.409405 0.419630
vt 0.405184 0.463030
vt 0.403395 0.506593
vt 0.498663 0.165850
vt 0.473709 0.205816
vt 0.494772 0.861817
vt 0.653150 0.422490
vt 0.655854 0.393611
vt 0.906473 0.390788
vt 0.906177 0.420117
vt 0.650301 0.481427
vt 0.650146 0.511164
vt 0.675450 0.285840
vt 0.669187 0.311313
vt 0.678703 0.734005
vt 0.650833 0.540869
vt 0.663866 0.337856
vt 0.652360 0.570383
vt 0.659422 0.365344
vt 0.654724 0.599544
vt 0.657918 0.628191
vt 0.661933 0.656164
vt 0.651301 0.451816
vt 0.894032 0.934538
vt 0.867932 0.946419
vt 0.851689 0.905920
vt 0.874157 0.895692
vt 0.904237 0.624156
vt 0.904311 0.653309
vt 0.905866 0.449440
vt 0.904919 0.682999
vt 0.905534 0.478719
vt 0.906863 0.714225
vt 0.905201 0.507931
vt 0.915321 0.268416
vt 0.909689 0.301999
vt 0.912399 0.749225
vt 0.904887 0.537069
vt 0.907616 0.332086
vt 0.904607 0.566135
vt 0.906846 0.361480
vt 0.904376 0.595147
vt 0.939282 0.279008
vt 0.933364 0.305493
vt 0.931843 0.333570
vt 0.931522 0.362429
vt 0.931418 0.391674
vt 0.931226 0.421059
vt 0.930914 0.450439
vt 0.930530 0.479745
vt 0.930127 0.508955
vt 0.929741 0.538072
vt 0.929392 0.567102
vt 0.929095 0.596042
vt 0.928907 0.624875
vt 0.929003 0.653571
vt 0.929837 0.682118
vt 0.932469 0.710536
vt 0.939282 0.738683
vt 0.599234 0.208646
vt 0.570458 0.179870
vt 0.554884 0.142272
vt 0.554884 0.101577
vt 0.570458 0.063979
vt 0.599234 0.035203
vt 0.636832 0.019629
vt 0.677528 0.019629
vt 0.715126 0.035202
vt 0.743902 0.063979
vt 0.759476 0.101576
vt 0.759476 0.142272
vt 0.743902 0.179870
vt 0.715126 0.208646
vt 0.677528 0.224220
vt 0.636832 0.224220
vt 0.698940 0.964576
vt 0.670912 0.958511
vt 0.682081 0.916329
vt 0.706209 0.921550
vt 0.918936 0.920324
vt 0.895597 0.883455
vt 0.727404 0.968055
vt 0.730713 0.924546
vt 0.942439 0.903894
vt 0.915830 0.869311
vt 0.756067 0.968920
vt 0.755388 0.925290
vt 0.567762 0.909726
vt 0.545292 0.891908
vt 0.573939 0.858993
vt 0.593282 0.874331
vt 0.964343 0.885386
vt 0.934686 0.853378
vt 0.784689 0.967164
vt 0.780028 0.923778
vt 0.591764 0.925416
vt 0.613945 0.887839
vt 0.813032 0.962800
vt 0.804427 0.920021
vt 0.617100 0.938849
vt 0.635756 0.899403
vt 0.840857 0.955866
vt 0.828381 0.914052
vt 0.643556 0.949911
vt 0.658531 0.908926
vn 0.0000 -0.7855 -0.6189
vn 0.0000 -0.2307 -0.9730
vn 0.3724 -0.2307 -0.8990
vn 0.2368 -0.7855 -0.5718
vn 0.6880 -0.2307 -0.6880
vn 0.4376 -0.7855 -0.4376
vn 0.8990 -0.2307 -0.3724
vn 0.5718 -0.7855 -0.2368
vn 0.9730 -0.2307 -0.0000
vn 0.6189 -0.7855 -0.0000
vn 0.8990 -0.2307 0.3724
vn 0.5718 -0.7855 0.2368
vn 0.6880 -0.2307 0.6880
vn 0.4376 -0.7855 0.4376
vn 0.3724 -0.2307 0.8990
vn 0.2368 -0.7855 0.5718
vn -0.0000 -0.2307 0.9730
vn -0.0000 -0.7855 0.6189
vn -0.3724 -0.2307 0.8990
vn -0.2368 -0.7855 0.5718
vn -0.6880 -0.2307 0.6880
vn -0.4376 -0.7855 0.4376
vn -0.8990 -0.2307 0.3724
vn -0.5718 -0.7855 0.2368
vn -0.9730 -0.2307 -0.0000
vn -0.6189 -0.7855 -0.0000
vn -0.8990 -0.2307 -0.3724
vn -0.5718 -0.7855 -0.2368
vn -0.6880 -0.2307 -0.6880
vn -0.4376 -0.7855 -0.4376
vn 0.3781 0.1542 -0.9128
vn 0.6987 0.1542 -0.6986
vn -0.3724 -0.2307 -0.8990
vn -0.2368 -0.7855 -0.5718
vn -0.6986 0.1542 0.6987
vn -0.3781 0.1542 0.9128
vn -0.3543 0.3781 0.8553
vn -0.6546 0.3781 0.6546
vn 0.6986 0.1542 0.6987
vn 0.3781 0.1542 0.9128
vn -0.9128 0.1542 0.3781
vn -0.9880 0.1542 -0.0000
vn 0.9880 0.1542 -0.0000
vn 0.9128 0.1542 0.3781
vn -0.6987 0.1542 -0.6986
vn -0.3781 0.1542 -0.9128
vn 0.9128 0.1542 -0.3781
vn 0.0000 0.1542 0.9880
vn -0.9128 0.1542 -0.3781
vn 0.0000 0.1542 -0.9880
vn -0.3543 0.3781 -0.8553
vn -0.6546 0.3781 -0.6546
vn -0.7031 0.1057 -0.7031
vn -0.3806 0.1057 -0.9187
vn 0.6546 0.3781 -0.6546
vn 0.8553 0.3781 -0.3543
vn -0.8553 0.3781 0.3543
vn 0.9258 0.3781 -0.0000
vn -0.9258 0.3781 -0.0000
vn 0.8553 0.3781 0.3543
vn -0.8553 0.3781 -0.3543
vn 0.6546 0.3781 0.6546
vn 0.3543 0.3781 0.8553
vn -0.0000 0.3781 0.9258
vn -0.0000 0.3781 -0.9258
vn 0.3543 0.3781 -0.8553
vn 0.9187 0.1057 0.3805
vn 0.9944 0.1057 0.0000
vn 0.7836 0.6213 0.0000
vn 0.7239 0.6213 0.2999
vn 0.3806 0.1057 0.9187
vn 0.0000 0.1057 0.9944
vn 0.0000 0.1057 -0.9944
vn 0.3806 0.1057 -0.9187
vn -0.3806 0.1057 0.9187
vn 0.7031 0.1057 -0.7031
vn -0.7031 0.1057 0.7032
vn 0.9187 0.1057 -0.3805
vn -0.9187 0.1057 0.3805
vn -0.9944 0.1057 0.0000
vn -0.9187 0.1057 -0.3805
vn 0.7031 0.1057 0.7032
vn 0.5233 0.8241 0.2167
vn 0.5664 0.8241 -0.0000
vn 0.6621 0.7494 -0.0000
vn 0.6117 0.7494 0.2534
vn -0.7836 0.6213 0.0000
vn -0.7239 0.6213 -0.2999
vn 0.5541 0.6213 0.5541
vn -0.5541 0.6213 -0.5541
vn 0.2999 0.6213 0.7239
vn -0.2999 0.6213 -0.7239
vn 0.0000 0.6213 0.7836
vn 0.0000 0.6213 -0.7836
vn 0.2999 0.6213 -0.7239
vn -0.2999 0.6213 0.7239
vn 0.5541 0.6213 -0.5541
vn -0.5541 0.6213 0.5541
vn 0.7239 0.6213 -0.2999
vn -0.7239 0.6213 0.2998
vn -0.0000 0.8241 0.5664
vn -0.2168 0.8241 0.5233
vn -0.4005 0.8241 0.4005
vn -0.5233 0.8241 0.2168
vn -0.5664 0.8241 -0.0000
vn -0.5233 0.8241 -0.2168
vn -0.4005 0.8241 -0.4005
vn -0.2168 0.8241 -0.5233
vn -0.0000 0.8241 -0.5664
vn 0.2168 0.8241 -0.5233
vn 0.4005 0.8241 -0.4005
vn 0.5233 0.8241 -0.2168
vn 0.4005 0.8241 0.4005
vn 0.2168 0.8241 0.5233
vn -0.2534 0.7494 0.6117
vn -0.0000 0.7494 0.6621
vn 0.2534 0.7494 0.6117
vn 0.4682 0.7494 0.4682
vn 0.6117 0.7494 -0.2534
vn 0.4682 0.7494 -0.4682
vn 0.2534 0.7494 -0.6117
vn -0.0000 0.7494 -0.6621
vn -0.2534 0.7494 -0.6117
vn -0.4682 0.7494 -0.4682
vn -0.6117 0.7494 -0.2534
vn -0.6621 0.7494 -0.0000
vn -0.6117 0.7494 0.2534
vn -0.4682 0.7494 0.4682
usemtl None
s 1
f 1/1/1 2/2/2 4/3/3 3/4/4
f 3/4/4 4/3/3 6/5/5 5/6/6
f 5/6/6 6/5/5 8/7/7 7/8/8
f 7/8/8 8/7/7 10/9/9 9/10/10
f 9/10/10 10/9/9 12/11/11 11/12/12
f 11/12/12 12/11/11 14/13/13 13/14/14
f 13/14/14 14/13/13 16/15/15 15/16/16
f 15/16/16 16/15/15 18/17/17 17/18/18
f 17/18/18 18/17/17 20/19/19 19/20/20
f 19/20/20 20/19/19 22/21/21 21/22/22
f 21/22/22 22/21/21 24/23/23 23/24/24
f 23/24/24 24/23/23 26/25/25 25/26/26
f 25/26/26 26/25/25 28/27/27 27/28/28
f 27/28/28 28/27/27 30/29/29 29/30/30
f 6/5/5 4/3/3 33/31/31 35/32/32
f 29/30/30 30/29/29 32/33/33 31/34/34
f 31/34/34 32/33/33 2/35/2 1/36/1
f 1/37/1 3/38/4 5/39/6 7/40/8 9/41/10 11/42/12 13/43/14 15/44/16 17/45/18 19/46/20 21/47/22 23/48/24 25/49/26 27/50/28 29/51/30 31/52/34
f 43/53/35 42/54/36 58/55/37 59/56/38
f 16/15/15 14/13/13 39/57/39 40/58/40
f 26/25/25 24/23/23 44/59/41 45/60/42
f 12/11/11 10/9/9 37/61/43 38/62/44
f 22/21/21 20/19/19 42/54/36 43/53/35
f 32/33/33 30/29/29 47/63/45 48/64/46
f 8/7/7 6/5/5 35/32/32 36/65/47
f 18/17/17 16/15/15 40/58/40 41/66/48
f 28/27/27 26/25/25 45/60/42 46/67/49
f 4/3/3 2/2/2 34/68/50 33/31/31
f 14/13/13 12/11/11 38/62/44 39/57/39
f 24/23/23 22/21/21 43/53/35 44/59/41
f 2/35/2 32/33/33 48/64/46 34/69/50
f 10/9/9 8/7/7 36/65/47 37/61/43
f 20/19/19 18/17/17 41/66/48 42/54/36
f 30/29/29 28/27/27 46/67/49 47/63/45
f 64/70/51 63/71/52 79/72/53 80/73/54
f 36/65/47 35/32/32 51/74/55 52/75/56
f 44/59/41 43/53/35 59/56/38 60/76/57
f 37/61/43 36/65/47 52/75/56 53/77/58
f 45/60/42 44/59/41 60/76/57 61/78/59
f 38/62/44 37/61/43 53/77/58 54/79/60
f 46/67/49 45/60/42 61/78/59 62/80/61
f 39/57/39 38/62/44 54/79/60 55/81/62
f 47/63/45 46/67/49 62/80/61 63/71/52
f 40/58/40 39/57/39 55/81/62 56/82/63
f 48/64/46 47/63/45 63/71/52 64/70/51
f 41/66/48 40/58/40 56/82/63 57/83/64
f 33/31/31 34/68/50 50/84/65 49/85/66
f 34/69/50 48/64/46 64/70/51 50/86/65
f 42/54/36 41/66/48 57/83/64 58/55/37
f 35/32/32 33/31/31 49/85/66 51/74/55
f 70/87/67 69/88/68 101/89/69 102/90/70
f 57/83/64 56/82/63 72/91/71 73/92/72
f 49/85/66 50/84/65 66/93/73 65/94/74
f 50/86/65 64/70/51 80/73/54 66/95/73
f 58/55/37 57/83/64 73/92/72 74/96/75
f 51/74/55 49/85/66 65/94/74 67/97/76
f 59/56/38 58/55/37 74/96/75 75/98/77
f 52/75/56 51/74/55 67/97/76 68/99/78
f 60/76/57 59/56/38 75/98/77 76/100/79
f 53/77/58 52/75/56 68/99/78 69/88/68
f 61/78/59 60/76/57 76/100/79 77/101/80
f 54/79/60 53/77/58 69/88/68 70/87/67
f 62/80/61 61/78/59 77/101/80 78/102/81
f 55/81/62 54/79/60 70/87/67 71/103/82
f 63/71/52 62/80/61 78/102/81 79/72/53
f 56/82/63 55/81/62 71/103/82 72/91/71
f 94/104/83 93/105/84 125/106/85 126/107/86
f 78/102/81 77/101/80 109/108/87 110/109/88
f 71/103/82 70/87/67 102/90/70 103/110/89
f 79/72/53 78/102/81 110/109/88 111/111/90
f 72/91/71 71/103/82 103/110/89 104/112/91
f 80/73/54 79/72/53 111/111/90 112/113/92
f 73/92/72 72/91/71 104/112/91 105/114/93
f 65/94/74 66/93/73 98/115/94 97/116/95
f 66/95/73 80/73/54 112/113/92 98/117/94
f 74/96/75 73/92/72 105/114/93 106/118/96
f 67/97/76 65/94/74 97/116/95 99/119/97
f 75/98/77 74/96/75 106/118/96 107/120/98
f 68/99/78 67/97/76 99/119/97 100/121/99
f 76/100/79 75/98/77 107/120/98 108/122/100
f 69/88/68 68/99/78 100/121/99 101/89/69
f 77/101/80 76/100/79 108/122/100 109/108/87
f 82/123/101 81/124/102 97/116/95 98/115/94
f 81/124/102 83/125/103 99/119/97 97/116/95
f 83/125/103 84/126/104 100/121/99 99/119/97
f 84/126/104 85/127/105 101/89/69 100/121/99
f 85/127/105 86/128/106 102/90/70 101/89/69
f 86/128/106 87/129/107 103/110/89 102/90/70
f 87/129/107 88/130/108 104/112/91 103/110/89
f 88/130/108 89/131/109 105/114/93 104/112/91
f 89/131/109 90/132/110 106/118/96 105/114/93
f 90/132/110 91/133/111 107/120/98 106/118/96
f 91/133/111 92/134/112 108/122/100 107/120/98
f 92/134/112 93/135/84 109/108/87 108/122/100
f 93/135/84 94/136/83 110/109/88 109/108/87
f 94/136/83 95/137/113 111/111/90 110/109/88
f 95/137/113 96/138/114 112/113/92 111/111/90
f 96/138/114 82/139/101 98/117/94 112/113/92
f 113/140/115 114/141/116 128/142/117 127/143/118 126/144/86 125/145/85 124/146/119 123/147/120 122/148/121 121/149/122 120/150/123 119/151/124 118/152/125 117/153/126 116/154/127 115/155/128
f 87/156/107 86/157/106 118/158/125 119/159/124
f 95/160/113 94/104/83 126/107/86 127/161/118
f 88/162/108 87/156/107 119/159/124 120/163/123
f 96/164/114 95/160/113 127/161/118 128/165/117
f 89/166/109 88/162/108 120/163/123 121/167/122
f 81/168/102 82/169/101 114/170/116 113/171/115
f 82/172/101 96/164/114 128/165/117 114/173/116
f 90/174/110 89/166/109 121/167/122 122/175/121
f 83/176/103 81/168/102 113/171/115 115/177/128
f 91/178/111 90/174/110 122/175/121 123/179/120
f 84/180/104 83/176/103 115/177/128 116/181/127
f 92/182/112 91/178/111 123/179/120 124/183/119
f 85/184/105 84/180/104 116/181/127 117/185/126
f 93/105/84 92/182/112 124/183/119 125/106/85
f 86/157/106 85/184/105 117/185/126 118/158/125
